<?xml version="1.0" encoding="utf-8" standalone="no"?>
<!DOCTYPE svg PUBLIC "-//W3C//DTD SVG 1.1//EN"
  "http://www.w3.org/Graphics/SVG/1.1/DTD/svg11.dtd">
<svg xmlns:xlink="http://www.w3.org/1999/xlink" width="737.28pt" height="552.96pt" viewBox="0 0 737.28 552.96" xmlns="http://www.w3.org/2000/svg" version="1.1">
 <metadata>
  <rdf:RDF xmlns:dc="http://purl.org/dc/elements/1.1/" xmlns:cc="http://creativecommons.org/ns#" xmlns:rdf="http://www.w3.org/1999/02/22-rdf-syntax-ns#">
   <cc:Work>
    <dc:type rdf:resource="http://purl.org/dc/dcmitype/StillImage"/>
    <dc:date>2022-03-03T16:04:48.730994</dc:date>
    <dc:format>image/svg+xml</dc:format>
    <dc:creator>
     <cc:Agent>
      <dc:title>Matplotlib v3.5.1, https://matplotlib.org/</dc:title>
     </cc:Agent>
    </dc:creator>
   </cc:Work>
  </rdf:RDF>
 </metadata>
 <defs>
  <style type="text/css">*{stroke-linejoin: round; stroke-linecap: butt}</style>
 </defs>
 <g id="figure_1">
  <g id="patch_1">
   <path d="M 0 552.96 
L 737.28 552.96 
L 737.28 0 
L 0 0 
z
" style="fill: #ffffff"/>
  </g>
  <g id="axes_1">
   <g id="patch_2">
    <path d="M 605.509553 225.671054 
Q 502.427494 248.308151 401.529461 270.465631 
" clip-path="url(#p28b1405b5d)" style="fill: none; stroke: #000000; stroke-width: 2; stroke-linecap: round"/>
    <path d="M 410.201234 272.656601 
L 401.529461 270.465631 
L 408.485301 264.842794 
" clip-path="url(#p28b1405b5d)" style="fill: none; stroke: #000000; stroke-width: 2; stroke-linecap: round"/>
   </g>
   <g id="patch_3">
    <path d="M 607.992665 230.082069 
Q 515.421263 327.190349 424.39274 422.680133 
" clip-path="url(#p28b1405b5d)" style="fill: none; stroke: #000000; stroke-width: 2; stroke-linecap: round"/>
    <path d="M 432.807963 419.649617 
L 424.39274 422.680133 
L 427.01746 414.129645 
" clip-path="url(#p28b1405b5d)" style="fill: none; stroke: #000000; stroke-width: 2; stroke-linecap: round"/>
   </g>
   <g id="patch_4">
    <path d="M 606.389103 219.622744 
Q 504.991357 163.558131 405.550472 108.575502 
" clip-path="url(#p28b1405b5d)" style="fill: none; stroke: #000000; stroke-width: 2; stroke-linecap: round"/>
    <path d="M 410.616044 115.947067 
L 405.550472 108.575502 
L 414.487068 108.945983 
" clip-path="url(#p28b1405b5d)" style="fill: none; stroke: #000000; stroke-width: 2; stroke-linecap: round"/>
   </g>
   <g id="patch_5">
    <path d="M 399.34524 270.945291 
Q 502.427298 248.308194 603.325332 226.150715 
" clip-path="url(#p28b1405b5d)" style="fill: none; stroke: #000000; stroke-width: 2; stroke-linecap: round"/>
    <path d="M 594.653559 223.959745 
L 603.325332 226.150715 
L 596.369492 231.773552 
" clip-path="url(#p28b1405b5d)" style="fill: none; stroke: #000000; stroke-width: 2; stroke-linecap: round"/>
   </g>
   <g id="patch_6">
    <path d="M 383.933747 267.637774 
Q 324.135884 223.214121 266.132977 180.123934 
" clip-path="url(#p28b1405b5d)" style="fill: none; stroke: #000000; stroke-width: 2; stroke-linecap: round"/>
    <path d="M 270.169427 188.105606 
L 266.132977 180.123934 
L 274.940184 181.683777 
" clip-path="url(#p28b1405b5d)" style="fill: none; stroke: #000000; stroke-width: 2; stroke-linecap: round"/>
   </g>
   <g id="patch_7">
    <path d="M 392.294138 281.348745 
Q 403.88032 351.684073 415.103058 419.813067 
" clip-path="url(#p28b1405b5d)" style="fill: none; stroke: #000000; stroke-width: 2; stroke-linecap: round"/>
    <path d="M 417.749569 411.269299 
L 415.103058 419.813067 
L 409.85595 412.569597 
" clip-path="url(#p28b1405b5d)" style="fill: none; stroke: #000000; stroke-width: 2; stroke-linecap: round"/>
   </g>
   <g id="patch_8">
    <path d="M 382.613976 275.369827 
Q 277.039395 308.129868 173.600427 340.227223 
" clip-path="url(#p28b1405b5d)" style="fill: none; stroke: #000000; stroke-width: 2; stroke-linecap: round"/>
    <path d="M 182.426481 341.676628 
L 173.600427 340.227223 
L 180.055583 334.036023 
" clip-path="url(#p28b1405b5d)" style="fill: none; stroke: #000000; stroke-width: 2; stroke-linecap: round"/>
   </g>
   <g id="patch_9">
    <path d="M 382.671101 270.065373 
Q 266.315575 231.293344 152.081441 193.228206 
" clip-path="url(#p28b1405b5d)" style="fill: none; stroke: #000000; stroke-width: 2; stroke-linecap: round"/>
    <path d="M 158.406639 199.552118 
L 152.081441 193.228206 
L 160.93569 191.962394 
" clip-path="url(#p28b1405b5d)" style="fill: none; stroke: #000000; stroke-width: 2; stroke-linecap: round"/>
   </g>
   <g id="patch_10">
    <path d="M 391.148302 264.146319 
Q 393.45057 188.051536 395.685216 114.191799 
" clip-path="url(#p28b1405b5d)" style="fill: none; stroke: #000000; stroke-width: 2; stroke-linecap: round"/>
    <path d="M 391.445114 122.067174 
L 395.685216 114.191799 
L 399.441455 122.309106 
" clip-path="url(#p28b1405b5d)" style="fill: none; stroke: #000000; stroke-width: 2; stroke-linecap: round"/>
   </g>
   <g id="patch_11">
    <path d="M 385.562106 279.629465 
Q 319.763386 363.993924 255.339846 446.595182 
" clip-path="url(#p28b1405b5d)" style="fill: none; stroke: #000000; stroke-width: 2; stroke-linecap: round"/>
    <path d="M 263.413952 442.746961 
L 255.339846 446.595182 
L 257.105732 437.826965 
" clip-path="url(#p28b1405b5d)" style="fill: none; stroke: #000000; stroke-width: 2; stroke-linecap: round"/>
   </g>
   <g id="patch_12">
    <path d="M 422.850234 424.298237 
Q 515.421636 327.189957 606.450159 231.700172 
" clip-path="url(#p28b1405b5d)" style="fill: none; stroke: #000000; stroke-width: 2; stroke-linecap: round"/>
    <path d="M 598.034937 234.730689 
L 606.450159 231.700172 
L 603.825439 240.25066 
" clip-path="url(#p28b1405b5d)" style="fill: none; stroke: #000000; stroke-width: 2; stroke-linecap: round"/>
   </g>
   <g id="patch_13">
    <path d="M 412.306532 423.207779 
Q 337.129273 302.09628 263.131284 182.884602 
" clip-path="url(#p28b1405b5d)" style="fill: none; stroke: #000000; stroke-width: 2; stroke-linecap: round"/>
    <path d="M 263.951871 191.791152 
L 263.131284 182.884602 
L 270.748877 187.572063 
" clip-path="url(#p28b1405b5d)" style="fill: none; stroke: #000000; stroke-width: 2; stroke-linecap: round"/>
   </g>
   <g id="patch_14">
    <path d="M 415.46676 422.020967 
Q 403.880578 351.685639 392.65784 283.556645 
" clip-path="url(#p28b1405b5d)" style="fill: none; stroke: #000000; stroke-width: 2; stroke-linecap: round"/>
    <path d="M 390.011329 292.100413 
L 392.65784 283.556645 
L 397.904948 290.800115 
" clip-path="url(#p28b1405b5d)" style="fill: none; stroke: #000000; stroke-width: 2; stroke-linecap: round"/>
   </g>
   <g id="patch_15">
    <path d="M 408.67982 427.752943 
Q 290.031805 387.01154 173.498649 346.996339 
" clip-path="url(#p28b1405b5d)" style="fill: none; stroke: #000000; stroke-width: 2; stroke-linecap: round"/>
    <path d="M 179.765933 353.377652 
L 173.498649 346.996339 
L 182.36407 345.8113 
" clip-path="url(#p28b1405b5d)" style="fill: none; stroke: #000000; stroke-width: 2; stroke-linecap: round"/>
   </g>
   <g id="patch_16">
    <path d="M 410.356852 424.862853 
Q 279.309729 310.175724 149.945286 196.961208 
" clip-path="url(#p28b1405b5d)" style="fill: none; stroke: #000000; stroke-width: 2; stroke-linecap: round"/>
    <path d="M 153.331133 205.239857 
L 149.945286 196.961208 
L 158.599714 199.21972 
" clip-path="url(#p28b1405b5d)" style="fill: none; stroke: #000000; stroke-width: 2; stroke-linecap: round"/>
   </g>
   <g id="patch_17">
    <path d="M 416.323691 421.925325 
Q 406.444514 266.933855 396.707575 114.173924 
" clip-path="url(#p28b1405b5d)" style="fill: none; stroke: #000000; stroke-width: 2; stroke-linecap: round"/>
    <path d="M 393.224564 122.412166 
L 396.707575 114.173924 
L 401.208363 121.903278 
" clip-path="url(#p28b1405b5d)" style="fill: none; stroke: #000000; stroke-width: 2; stroke-linecap: round"/>
   </g>
   <g id="patch_18">
    <path d="M 408.30306 431.821192 
Q 332.756491 442.876772 259.422423 453.608572 
" clip-path="url(#p28b1405b5d)" style="fill: none; stroke: #000000; stroke-width: 2; stroke-linecap: round"/>
    <path d="M 267.917308 456.408024 
L 259.422423 453.608572 
L 266.758916 448.492336 
" clip-path="url(#p28b1405b5d)" style="fill: none; stroke: #000000; stroke-width: 2; stroke-linecap: round"/>
   </g>
   <g id="patch_19">
    <path d="M 403.593953 107.493708 
Q 504.9917 163.558321 604.432584 218.54095 
" clip-path="url(#p28b1405b5d)" style="fill: none; stroke: #000000; stroke-width: 2; stroke-linecap: round"/>
    <path d="M 599.367012 211.169384 
L 604.432584 218.54095 
L 595.495989 218.170468 
" clip-path="url(#p28b1405b5d)" style="fill: none; stroke: #000000; stroke-width: 2; stroke-linecap: round"/>
   </g>
   <g id="patch_20">
    <path d="M 388.293599 107.219438 
Q 326.6993 138.462736 267.099189 168.694495 
" clip-path="url(#p28b1405b5d)" style="fill: none; stroke: #000000; stroke-width: 2; stroke-linecap: round"/>
    <path d="M 276.043312 168.642816 
L 267.099189 168.694495 
L 272.42432 161.50819 
" clip-path="url(#p28b1405b5d)" style="fill: none; stroke: #000000; stroke-width: 2; stroke-linecap: round"/>
   </g>
   <g id="patch_21">
    <path d="M 395.752753 111.959539 
Q 393.450486 188.054322 391.21584 261.914059 
" clip-path="url(#p28b1405b5d)" style="fill: none; stroke: #000000; stroke-width: 2; stroke-linecap: round"/>
    <path d="M 395.455942 254.038684 
L 391.21584 261.914059 
L 387.459601 253.796752 
" clip-path="url(#p28b1405b5d)" style="fill: none; stroke: #000000; stroke-width: 2; stroke-linecap: round"/>
   </g>
   <g id="patch_22">
    <path d="M 396.565471 111.944493 
Q 406.444648 266.935963 416.181587 419.695894 
" clip-path="url(#p28b1405b5d)" style="fill: none; stroke: #000000; stroke-width: 2; stroke-linecap: round"/>
    <path d="M 419.664598 411.457652 
L 416.181587 419.695894 
L 411.6808 411.96654 
" clip-path="url(#p28b1405b5d)" style="fill: none; stroke: #000000; stroke-width: 2; stroke-linecap: round"/>
   </g>
   <g id="patch_23">
    <path d="M 389.987678 109.51974 
Q 279.602125 223.381084 170.773016 335.636975 
" clip-path="url(#p28b1405b5d)" style="fill: none; stroke: #000000; stroke-width: 2; stroke-linecap: round"/>
    <path d="M 179.213444 332.677383 
L 170.773016 335.636975 
L 173.469599 327.108878 
" clip-path="url(#p28b1405b5d)" style="fill: none; stroke: #000000; stroke-width: 2; stroke-linecap: round"/>
   </g>
   <g id="patch_24">
    <path d="M 387.816498 106.091269 
Q 268.878387 146.543458 152.057252 186.27564 
" clip-path="url(#p28b1405b5d)" style="fill: none; stroke: #000000; stroke-width: 2; stroke-linecap: round"/>
    <path d="M 160.919166 187.486625 
L 152.057252 186.27564 
L 158.343189 179.9127 
" clip-path="url(#p28b1405b5d)" style="fill: none; stroke: #000000; stroke-width: 2; stroke-linecap: round"/>
   </g>
   <g id="patch_25">
    <path d="M 392.66961 111.289843 
Q 322.327374 279.24361 252.848945 445.134895 
" clip-path="url(#p28b1405b5d)" style="fill: none; stroke: #000000; stroke-width: 2; stroke-linecap: round"/>
    <path d="M 259.628878 439.301156 
L 252.848945 445.134895 
L 252.249914 436.210705 
" clip-path="url(#p28b1405b5d)" style="fill: none; stroke: #000000; stroke-width: 2; stroke-linecap: round"/>
   </g>
   <g id="patch_26">
    <path d="M 264.335141 178.788327 
Q 324.133003 223.21198 382.13591 266.302167 
" clip-path="url(#p28b1405b5d)" style="fill: none; stroke: #000000; stroke-width: 2; stroke-linecap: round"/>
    <path d="M 378.099461 258.320496 
L 382.13591 266.302167 
L 373.328704 264.742324 
" clip-path="url(#p28b1405b5d)" style="fill: none; stroke: #000000; stroke-width: 2; stroke-linecap: round"/>
   </g>
   <g id="patch_27">
    <path d="M 261.950462 180.982282 
Q 337.127721 302.093781 411.125709 421.305459 
" clip-path="url(#p28b1405b5d)" style="fill: none; stroke: #000000; stroke-width: 2; stroke-linecap: round"/>
    <path d="M 410.305123 412.398909 
L 411.125709 421.305459 
L 403.508117 416.617998 
" clip-path="url(#p28b1405b5d)" style="fill: none; stroke: #000000; stroke-width: 2; stroke-linecap: round"/>
   </g>
   <g id="patch_28">
    <path d="M 253.181442 181.19806 
Q 210.286737 258.540729 168.476543 333.927934 
" clip-path="url(#p28b1405b5d)" style="fill: none; stroke: #000000; stroke-width: 2; stroke-linecap: round"/>
    <path d="M 175.854648 328.87189 
L 168.476543 333.927934 
L 168.858571 324.991825 
" clip-path="url(#p28b1405b5d)" style="fill: none; stroke: #000000; stroke-width: 2; stroke-linecap: round"/>
   </g>
   <g id="patch_29">
    <path d="M 248.803447 174.822122 
Q 199.561734 181.70351 152.53457 188.275421 
" clip-path="url(#p28b1405b5d)" style="fill: none; stroke: #000000; stroke-width: 2; stroke-linecap: round"/>
    <path d="M 161.011188 191.129708 
L 152.53457 188.275421 
L 159.90397 183.206699 
" clip-path="url(#p28b1405b5d)" style="fill: none; stroke: #000000; stroke-width: 2; stroke-linecap: round"/>
   </g>
   <g id="patch_30">
    <path d="M 265.103552 169.706768 
Q 326.697851 138.463471 386.297962 108.231712 
" clip-path="url(#p28b1405b5d)" style="fill: none; stroke: #ff0000; stroke-width: 2; stroke-linecap: round"/>
    <path d="M 377.353839 108.28339 
L 386.297962 108.231712 
L 380.972831 115.418017 
" clip-path="url(#p28b1405b5d)" style="fill: none; stroke: #ff0000; stroke-width: 2; stroke-linecap: round"/>
   </g>
   <g id="patch_31">
    <path d="M 257.113663 182.280302 
Q 253.010797 314.404754 248.977334 444.294214 
" clip-path="url(#p28b1405b5d)" style="fill: none; stroke: #000000; stroke-width: 2; stroke-linecap: round"/>
    <path d="M 253.223712 436.422221 
L 248.977334 444.294214 
L 245.227566 436.173916 
" clip-path="url(#p28b1405b5d)" style="fill: none; stroke: #000000; stroke-width: 2; stroke-linecap: round"/>
   </g>
   <g id="patch_32">
    <path d="M 167.392658 335.882268 
Q 210.287363 258.539599 252.097557 183.152394 
" clip-path="url(#p28b1405b5d)" style="fill: none; stroke: #000000; stroke-width: 2; stroke-linecap: round"/>
    <path d="M 244.719453 188.208438 
L 252.097557 183.152394 
L 251.71553 192.088504 
" clip-path="url(#p28b1405b5d)" style="fill: none; stroke: #000000; stroke-width: 2; stroke-linecap: round"/>
   </g>
   <g id="patch_33">
    <path d="M 171.464029 340.890152 
Q 277.038611 308.130111 380.477578 276.032757 
" clip-path="url(#p28b1405b5d)" style="fill: none; stroke: #000000; stroke-width: 2; stroke-linecap: round"/>
    <path d="M 371.651525 274.583352 
L 380.477578 276.032757 
L 374.022422 282.223957 
" clip-path="url(#p28b1405b5d)" style="fill: none; stroke: #000000; stroke-width: 2; stroke-linecap: round"/>
   </g>
   <g id="patch_34">
    <path d="M 171.386291 346.270997 
Q 290.034307 387.012399 406.567463 427.027601 
" clip-path="url(#p28b1405b5d)" style="fill: none; stroke: #000000; stroke-width: 2; stroke-linecap: round"/>
    <path d="M 400.300179 420.646288 
L 406.567463 427.027601 
L 397.702042 428.21264 
" clip-path="url(#p28b1405b5d)" style="fill: none; stroke: #000000; stroke-width: 2; stroke-linecap: round"/>
   </g>
   <g id="patch_35">
    <path d="M 161.994453 334.879554 
Q 152.467568 266.619992 143.249771 200.575032 
" clip-path="url(#p28b1405b5d)" style="fill: none; stroke: #000000; stroke-width: 2; stroke-linecap: round"/>
    <path d="M 140.394 209.05115 
L 143.249771 200.575032 
L 148.317202 207.94532 
" clip-path="url(#p28b1405b5d)" style="fill: none; stroke: #000000; stroke-width: 2; stroke-linecap: round"/>
   </g>
   <g id="patch_36">
    <path d="M 169.218591 337.240345 
Q 279.604144 223.379001 388.433253 111.12311 
" clip-path="url(#p28b1405b5d)" style="fill: none; stroke: #000000; stroke-width: 2; stroke-linecap: round"/>
    <path d="M 379.992825 114.082702 
L 388.433253 111.12311 
L 385.73667 119.651208 
" clip-path="url(#p28b1405b5d)" style="fill: none; stroke: #000000; stroke-width: 2; stroke-linecap: round"/>
   </g>
   <g id="patch_37">
    <path d="M 168.45124 350.334497 
Q 205.915715 399.322337 242.021818 446.533995 
" clip-path="url(#p28b1405b5d)" style="fill: none; stroke: #000000; stroke-width: 2; stroke-linecap: round"/>
    <path d="M 240.339288 437.749401 
L 242.021818 446.533995 
L 233.984624 442.609263 
" clip-path="url(#p28b1405b5d)" style="fill: none; stroke: #000000; stroke-width: 2; stroke-linecap: round"/>
   </g>
   <g id="patch_38">
    <path d="M 150.322648 188.584531 
Q 199.56436 181.703143 246.591524 175.131232 
" clip-path="url(#p28b1405b5d)" style="fill: none; stroke: #000000; stroke-width: 2; stroke-linecap: round"/>
    <path d="M 238.114907 172.276945 
L 246.591524 175.131232 
L 239.222124 180.199954 
" clip-path="url(#p28b1405b5d)" style="fill: none; stroke: #000000; stroke-width: 2; stroke-linecap: round"/>
   </g>
   <g id="patch_39">
    <path d="M 149.958898 192.520931 
Q 266.314425 231.29296 380.548558 269.358098 
" clip-path="url(#p28b1405b5d)" style="fill: none; stroke: #000000; stroke-width: 2; stroke-linecap: round"/>
    <path d="M 374.22336 263.034186 
L 380.548558 269.358098 
L 371.69431 270.62391 
" clip-path="url(#p28b1405b5d)" style="fill: none; stroke: #000000; stroke-width: 2; stroke-linecap: round"/>
   </g>
   <g id="patch_40">
    <path d="M 148.261253 195.487411 
Q 279.308377 310.17454 408.67282 423.389056 
" clip-path="url(#p28b1405b5d)" style="fill: none; stroke: #000000; stroke-width: 2; stroke-linecap: round"/>
    <path d="M 405.286972 415.110407 
L 408.67282 423.389056 
L 400.018392 421.130544 
" clip-path="url(#p28b1405b5d)" style="fill: none; stroke: #000000; stroke-width: 2; stroke-linecap: round"/>
   </g>
   <g id="patch_41">
    <path d="M 142.940759 198.360978 
Q 152.467645 266.62054 161.685441 332.665499 
" clip-path="url(#p28b1405b5d)" style="fill: none; stroke: #000000; stroke-width: 2; stroke-linecap: round"/>
    <path d="M 164.541213 324.189382 
L 161.685441 332.665499 
L 156.61801 325.295211 
" clip-path="url(#p28b1405b5d)" style="fill: none; stroke: #000000; stroke-width: 2; stroke-linecap: round"/>
   </g>
   <g id="patch_42">
    <path d="M 149.941765 186.995141 
Q 268.879876 146.542952 385.701011 106.81077 
" clip-path="url(#p28b1405b5d)" style="fill: none; stroke: #000000; stroke-width: 2; stroke-linecap: round"/>
    <path d="M 376.839097 105.599784 
L 385.701011 106.81077 
L 379.415074 113.17371 
" clip-path="url(#p28b1405b5d)" style="fill: none; stroke: #000000; stroke-width: 2; stroke-linecap: round"/>
   </g>
   <g id="patch_43">
    <path d="M 248.907921 446.529541 
Q 253.010787 314.405089 257.044249 184.515629 
" clip-path="url(#p28b1405b5d)" style="fill: none; stroke: #000000; stroke-width: 2; stroke-linecap: round"/>
    <path d="M 252.797872 192.387622 
L 257.044249 184.515629 
L 260.794017 192.635927 
" clip-path="url(#p28b1405b5d)" style="fill: none; stroke: #000000; stroke-width: 2; stroke-linecap: round"/>
   </g>
   <g id="patch_44">
    <path d="M 253.963382 448.360029 
Q 319.762102 363.99557 384.185642 281.394312 
" clip-path="url(#p28b1405b5d)" style="fill: none; stroke: #000000; stroke-width: 2; stroke-linecap: round"/>
    <path d="M 376.111536 285.242534 
L 384.185642 281.394312 
L 382.419756 290.16253 
" clip-path="url(#p28b1405b5d)" style="fill: none; stroke: #000000; stroke-width: 2; stroke-linecap: round"/>
   </g>
   <g id="patch_45">
    <path d="M 257.210534 453.932263 
Q 332.757104 442.876682 406.091171 432.144882 
" clip-path="url(#p28b1405b5d)" style="fill: none; stroke: #000000; stroke-width: 2; stroke-linecap: round"/>
    <path d="M 397.596287 429.34543 
L 406.091171 432.144882 
L 398.754679 437.261119 
" clip-path="url(#p28b1405b5d)" style="fill: none; stroke: #000000; stroke-width: 2; stroke-linecap: round"/>
   </g>
   <g id="patch_46">
    <path d="M 243.379462 448.309225 
Q 205.914986 399.321384 169.808884 352.109726 
" clip-path="url(#p28b1405b5d)" style="fill: none; stroke: #000000; stroke-width: 2; stroke-linecap: round"/>
    <path d="M 171.491414 360.894321 
L 169.808884 352.109726 
L 177.846077 356.034459 
" clip-path="url(#p28b1405b5d)" style="fill: none; stroke: #000000; stroke-width: 2; stroke-linecap: round"/>
   </g>
   <g id="patch_47">
    <path d="M 251.984141 447.199757 
Q 322.326378 279.24599 391.804807 113.354705 
" clip-path="url(#p28b1405b5d)" style="fill: none; stroke: #000000; stroke-width: 2; stroke-linecap: round"/>
    <path d="M 385.024874 119.188444 
L 391.804807 113.354705 
L 392.403838 122.278895 
" clip-path="url(#p28b1405b5d)" style="fill: none; stroke: #000000; stroke-width: 2; stroke-linecap: round"/>
   </g>
   <g id="text_1">
    <g id="patch_48">
     <path d="M 500.716441 258.314933 
L 508.173743 256.677289 
Q 511.689956 255.905119 510.917786 252.388906 
L 508.426734 241.045457 
Q 507.654564 237.529244 504.138351 238.301413 
L 496.68105 239.939057 
Q 493.164837 240.711227 493.937006 244.22744 
L 496.428058 255.570889 
Q 497.200228 259.087102 500.716441 258.314933 
z
" clip-path="url(#p28b1405b5d)" style="fill: #ffffff; stroke: #ffffff; stroke-linejoin: miter"/>
    </g>
    <g clip-path="url(#p28b1405b5d)">
     <!-- 9 -->
     <g transform="translate(499.408981 252.361178)rotate(-12.385703)scale(0.12 -0.12)">
      <defs>
       <path id="DejaVuSans-39" d="M 703 97 
L 703 672 
Q 941 559 1184 500 
Q 1428 441 1663 441 
Q 2288 441 2617 861 
Q 2947 1281 2994 2138 
Q 2813 1869 2534 1725 
Q 2256 1581 1919 1581 
Q 1219 1581 811 2004 
Q 403 2428 403 3163 
Q 403 3881 828 4315 
Q 1253 4750 1959 4750 
Q 2769 4750 3195 4129 
Q 3622 3509 3622 2328 
Q 3622 1225 3098 567 
Q 2575 -91 1691 -91 
Q 1453 -91 1209 -44 
Q 966 3 703 97 
z
M 1959 2075 
Q 2384 2075 2632 2365 
Q 2881 2656 2881 3163 
Q 2881 3666 2632 3958 
Q 2384 4250 1959 4250 
Q 1534 4250 1286 3958 
Q 1038 3666 1038 3163 
Q 1038 2656 1286 2365 
Q 1534 2075 1959 2075 
z
" transform="scale(0.015625)"/>
      </defs>
      <use xlink:href="#DejaVuSans-39"/>
     </g>
    </g>
   </g>
   <g id="text_2">
    <g id="patch_49">
     <path d="M 519.596205 336.444018 
L 524.864327 330.917708 
Q 527.348314 328.311982 524.742588 325.827994 
L 516.336408 317.814549 
Q 513.730682 315.330562 511.246694 317.936288 
L 505.978572 323.462598 
Q 503.494585 326.068324 506.100311 328.552311 
L 514.506492 336.565757 
Q 517.112218 339.049744 519.596205 336.444018 
z
" clip-path="url(#p28b1405b5d)" style="fill: #ffffff; stroke: #ffffff; stroke-linejoin: miter"/>
    </g>
    <g clip-path="url(#p28b1405b5d)">
     <!-- 3 -->
     <g transform="translate(515.184113 332.238059)rotate(-46.370175)scale(0.12 -0.12)">
      <defs>
       <path id="DejaVuSans-33" d="M 2597 2516 
Q 3050 2419 3304 2112 
Q 3559 1806 3559 1356 
Q 3559 666 3084 287 
Q 2609 -91 1734 -91 
Q 1441 -91 1130 -33 
Q 819 25 488 141 
L 488 750 
Q 750 597 1062 519 
Q 1375 441 1716 441 
Q 2309 441 2620 675 
Q 2931 909 2931 1356 
Q 2931 1769 2642 2001 
Q 2353 2234 1838 2234 
L 1294 2234 
L 1294 2753 
L 1863 2753 
Q 2328 2753 2575 2939 
Q 2822 3125 2822 3475 
Q 2822 3834 2567 4026 
Q 2313 4219 1838 4219 
Q 1578 4219 1281 4162 
Q 984 4106 628 3988 
L 628 4550 
Q 988 4650 1302 4700 
Q 1616 4750 1894 4750 
Q 2613 4750 3031 4423 
Q 3450 4097 3450 3541 
Q 3450 3153 3228 2886 
Q 3006 2619 2597 2516 
z
" transform="scale(0.015625)"/>
      </defs>
      <use xlink:href="#DejaVuSans-33"/>
     </g>
    </g>
   </g>
   <g id="text_3">
    <g id="patch_50">
     <path d="M 497.098919 169.943312 
L 503.780579 173.63772 
Q 506.931066 175.379681 508.673027 172.229193 
L 514.292665 162.065588 
Q 516.034625 158.9151 512.884137 157.17314 
L 506.202478 153.478731 
Q 503.05199 151.736771 501.310029 154.887259 
L 495.690392 165.050864 
Q 493.948431 168.201351 497.098919 169.943312 
z
" clip-path="url(#p28b1405b5d)" style="fill: #ffffff; stroke: #ffffff; stroke-linejoin: miter"/>
    </g>
    <g clip-path="url(#p28b1405b5d)">
     <!-- 9 -->
     <g transform="translate(500.048458 164.608814)rotate(-331.061016)scale(0.12 -0.12)">
      <use xlink:href="#DejaVuSans-39"/>
     </g>
    </g>
   </g>
   <g id="text_4">
    <g id="patch_51">
     <path d="M 500.716441 258.314933 
L 508.173743 256.677289 
Q 511.689956 255.905119 510.917786 252.388906 
L 508.426734 241.045457 
Q 507.654564 237.529244 504.138351 238.301413 
L 496.68105 239.939057 
Q 493.164837 240.711227 493.937006 244.22744 
L 496.428058 255.570889 
Q 497.200228 259.087102 500.716441 258.314933 
z
" clip-path="url(#p28b1405b5d)" style="fill: #ffffff; stroke: #ffffff; stroke-linejoin: miter"/>
    </g>
    <g clip-path="url(#p28b1405b5d)">
     <!-- 6 -->
     <g transform="translate(499.408981 252.361178)rotate(-12.385703)scale(0.12 -0.12)">
      <defs>
       <path id="DejaVuSans-36" d="M 2113 2584 
Q 1688 2584 1439 2293 
Q 1191 2003 1191 1497 
Q 1191 994 1439 701 
Q 1688 409 2113 409 
Q 2538 409 2786 701 
Q 3034 994 3034 1497 
Q 3034 2003 2786 2293 
Q 2538 2584 2113 2584 
z
M 3366 4563 
L 3366 3988 
Q 3128 4100 2886 4159 
Q 2644 4219 2406 4219 
Q 1781 4219 1451 3797 
Q 1122 3375 1075 2522 
Q 1259 2794 1537 2939 
Q 1816 3084 2150 3084 
Q 2853 3084 3261 2657 
Q 3669 2231 3669 1497 
Q 3669 778 3244 343 
Q 2819 -91 2113 -91 
Q 1303 -91 875 529 
Q 447 1150 447 2328 
Q 447 3434 972 4092 
Q 1497 4750 2381 4750 
Q 2619 4750 2861 4703 
Q 3103 4656 3366 4563 
z
" transform="scale(0.015625)"/>
      </defs>
      <use xlink:href="#DejaVuSans-36"/>
     </g>
    </g>
   </g>
   <g id="text_5">
    <g id="patch_52">
     <path d="M 315.460288 228.487672 
L 321.58912 233.040763 
Q 324.478943 235.187604 326.625784 232.297781 
L 333.551581 222.975093 
Q 335.698422 220.08527 332.808599 217.938429 
L 326.679767 213.385338 
Q 323.789944 211.238497 321.643103 214.12832 
L 314.717306 223.451009 
Q 312.570465 226.340831 315.460288 228.487672 
z
" clip-path="url(#p28b1405b5d)" style="fill: #ffffff; stroke: #ffffff; stroke-linejoin: miter"/>
    </g>
    <g clip-path="url(#p28b1405b5d)">
     <!-- 9 -->
     <g transform="translate(319.095381 223.59454)rotate(-323.391453)scale(0.12 -0.12)">
      <use xlink:href="#DejaVuSans-39"/>
     </g>
    </g>
   </g>
   <g id="text_6">
    <g id="patch_53">
     <path d="M 393.978177 349.447088 
L 395.219149 356.980561 
Q 395.804283 360.532689 399.356412 359.947555 
L 410.815727 358.059887 
Q 414.367856 357.474753 413.782721 353.922625 
L 412.541749 346.389152 
Q 411.956615 342.837023 408.404486 343.422157 
L 396.945171 345.309825 
Q 393.393043 345.894959 393.978177 349.447088 
z
" clip-path="url(#p28b1405b5d)" style="fill: #ffffff; stroke: #ffffff; stroke-linejoin: miter"/>
    </g>
    <g clip-path="url(#p28b1405b5d)">
     <!-- 4 -->
     <g transform="translate(399.992745 348.456321)rotate(-279.354201)scale(0.12 -0.12)">
      <defs>
       <path id="DejaVuSans-34" d="M 2419 4116 
L 825 1625 
L 2419 1625 
L 2419 4116 
z
M 2253 4666 
L 3047 4666 
L 3047 1625 
L 3713 1625 
L 3713 1100 
L 3047 1100 
L 3047 0 
L 2419 0 
L 2419 1100 
L 313 1100 
L 313 1709 
L 2253 4666 
z
" transform="scale(0.015625)"/>
      </defs>
      <use xlink:href="#DejaVuSans-34"/>
     </g>
    </g>
   </g>
   <g id="text_7">
    <g id="patch_54">
     <path d="M 276.180844 318.24563 
L 283.472846 315.982904 
Q 286.911118 314.916 285.844214 311.477728 
L 282.402338 300.385718 
Q 281.335434 296.947446 277.897162 298.01435 
L 270.605159 300.277076 
Q 267.166887 301.34398 268.233791 304.782252 
L 271.675668 315.874261 
Q 272.742571 319.312533 276.180844 318.24563 
z
" clip-path="url(#p28b1405b5d)" style="fill: #ffffff; stroke: #ffffff; stroke-linejoin: miter"/>
    </g>
    <g clip-path="url(#p28b1405b5d)">
     <!-- 2 -->
     <g transform="translate(274.374331 312.423847)rotate(-17.239239)scale(0.12 -0.12)">
      <defs>
       <path id="DejaVuSans-32" d="M 1228 531 
L 3431 531 
L 3431 0 
L 469 0 
L 469 531 
Q 828 903 1448 1529 
Q 2069 2156 2228 2338 
Q 2531 2678 2651 2914 
Q 2772 3150 2772 3378 
Q 2772 3750 2511 3984 
Q 2250 4219 1831 4219 
Q 1534 4219 1204 4116 
Q 875 4013 500 3803 
L 500 4441 
Q 881 4594 1212 4672 
Q 1544 4750 1819 4750 
Q 2544 4750 2975 4387 
Q 3406 4025 3406 3419 
Q 3406 3131 3298 2873 
Q 3191 2616 2906 2266 
Q 2828 2175 2409 1742 
Q 1991 1309 1228 531 
z
" transform="scale(0.015625)"/>
      </defs>
      <use xlink:href="#DejaVuSans-32"/>
     </g>
    </g>
   </g>
   <g id="text_8">
    <g id="patch_55">
     <path d="M 259.719471 239.010769 
L 266.962913 241.424431 
Q 270.378289 242.562504 271.516362 239.147128 
L 275.187831 228.128984 
Q 276.325904 224.713608 272.910528 223.575536 
L 265.667086 221.161873 
Q 262.25171 220.023801 261.113638 223.439176 
L 257.442168 234.45732 
Q 256.304095 237.872696 259.719471 239.010769 
z
" clip-path="url(#p28b1405b5d)" style="fill: #ffffff; stroke: #ffffff; stroke-linejoin: miter"/>
    </g>
    <g clip-path="url(#p28b1405b5d)">
     <!-- 5 -->
     <g transform="translate(261.646489 233.227755)rotate(-341.570878)scale(0.12 -0.12)">
      <defs>
       <path id="DejaVuSans-35" d="M 691 4666 
L 3169 4666 
L 3169 4134 
L 1269 4134 
L 1269 2991 
Q 1406 3038 1543 3061 
Q 1681 3084 1819 3084 
Q 2600 3084 3056 2656 
Q 3513 2228 3513 1497 
Q 3513 744 3044 326 
Q 2575 -91 1722 -91 
Q 1428 -91 1123 -41 
Q 819 9 494 109 
L 494 744 
Q 775 591 1075 516 
Q 1375 441 1709 441 
Q 2250 441 2565 725 
Q 2881 1009 2881 1497 
Q 2881 1984 2565 2268 
Q 2250 2553 1709 2553 
Q 1456 2553 1204 2497 
Q 953 2441 691 2322 
L 691 4666 
z
" transform="scale(0.015625)"/>
      </defs>
      <use xlink:href="#DejaVuSans-35"/>
     </g>
    </g>
   </g>
   <g id="text_9">
    <g id="patch_56">
     <path d="M 402.737654 192.15316 
L 402.968547 184.521652 
Q 403.077416 180.923299 399.479063 180.81443 
L 387.870625 180.463213 
Q 384.272271 180.354344 384.163402 183.952698 
L 383.932509 191.584206 
Q 383.82364 195.182559 387.421993 195.291428 
L 399.030431 195.642645 
Q 402.628785 195.751514 402.737654 192.15316 
z
" clip-path="url(#p28b1405b5d)" style="fill: #ffffff; stroke: #ffffff; stroke-linejoin: miter"/>
    </g>
    <g clip-path="url(#p28b1405b5d)">
     <!-- 6 -->
     <g transform="translate(396.644817 191.96882)rotate(-88.26703)scale(0.12 -0.12)">
      <use xlink:href="#DejaVuSans-36"/>
     </g>
    </g>
   </g>
   <g id="text_10">
    <g id="patch_57">
     <path d="M 324.832563 372.790174 
L 329.528084 366.769767 
Q 331.742082 363.931068 328.903383 361.71707 
L 319.745622 354.574619 
Q 316.906923 352.360621 314.692925 355.19932 
L 309.997404 361.219727 
Q 307.783406 364.058426 310.622105 366.272425 
L 319.779866 373.414875 
Q 322.618565 375.628873 324.832563 372.790174 
z
" clip-path="url(#p28b1405b5d)" style="fill: #ffffff; stroke: #ffffff; stroke-linejoin: miter"/>
    </g>
    <g clip-path="url(#p28b1405b5d)">
     <!-- 8 -->
     <g transform="translate(320.025995 369.041368)rotate(-52.048116)scale(0.12 -0.12)">
      <defs>
       <path id="DejaVuSans-38" d="M 2034 2216 
Q 1584 2216 1326 1975 
Q 1069 1734 1069 1313 
Q 1069 891 1326 650 
Q 1584 409 2034 409 
Q 2484 409 2743 651 
Q 3003 894 3003 1313 
Q 3003 1734 2745 1975 
Q 2488 2216 2034 2216 
z
M 1403 2484 
Q 997 2584 770 2862 
Q 544 3141 544 3541 
Q 544 4100 942 4425 
Q 1341 4750 2034 4750 
Q 2731 4750 3128 4425 
Q 3525 4100 3525 3541 
Q 3525 3141 3298 2862 
Q 3072 2584 2669 2484 
Q 3125 2378 3379 2068 
Q 3634 1759 3634 1313 
Q 3634 634 3220 271 
Q 2806 -91 2034 -91 
Q 1263 -91 848 271 
Q 434 634 434 1313 
Q 434 1759 690 2068 
Q 947 2378 1403 2484 
z
M 1172 3481 
Q 1172 3119 1398 2916 
Q 1625 2713 2034 2713 
Q 2441 2713 2670 2916 
Q 2900 3119 2900 3481 
Q 2900 3844 2670 4047 
Q 2441 4250 2034 4250 
Q 1625 4250 1398 4047 
Q 1172 3844 1172 3481 
z
" transform="scale(0.015625)"/>
      </defs>
      <use xlink:href="#DejaVuSans-38"/>
     </g>
    </g>
   </g>
   <g id="text_11">
    <g id="patch_58">
     <path d="M 519.596205 336.444018 
L 524.864327 330.917708 
Q 527.348314 328.311982 524.742588 325.827994 
L 516.336408 317.814549 
Q 513.730682 315.330562 511.246694 317.936288 
L 505.978572 323.462598 
Q 503.494585 326.068324 506.100311 328.552311 
L 514.506492 336.565757 
Q 517.112218 339.049744 519.596205 336.444018 
z
" clip-path="url(#p28b1405b5d)" style="fill: #ffffff; stroke: #ffffff; stroke-linejoin: miter"/>
    </g>
    <g clip-path="url(#p28b1405b5d)">
     <!-- 5 -->
     <g transform="translate(515.184113 332.238059)rotate(-46.370175)scale(0.12 -0.12)">
      <use xlink:href="#DejaVuSans-35"/>
     </g>
    </g>
   </g>
   <g id="text_12">
    <g id="patch_59">
     <path d="M 327.122877 303.81264 
L 331.149471 310.299532 
Q 333.048061 313.358185 336.106714 311.459595 
L 345.974054 305.334663 
Q 349.032707 303.436073 347.134116 300.377421 
L 343.107523 293.890529 
Q 341.208933 290.831876 338.15028 292.730466 
L 328.28294 298.855398 
Q 325.224287 300.753988 327.122877 303.81264 
z
" clip-path="url(#p28b1405b5d)" style="fill: #ffffff; stroke: #ffffff; stroke-linejoin: miter"/>
    </g>
    <g clip-path="url(#p28b1405b5d)">
     <!-- 1 -->
     <g transform="translate(332.301877 300.597892)rotate(-301.829019)scale(0.12 -0.12)">
      <defs>
       <path id="DejaVuSans-31" d="M 794 531 
L 1825 531 
L 1825 4091 
L 703 3866 
L 703 4441 
L 1819 4666 
L 2450 4666 
L 2450 531 
L 3481 531 
L 3481 0 
L 794 0 
L 794 531 
z
" transform="scale(0.015625)"/>
      </defs>
      <use xlink:href="#DejaVuSans-31"/>
     </g>
    </g>
   </g>
   <g id="text_13">
    <g id="patch_60">
     <path d="M 393.978177 349.447088 
L 395.219149 356.980561 
Q 395.804283 360.532689 399.356412 359.947555 
L 410.815727 358.059887 
Q 414.367856 357.474753 413.782721 353.922625 
L 412.541749 346.389152 
Q 411.956615 342.837023 408.404486 343.422157 
L 396.945171 345.309825 
Q 393.393043 345.894959 393.978177 349.447088 
z
" clip-path="url(#p28b1405b5d)" style="fill: #ffffff; stroke: #ffffff; stroke-linejoin: miter"/>
    </g>
    <g clip-path="url(#p28b1405b5d)">
     <!-- 2 -->
     <g transform="translate(399.992745 348.456321)rotate(-279.354201)scale(0.12 -0.12)">
      <use xlink:href="#DejaVuSans-32"/>
     </g>
    </g>
   </g>
   <g id="text_14">
    <g id="patch_61">
     <path d="M 283.367443 394.669137 
L 290.588581 397.148734 
Q 293.993439 398.317896 295.162601 394.913038 
L 298.934365 383.928822 
Q 300.103527 380.523964 296.698668 379.354802 
L 289.477531 376.875205 
Q 286.072673 375.706044 284.903511 379.110902 
L 281.131747 390.095117 
Q 279.962585 393.499976 283.367443 394.669137 
z
" clip-path="url(#p28b1405b5d)" style="fill: #ffffff; stroke: #ffffff; stroke-linejoin: miter"/>
    </g>
    <g clip-path="url(#p28b1405b5d)">
     <!-- 2 -->
     <g transform="translate(285.347102 388.903932)rotate(-341.048533)scale(0.12 -0.12)">
      <use xlink:href="#DejaVuSans-32"/>
     </g>
    </g>
   </g>
   <g id="text_15">
    <g id="patch_62">
     <path d="M 270.241209 314.739867 
L 275.986678 319.768068 
Q 278.69574 322.138929 281.066601 319.429867 
L 288.715098 310.690321 
Q 291.085959 307.981259 288.376897 305.610397 
L 282.631428 300.582196 
Q 279.922366 298.211335 277.551505 300.920397 
L 269.903008 309.659943 
Q 267.532147 312.369005 270.241209 314.739867 
z
" clip-path="url(#p28b1405b5d)" style="fill: #ffffff; stroke: #ffffff; stroke-linejoin: miter"/>
    </g>
    <g clip-path="url(#p28b1405b5d)">
     <!-- 4 -->
     <g transform="translate(274.25562 310.152804)rotate(-318.808901)scale(0.12 -0.12)">
      <use xlink:href="#DejaVuSans-34"/>
     </g>
    </g>
   </g>
   <g id="text_16">
    <g id="patch_63">
     <path d="M 396.813922 263.723521 
L 397.299592 271.343059 
Q 397.528592 274.935768 401.121301 274.706768 
L 412.711531 273.968005 
Q 416.30424 273.739006 416.07524 270.146296 
L 415.58957 262.526759 
Q 415.36057 258.93405 411.767861 259.16305 
L 400.177631 259.901813 
Q 396.584922 260.130812 396.813922 263.723521 
z
" clip-path="url(#p28b1405b5d)" style="fill: #ffffff; stroke: #ffffff; stroke-linejoin: miter"/>
    </g>
    <g clip-path="url(#p28b1405b5d)">
     <!-- 7 -->
     <g transform="translate(402.897202 263.335772)rotate(-273.647107)scale(0.12 -0.12)">
      <defs>
       <path id="DejaVuSans-37" d="M 525 4666 
L 3525 4666 
L 3525 4397 
L 1831 0 
L 1172 0 
L 2766 4134 
L 525 4134 
L 525 4666 
z
" transform="scale(0.015625)"/>
      </defs>
      <use xlink:href="#DejaVuSans-37"/>
     </g>
    </g>
   </g>
   <g id="text_17">
    <g id="patch_64">
     <path d="M 330.341636 452.737234 
L 337.896171 451.631694 
Q 341.458231 451.110418 340.936955 447.548358 
L 339.255295 436.057004 
Q 338.734019 432.494944 335.171959 433.01622 
L 327.617424 434.12176 
Q 324.055364 434.643037 324.57664 438.205097 
L 326.258299 449.69645 
Q 326.779576 453.25851 330.341636 452.737234 
z
" clip-path="url(#p28b1405b5d)" style="fill: #ffffff; stroke: #ffffff; stroke-linejoin: miter"/>
    </g>
    <g clip-path="url(#p28b1405b5d)">
     <!-- 9 -->
     <g transform="translate(329.458995 446.70585)rotate(-8.325639)scale(0.12 -0.12)">
      <use xlink:href="#DejaVuSans-39"/>
     </g>
    </g>
   </g>
   <g id="text_18">
    <g id="patch_65">
     <path d="M 497.098919 169.943312 
L 503.780579 173.63772 
Q 506.931066 175.379681 508.673027 172.229193 
L 514.292665 162.065588 
Q 516.034625 158.9151 512.884137 157.17314 
L 506.202478 153.478731 
Q 503.05199 151.736771 501.310029 154.887259 
L 495.690392 165.050864 
Q 493.948431 168.201351 497.098919 169.943312 
z
" clip-path="url(#p28b1405b5d)" style="fill: #ffffff; stroke: #ffffff; stroke-linejoin: miter"/>
    </g>
    <g clip-path="url(#p28b1405b5d)">
     <!-- 5 -->
     <g transform="translate(500.048458 164.608814)rotate(-331.061016)scale(0.12 -0.12)">
      <use xlink:href="#DejaVuSans-35"/>
     </g>
    </g>
   </g>
   <g id="text_19">
    <g id="patch_66">
     <path d="M 327.549446 148.579359 
L 334.358556 145.125483 
Q 337.569138 143.496937 335.940591 140.286355 
L 330.686833 129.928884 
Q 329.058287 126.718302 325.847705 128.346848 
L 319.038595 131.800723 
Q 315.828013 133.42927 317.45656 136.639852 
L 322.710318 146.997323 
Q 324.338864 150.207905 327.549446 148.579359 
z
" clip-path="url(#p28b1405b5d)" style="fill: #ffffff; stroke: #ffffff; stroke-linejoin: miter"/>
    </g>
    <g clip-path="url(#p28b1405b5d)">
     <!-- 1 -->
     <g transform="translate(324.791944 143.143108)rotate(-26.896098)scale(0.12 -0.12)">
      <use xlink:href="#DejaVuSans-31"/>
     </g>
    </g>
   </g>
   <g id="text_20">
    <g id="patch_67">
     <path d="M 402.737654 192.15316 
L 402.968547 184.521652 
Q 403.077416 180.923299 399.479063 180.81443 
L 387.870625 180.463213 
Q 384.272271 180.354344 384.163402 183.952698 
L 383.932509 191.584206 
Q 383.82364 195.182559 387.421993 195.291428 
L 399.030431 195.642645 
Q 402.628785 195.751514 402.737654 192.15316 
z
" clip-path="url(#p28b1405b5d)" style="fill: #ffffff; stroke: #ffffff; stroke-linejoin: miter"/>
    </g>
    <g clip-path="url(#p28b1405b5d)">
     <!-- 8 -->
     <g transform="translate(396.644817 191.96882)rotate(-88.26703)scale(0.12 -0.12)">
      <use xlink:href="#DejaVuSans-38"/>
     </g>
    </g>
   </g>
   <g id="text_21">
    <g id="patch_68">
     <path d="M 396.813922 263.723521 
L 397.299592 271.343059 
Q 397.528592 274.935768 401.121301 274.706768 
L 412.711531 273.968005 
Q 416.30424 273.739006 416.07524 270.146296 
L 415.58957 262.526759 
Q 415.36057 258.93405 411.767861 259.16305 
L 400.177631 259.901813 
Q 396.584922 260.130812 396.813922 263.723521 
z
" clip-path="url(#p28b1405b5d)" style="fill: #ffffff; stroke: #ffffff; stroke-linejoin: miter"/>
    </g>
    <g clip-path="url(#p28b1405b5d)">
     <!-- 1 -->
     <g transform="translate(402.897202 263.335772)rotate(-273.647107)scale(0.12 -0.12)">
      <use xlink:href="#DejaVuSans-31"/>
     </g>
    </g>
   </g>
   <g id="text_22">
    <g id="patch_69">
     <path d="M 283.699867 232.668712 
L 289.014309 227.186931 
Q 291.520136 224.6022 288.935406 222.096373 
L 280.596959 214.01247 
Q 278.012229 211.506643 275.506402 214.091373 
L 270.19196 219.573155 
Q 267.686133 222.157885 270.270863 224.663712 
L 278.60931 232.747615 
Q 281.19404 235.253442 283.699867 232.668712 
z
" clip-path="url(#p28b1405b5d)" style="fill: #ffffff; stroke: #ffffff; stroke-linejoin: miter"/>
    </g>
    <g clip-path="url(#p28b1405b5d)">
     <!-- 5 -->
     <g transform="translate(279.323327 228.425773)rotate(-45.888004)scale(0.12 -0.12)">
      <use xlink:href="#DejaVuSans-35"/>
     </g>
    </g>
   </g>
   <g id="text_23">
    <g id="patch_70">
     <path d="M 268.293936 156.6783 
L 275.522301 154.219852 
Q 278.930567 153.060662 277.771377 149.652396 
L 274.031783 138.657187 
Q 272.872593 135.24892 269.464327 136.40811 
L 262.235962 138.866558 
Q 258.827696 140.025748 259.986886 143.434014 
L 263.72648 154.429223 
Q 264.88567 157.83749 268.293936 156.6783 
z
" clip-path="url(#p28b1405b5d)" style="fill: #ffffff; stroke: #ffffff; stroke-linejoin: miter"/>
    </g>
    <g clip-path="url(#p28b1405b5d)">
     <!-- 3 -->
     <g transform="translate(266.331162 150.907324)rotate(-18.783747)scale(0.12 -0.12)">
      <use xlink:href="#DejaVuSans-33"/>
     </g>
    </g>
   </g>
   <g id="text_24">
    <g id="patch_71">
     <path d="M 329.528776 286.399885 
L 332.478225 279.357586 
Q 333.868928 276.037052 330.548394 274.646349 
L 319.836213 270.159884 
Q 316.515679 268.769181 315.124976 272.089715 
L 312.175527 279.132014 
Q 310.784824 282.452548 314.105358 283.843251 
L 324.817539 288.329716 
Q 328.138073 289.720419 329.528776 286.399885 
z
" clip-path="url(#p28b1405b5d)" style="fill: #ffffff; stroke: #ffffff; stroke-linejoin: miter"/>
    </g>
    <g clip-path="url(#p28b1405b5d)">
     <!-- 5 -->
     <g transform="translate(323.906351 284.045106)rotate(-67.275136)scale(0.12 -0.12)">
      <use xlink:href="#DejaVuSans-35"/>
     </g>
    </g>
   </g>
   <g id="text_25">
    <g id="patch_72">
     <path d="M 315.460288 228.487672 
L 321.58912 233.040763 
Q 324.478943 235.187604 326.625784 232.297781 
L 333.551581 222.975093 
Q 335.698422 220.08527 332.808599 217.938429 
L 326.679767 213.385338 
Q 323.789944 211.238497 321.643103 214.12832 
L 314.717306 223.451009 
Q 312.570465 226.340831 315.460288 228.487672 
z
" clip-path="url(#p28b1405b5d)" style="fill: #ffffff; stroke: #ffffff; stroke-linejoin: miter"/>
    </g>
    <g clip-path="url(#p28b1405b5d)">
     <!-- 8 -->
     <g transform="translate(319.095381 223.59454)rotate(-323.391453)scale(0.12 -0.12)">
      <use xlink:href="#DejaVuSans-38"/>
     </g>
    </g>
   </g>
   <g id="text_26">
    <g id="patch_73">
     <path d="M 327.122877 303.81264 
L 331.149471 310.299532 
Q 333.048061 313.358185 336.106714 311.459595 
L 345.974054 305.334663 
Q 349.032707 303.436073 347.134116 300.377421 
L 343.107523 293.890529 
Q 341.208933 290.831876 338.15028 292.730466 
L 328.28294 298.855398 
Q 325.224287 300.753988 327.122877 303.81264 
z
" clip-path="url(#p28b1405b5d)" style="fill: #ffffff; stroke: #ffffff; stroke-linejoin: miter"/>
    </g>
    <g clip-path="url(#p28b1405b5d)">
     <!-- 5 -->
     <g transform="translate(332.301877 300.597892)rotate(-301.829019)scale(0.12 -0.12)">
      <use xlink:href="#DejaVuSans-35"/>
     </g>
    </g>
   </g>
   <g id="text_27">
    <g id="patch_74">
     <path d="M 216.661934 266.441016 
L 220.364972 259.764136 
Q 222.111001 256.615901 218.962767 254.869871 
L 208.806431 249.237107 
Q 205.658197 247.491077 203.912167 250.639312 
L 200.209129 257.316193 
Q 198.463099 260.464427 201.611334 262.210457 
L 211.76767 267.843221 
Q 214.915904 269.589251 216.661934 266.441016 
z
" clip-path="url(#p28b1405b5d)" style="fill: #ffffff; stroke: #ffffff; stroke-linejoin: miter"/>
    </g>
    <g clip-path="url(#p28b1405b5d)">
     <!-- 5 -->
     <g transform="translate(211.331251 263.484588)rotate(-60.986988)scale(0.12 -0.12)">
      <use xlink:href="#DejaVuSans-35"/>
     </g>
    </g>
   </g>
   <g id="text_28">
    <g id="patch_75">
     <path d="M 197.084219 191.548021 
L 204.64574 190.49132 
Q 208.211094 189.993072 207.712846 186.427718 
L 206.105478 174.925738 
Q 205.60723 171.360384 202.041876 171.858632 
L 194.480354 172.915333 
Q 190.915 173.413581 191.413248 176.978935 
L 193.020617 188.480915 
Q 193.518865 192.046269 197.084219 191.548021 
z
" clip-path="url(#p28b1405b5d)" style="fill: #ffffff; stroke: #ffffff; stroke-linejoin: miter"/>
    </g>
    <g clip-path="url(#p28b1405b5d)">
     <!-- 7 -->
     <g transform="translate(196.240571 185.51106)rotate(-7.9554)scale(0.12 -0.12)">
      <use xlink:href="#DejaVuSans-37"/>
     </g>
    </g>
   </g>
   <g id="text_29">
    <g id="patch_76">
     <path d="M 327.549446 148.579359 
L 334.358556 145.125483 
Q 337.569138 143.496937 335.940591 140.286355 
L 330.686833 129.928884 
Q 329.058287 126.718302 325.847705 128.346848 
L 319.038595 131.800723 
Q 315.828013 133.42927 317.45656 136.639852 
L 322.710318 146.997323 
Q 324.338864 150.207905 327.549446 148.579359 
z
" clip-path="url(#p28b1405b5d)" style="fill: #ffffff; stroke: #ffffff; stroke-linejoin: miter"/>
    </g>
    <g clip-path="url(#p28b1405b5d)">
     <!-- 6 -->
     <g transform="translate(324.791944 143.143108)rotate(-26.896098)scale(0.12 -0.12)">
      <use xlink:href="#DejaVuSans-36"/>
     </g>
    </g>
   </g>
   <g id="text_30">
    <g id="patch_77">
     <path d="M 262.294647 318.512554 
L 262.531622 310.881232 
Q 262.643359 307.282967 259.045094 307.171229 
L 247.436939 306.810761 
Q 243.838674 306.699024 243.726937 310.297289 
L 243.489961 317.928611 
Q 243.378224 321.526876 246.97649 321.638614 
L 258.584644 321.999082 
Q 262.18291 322.110819 262.294647 318.512554 
z
" clip-path="url(#p28b1405b5d)" style="fill: #ffffff; stroke: #ffffff; stroke-linejoin: miter"/>
    </g>
    <g clip-path="url(#p28b1405b5d)">
     <!-- 7 -->
     <g transform="translate(256.201958 318.323357)rotate(-88.221363)scale(0.12 -0.12)">
      <use xlink:href="#DejaVuSans-37"/>
     </g>
    </g>
   </g>
   <g id="text_31">
    <g id="patch_78">
     <path d="M 216.661934 266.441016 
L 220.364972 259.764136 
Q 222.111001 256.615901 218.962767 254.869871 
L 208.806431 249.237107 
Q 205.658197 247.491077 203.912167 250.639312 
L 200.209129 257.316193 
Q 198.463099 260.464427 201.611334 262.210457 
L 211.76767 267.843221 
Q 214.915904 269.589251 216.661934 266.441016 
z
" clip-path="url(#p28b1405b5d)" style="fill: #ffffff; stroke: #ffffff; stroke-linejoin: miter"/>
    </g>
    <g clip-path="url(#p28b1405b5d)">
     <!-- 3 -->
     <g transform="translate(211.331251 263.484588)rotate(-60.986988)scale(0.12 -0.12)">
      <use xlink:href="#DejaVuSans-33"/>
     </g>
    </g>
   </g>
   <g id="text_32">
    <g id="patch_79">
     <path d="M 276.180844 318.24563 
L 283.472846 315.982904 
Q 286.911118 314.916 285.844214 311.477728 
L 282.402338 300.385718 
Q 281.335434 296.947446 277.897162 298.01435 
L 270.605159 300.277076 
Q 267.166887 301.34398 268.233791 304.782252 
L 271.675668 315.874261 
Q 272.742571 319.312533 276.180844 318.24563 
z
" clip-path="url(#p28b1405b5d)" style="fill: #ffffff; stroke: #ffffff; stroke-linejoin: miter"/>
    </g>
    <g clip-path="url(#p28b1405b5d)">
     <!-- 6 -->
     <g transform="translate(274.374331 312.423847)rotate(-17.239239)scale(0.12 -0.12)">
      <use xlink:href="#DejaVuSans-36"/>
     </g>
    </g>
   </g>
   <g id="text_33">
    <g id="patch_80">
     <path d="M 283.367443 394.669137 
L 290.588581 397.148734 
Q 293.993439 398.317896 295.162601 394.913038 
L 298.934365 383.928822 
Q 300.103527 380.523964 296.698668 379.354802 
L 289.477531 376.875205 
Q 286.072673 375.706044 284.903511 379.110902 
L 281.131747 390.095117 
Q 279.962585 393.499976 283.367443 394.669137 
z
" clip-path="url(#p28b1405b5d)" style="fill: #ffffff; stroke: #ffffff; stroke-linejoin: miter"/>
    </g>
    <g clip-path="url(#p28b1405b5d)">
     <!-- 8 -->
     <g transform="translate(285.347102 388.903932)rotate(-341.048533)scale(0.12 -0.12)">
      <use xlink:href="#DejaVuSans-38"/>
     </g>
    </g>
   </g>
   <g id="text_34">
    <g id="patch_81">
     <path d="M 142.623346 264.139712 
L 143.678722 271.701419 
Q 144.176346 275.26686 147.741787 274.769237 
L 159.244049 273.163883 
Q 162.80949 272.66626 162.311867 269.100819 
L 161.25649 261.539112 
Q 160.758867 257.973671 157.193426 258.471294 
L 145.691164 260.076648 
Q 142.125723 260.574271 142.623346 264.139712 
z
" clip-path="url(#p28b1405b5d)" style="fill: #ffffff; stroke: #ffffff; stroke-linejoin: miter"/>
    </g>
    <g clip-path="url(#p28b1405b5d)">
     <!-- 6 -->
     <g transform="translate(148.660455 263.297122)rotate(-277.945362)scale(0.12 -0.12)">
      <use xlink:href="#DejaVuSans-36"/>
     </g>
    </g>
   </g>
   <g id="text_35">
    <g id="patch_82">
     <path d="M 283.699867 232.668712 
L 289.014309 227.186931 
Q 291.520136 224.6022 288.935406 222.096373 
L 280.596959 214.01247 
Q 278.012229 211.506643 275.506402 214.091373 
L 270.19196 219.573155 
Q 267.686133 222.157885 270.270863 224.663712 
L 278.60931 232.747615 
Q 281.19404 235.253442 283.699867 232.668712 
z
" clip-path="url(#p28b1405b5d)" style="fill: #ffffff; stroke: #ffffff; stroke-linejoin: miter"/>
    </g>
    <g clip-path="url(#p28b1405b5d)">
     <!-- 6 -->
     <g transform="translate(279.323327 228.425773)rotate(-45.888004)scale(0.12 -0.12)">
      <use xlink:href="#DejaVuSans-36"/>
     </g>
    </g>
   </g>
   <g id="text_36">
    <g id="patch_83">
     <path d="M 196.124095 402.004009 
L 200.762226 408.06874 
Q 202.949163 410.928339 205.808762 408.741401 
L 215.033946 401.686249 
Q 217.893544 399.499311 215.706606 396.639713 
L 211.068476 390.574981 
Q 208.881538 387.715383 206.02194 389.90232 
L 196.796756 396.957473 
Q 193.937157 399.14441 196.124095 402.004009 
z
" clip-path="url(#p28b1405b5d)" style="fill: #ffffff; stroke: #ffffff; stroke-linejoin: miter"/>
    </g>
    <g clip-path="url(#p28b1405b5d)">
     <!-- 5 -->
     <g transform="translate(200.966051 398.301022)rotate(-307.407708)scale(0.12 -0.12)">
      <use xlink:href="#DejaVuSans-35"/>
     </g>
    </g>
   </g>
   <g id="text_37">
    <g id="patch_84">
     <path d="M 197.084219 191.548021 
L 204.64574 190.49132 
Q 208.211094 189.993072 207.712846 186.427718 
L 206.105478 174.925738 
Q 205.60723 171.360384 202.041876 171.858632 
L 194.480354 172.915333 
Q 190.915 173.413581 191.413248 176.978935 
L 193.020617 188.480915 
Q 193.518865 192.046269 197.084219 191.548021 
z
" clip-path="url(#p28b1405b5d)" style="fill: #ffffff; stroke: #ffffff; stroke-linejoin: miter"/>
    </g>
    <g clip-path="url(#p28b1405b5d)">
     <!-- 6 -->
     <g transform="translate(196.240571 185.51106)rotate(-7.9554)scale(0.12 -0.12)">
      <use xlink:href="#DejaVuSans-36"/>
     </g>
    </g>
   </g>
   <g id="text_38">
    <g id="patch_85">
     <path d="M 259.719471 239.010769 
L 266.962913 241.424431 
Q 270.378289 242.562504 271.516362 239.147128 
L 275.187831 228.128984 
Q 276.325904 224.713608 272.910528 223.575536 
L 265.667086 221.161873 
Q 262.25171 220.023801 261.113638 223.439176 
L 257.442168 234.45732 
Q 256.304095 237.872696 259.719471 239.010769 
z
" clip-path="url(#p28b1405b5d)" style="fill: #ffffff; stroke: #ffffff; stroke-linejoin: miter"/>
    </g>
    <g clip-path="url(#p28b1405b5d)">
     <!-- 3 -->
     <g transform="translate(261.646489 233.227755)rotate(-341.570878)scale(0.12 -0.12)">
      <use xlink:href="#DejaVuSans-33"/>
     </g>
    </g>
   </g>
   <g id="text_39">
    <g id="patch_86">
     <path d="M 270.241209 314.739867 
L 275.986678 319.768068 
Q 278.69574 322.138929 281.066601 319.429867 
L 288.715098 310.690321 
Q 291.085959 307.981259 288.376897 305.610397 
L 282.631428 300.582196 
Q 279.922366 298.211335 277.551505 300.920397 
L 269.903008 309.659943 
Q 267.532147 312.369005 270.241209 314.739867 
z
" clip-path="url(#p28b1405b5d)" style="fill: #ffffff; stroke: #ffffff; stroke-linejoin: miter"/>
    </g>
    <g clip-path="url(#p28b1405b5d)">
     <!-- 9 -->
     <g transform="translate(274.25562 310.152804)rotate(-318.808901)scale(0.12 -0.12)">
      <use xlink:href="#DejaVuSans-39"/>
     </g>
    </g>
   </g>
   <g id="text_40">
    <g id="patch_87">
     <path d="M 142.623346 264.139712 
L 143.678722 271.701419 
Q 144.176346 275.26686 147.741787 274.769237 
L 159.244049 273.163883 
Q 162.80949 272.66626 162.311867 269.100819 
L 161.25649 261.539112 
Q 160.758867 257.973671 157.193426 258.471294 
L 145.691164 260.076648 
Q 142.125723 260.574271 142.623346 264.139712 
z
" clip-path="url(#p28b1405b5d)" style="fill: #ffffff; stroke: #ffffff; stroke-linejoin: miter"/>
    </g>
    <g clip-path="url(#p28b1405b5d)">
     <!-- 9 -->
     <g transform="translate(148.660455 263.297122)rotate(-277.945362)scale(0.12 -0.12)">
      <use xlink:href="#DejaVuSans-39"/>
     </g>
    </g>
   </g>
   <g id="text_41">
    <g id="patch_88">
     <path d="M 268.293936 156.6783 
L 275.522301 154.219852 
Q 278.930567 153.060662 277.771377 149.652396 
L 274.031783 138.657187 
Q 272.872593 135.24892 269.464327 136.40811 
L 262.235962 138.866558 
Q 258.827696 140.025748 259.986886 143.434014 
L 263.72648 154.429223 
Q 264.88567 157.83749 268.293936 156.6783 
z
" clip-path="url(#p28b1405b5d)" style="fill: #ffffff; stroke: #ffffff; stroke-linejoin: miter"/>
    </g>
    <g clip-path="url(#p28b1405b5d)">
     <!-- 4 -->
     <g transform="translate(266.331162 150.907324)rotate(-18.783747)scale(0.12 -0.12)">
      <use xlink:href="#DejaVuSans-34"/>
     </g>
    </g>
   </g>
   <g id="text_42">
    <g id="patch_89">
     <path d="M 262.294647 318.512554 
L 262.531622 310.881232 
Q 262.643359 307.282967 259.045094 307.171229 
L 247.436939 306.810761 
Q 243.838674 306.699024 243.726937 310.297289 
L 243.489961 317.928611 
Q 243.378224 321.526876 246.97649 321.638614 
L 258.584644 321.999082 
Q 262.18291 322.110819 262.294647 318.512554 
z
" clip-path="url(#p28b1405b5d)" style="fill: #ffffff; stroke: #ffffff; stroke-linejoin: miter"/>
    </g>
    <g clip-path="url(#p28b1405b5d)">
     <!-- 3 -->
     <g transform="translate(256.201958 318.323357)rotate(-88.221363)scale(0.12 -0.12)">
      <use xlink:href="#DejaVuSans-33"/>
     </g>
    </g>
   </g>
   <g id="text_43">
    <g id="patch_90">
     <path d="M 324.832563 372.790174 
L 329.528084 366.769767 
Q 331.742082 363.931068 328.903383 361.71707 
L 319.745622 354.574619 
Q 316.906923 352.360621 314.692925 355.19932 
L 309.997404 361.219727 
Q 307.783406 364.058426 310.622105 366.272425 
L 319.779866 373.414875 
Q 322.618565 375.628873 324.832563 372.790174 
z
" clip-path="url(#p28b1405b5d)" style="fill: #ffffff; stroke: #ffffff; stroke-linejoin: miter"/>
    </g>
    <g clip-path="url(#p28b1405b5d)">
     <!-- 9 -->
     <g transform="translate(320.025995 369.041368)rotate(-52.048116)scale(0.12 -0.12)">
      <use xlink:href="#DejaVuSans-39"/>
     </g>
    </g>
   </g>
   <g id="text_44">
    <g id="patch_91">
     <path d="M 330.341636 452.737234 
L 337.896171 451.631694 
Q 341.458231 451.110418 340.936955 447.548358 
L 339.255295 436.057004 
Q 338.734019 432.494944 335.171959 433.01622 
L 327.617424 434.12176 
Q 324.055364 434.643037 324.57664 438.205097 
L 326.258299 449.69645 
Q 326.779576 453.25851 330.341636 452.737234 
z
" clip-path="url(#p28b1405b5d)" style="fill: #ffffff; stroke: #ffffff; stroke-linejoin: miter"/>
    </g>
    <g clip-path="url(#p28b1405b5d)">
     <!-- 8 -->
     <g transform="translate(329.458995 446.70585)rotate(-8.325639)scale(0.12 -0.12)">
      <use xlink:href="#DejaVuSans-38"/>
     </g>
    </g>
   </g>
   <g id="text_45">
    <g id="patch_92">
     <path d="M 196.124095 402.004009 
L 200.762226 408.06874 
Q 202.949163 410.928339 205.808762 408.741401 
L 215.033946 401.686249 
Q 217.893544 399.499311 215.706606 396.639713 
L 211.068476 390.574981 
Q 208.881538 387.715383 206.02194 389.90232 
L 196.796756 396.957473 
Q 193.937157 399.14441 196.124095 402.004009 
z
" clip-path="url(#p28b1405b5d)" style="fill: #ffffff; stroke: #ffffff; stroke-linejoin: miter"/>
    </g>
    <g clip-path="url(#p28b1405b5d)">
     <!-- 3 -->
     <g transform="translate(200.966051 398.301022)rotate(-307.407708)scale(0.12 -0.12)">
      <use xlink:href="#DejaVuSans-33"/>
     </g>
    </g>
   </g>
   <g id="text_46">
    <g id="patch_93">
     <path d="M 329.528776 286.399885 
L 332.478225 279.357586 
Q 333.868928 276.037052 330.548394 274.646349 
L 319.836213 270.159884 
Q 316.515679 268.769181 315.124976 272.089715 
L 312.175527 279.132014 
Q 310.784824 282.452548 314.105358 283.843251 
L 324.817539 288.329716 
Q 328.138073 289.720419 329.528776 286.399885 
z
" clip-path="url(#p28b1405b5d)" style="fill: #ffffff; stroke: #ffffff; stroke-linejoin: miter"/>
    </g>
    <g clip-path="url(#p28b1405b5d)">
     <!-- 7 -->
     <g transform="translate(323.906351 284.045106)rotate(-67.275136)scale(0.12 -0.12)">
      <use xlink:href="#DejaVuSans-37"/>
     </g>
    </g>
   </g>
   <g id="PathCollection_1">
    <defs>
     <path id="C0_0_3b4522c5cc" d="M 0 14.142136 
C 3.750538 14.142136 7.347969 12.652031 10 10 
C 12.652031 7.347969 14.142136 3.750538 14.142136 -0 
C 14.142136 -3.750538 12.652031 -7.347969 10 -10 
C 7.347969 -12.652031 3.750538 -14.142136 0 -14.142136 
C -3.750538 -14.142136 -7.347969 -12.652031 -10 -10 
C -12.652031 -7.347969 -14.142136 -3.750538 -14.142136 0 
C -14.142136 3.750538 -12.652031 7.347969 -10 10 
C -7.347969 12.652031 -3.750538 14.142136 0 14.142136 
z
"/>
    </defs>
    <g clip-path="url(#p28b1405b5d)">
     <use xlink:href="#C0_0_3b4522c5cc" x="613.968397" y="223.81347" style="fill: #ee82ee; stroke: #ee82ee"/>
    </g>
    <g clip-path="url(#p28b1405b5d)">
     <use xlink:href="#C0_0_3b4522c5cc" x="390.886396" y="272.802876" style="fill: #ee82ee; stroke: #ee82ee"/>
    </g>
    <g clip-path="url(#p28b1405b5d)">
     <use xlink:href="#C0_0_3b4522c5cc" x="416.874502" y="430.566836" style="fill: #00bfff; stroke: #00bfff"/>
    </g>
    <g clip-path="url(#p28b1405b5d)">
     <use xlink:href="#C0_0_3b4522c5cc" x="396.01466" y="103.302982" style="fill: #00ff00; stroke: #00ff00"/>
    </g>
    <g clip-path="url(#p28b1405b5d)">
     <use xlink:href="#C0_0_3b4522c5cc" x="257.382491" y="173.623225" style="fill: #00ff00; stroke: #00ff00"/>
    </g>
    <g clip-path="url(#p28b1405b5d)">
     <use xlink:href="#C0_0_3b4522c5cc" x="163.191609" y="343.457103" style="fill: #00bfff; stroke: #00bfff"/>
    </g>
    <g clip-path="url(#p28b1405b5d)">
     <use xlink:href="#C0_0_3b4522c5cc" x="141.743603" y="189.783428" style="fill: #ee82ee; stroke: #ee82ee"/>
    </g>
    <g clip-path="url(#p28b1405b5d)">
     <use xlink:href="#C0_0_3b4522c5cc" x="248.639092" y="455.186618" style="fill: #ee82ee; stroke: #ee82ee"/>
    </g>
   </g>
   <g id="text_47">
    <g clip-path="url(#p28b1405b5d)">
     <!-- 0 -->
     <g transform="translate(607.605897 229.33222)scale(0.2 -0.2)">
      <defs>
       <path id="DejaVuSans-30" d="M 2034 4250 
Q 1547 4250 1301 3770 
Q 1056 3291 1056 2328 
Q 1056 1369 1301 889 
Q 1547 409 2034 409 
Q 2525 409 2770 889 
Q 3016 1369 3016 2328 
Q 3016 3291 2770 3770 
Q 2525 4250 2034 4250 
z
M 2034 4750 
Q 2819 4750 3233 4129 
Q 3647 3509 3647 2328 
Q 3647 1150 3233 529 
Q 2819 -91 2034 -91 
Q 1250 -91 836 529 
Q 422 1150 422 2328 
Q 422 3509 836 4129 
Q 1250 4750 2034 4750 
z
" transform="scale(0.015625)"/>
      </defs>
      <use xlink:href="#DejaVuSans-30"/>
     </g>
    </g>
   </g>
   <g id="text_48">
    <g clip-path="url(#p28b1405b5d)">
     <!-- 2 -->
     <g transform="translate(384.523896 278.321626)scale(0.2 -0.2)">
      <use xlink:href="#DejaVuSans-32"/>
     </g>
    </g>
   </g>
   <g id="text_49">
    <g clip-path="url(#p28b1405b5d)">
     <!-- 3 -->
     <g transform="translate(410.512002 436.085586)scale(0.2 -0.2)">
      <use xlink:href="#DejaVuSans-33"/>
     </g>
    </g>
   </g>
   <g id="text_50">
    <g clip-path="url(#p28b1405b5d)">
     <!-- 6 -->
     <g transform="translate(389.65216 108.821732)scale(0.2 -0.2)">
      <use xlink:href="#DejaVuSans-36"/>
     </g>
    </g>
   </g>
   <g id="text_51">
    <g clip-path="url(#p28b1405b5d)">
     <!-- 1 -->
     <g transform="translate(251.019991 179.141975)scale(0.2 -0.2)">
      <use xlink:href="#DejaVuSans-31"/>
     </g>
    </g>
   </g>
   <g id="text_52">
    <g clip-path="url(#p28b1405b5d)">
     <!-- 4 -->
     <g transform="translate(156.829109 348.975853)scale(0.2 -0.2)">
      <use xlink:href="#DejaVuSans-34"/>
     </g>
    </g>
   </g>
   <g id="text_53">
    <g clip-path="url(#p28b1405b5d)">
     <!-- 5 -->
     <g transform="translate(135.381103 195.302178)scale(0.2 -0.2)">
      <use xlink:href="#DejaVuSans-35"/>
     </g>
    </g>
   </g>
   <g id="text_54">
    <g clip-path="url(#p28b1405b5d)">
     <!-- 7 -->
     <g transform="translate(242.276592 460.705368)scale(0.2 -0.2)">
      <use xlink:href="#DejaVuSans-37"/>
     </g>
    </g>
   </g>
  </g>
 </g>
 <defs>
  <clipPath id="p28b1405b5d">
   <rect x="92.16" y="66.3552" width="571.392" height="425.7792"/>
  </clipPath>
 </defs>
</svg>
