<?xml version="1.0" encoding="utf-8" standalone="no"?>
<!DOCTYPE svg PUBLIC "-//W3C//DTD SVG 1.1//EN"
  "http://www.w3.org/Graphics/SVG/1.1/DTD/svg11.dtd">
<svg xmlns:xlink="http://www.w3.org/1999/xlink" width="737.28pt" height="552.96pt" viewBox="0 0 737.28 552.96" xmlns="http://www.w3.org/2000/svg" version="1.1">
 <metadata>
  <rdf:RDF xmlns:dc="http://purl.org/dc/elements/1.1/" xmlns:cc="http://creativecommons.org/ns#" xmlns:rdf="http://www.w3.org/1999/02/22-rdf-syntax-ns#">
   <cc:Work>
    <dc:type rdf:resource="http://purl.org/dc/dcmitype/StillImage"/>
    <dc:date>2022-03-03T23:37:29.116809</dc:date>
    <dc:format>image/svg+xml</dc:format>
    <dc:creator>
     <cc:Agent>
      <dc:title>Matplotlib v3.5.1, https://matplotlib.org/</dc:title>
     </cc:Agent>
    </dc:creator>
   </cc:Work>
  </rdf:RDF>
 </metadata>
 <defs>
  <style type="text/css">*{stroke-linejoin: round; stroke-linecap: butt}</style>
 </defs>
 <g id="figure_1">
  <g id="patch_1">
   <path d="M 0 552.96 
L 737.28 552.96 
L 737.28 0 
L 0 0 
z
" style="fill: #ffffff"/>
  </g>
  <g id="axes_1">
   <g id="patch_2">
    <path d="M 144.96395 111.343166 
Q 180.640072 200.415114 215.484788 287.411306 
" clip-path="url(#paab8c69d13)" style="fill: none; stroke: #000000; stroke-width: 2; stroke-linecap: round"/>
    <path d="M 216.223486 278.49759 
L 215.484788 287.411306 
L 208.797034 281.472118 
" clip-path="url(#paab8c69d13)" style="fill: none; stroke: #000000; stroke-width: 2; stroke-linecap: round"/>
   </g>
   <g id="patch_3">
    <path d="M 150.263166 104.876688 
Q 372.559745 145.938589 592.657455 186.594323 
" clip-path="url(#paab8c69d13)" style="fill: none; stroke: #000000; stroke-width: 2; stroke-linecap: round"/>
    <path d="M 585.517115 181.207715 
L 592.657455 186.594323 
L 584.063964 189.07463 
" clip-path="url(#paab8c69d13)" style="fill: none; stroke: #000000; stroke-width: 2; stroke-linecap: round"/>
   </g>
   <g id="patch_4">
    <path d="M 148.912818 108.161277 
Q 243.8383 172.48854 336.912706 235.561403 
" clip-path="url(#paab8c69d13)" style="fill: none; stroke: #000000; stroke-width: 2; stroke-linecap: round"/>
    <path d="M 332.534039 227.762219 
L 336.912706 235.561403 
L 328.046158 234.384826 
" clip-path="url(#paab8c69d13)" style="fill: none; stroke: #000000; stroke-width: 2; stroke-linecap: round"/>
   </g>
   <g id="patch_5">
    <path d="M 216.314873 289.483765 
Q 180.638751 200.411817 145.794036 113.415625 
" clip-path="url(#paab8c69d13)" style="fill: none; stroke: #000000; stroke-width: 2; stroke-linecap: round"/>
    <path d="M 145.055338 122.329341 
L 145.794036 113.415625 
L 152.481789 119.354813 
" clip-path="url(#paab8c69d13)" style="fill: none; stroke: #000000; stroke-width: 2; stroke-linecap: round"/>
   </g>
   <g id="patch_6">
    <path d="M 227.31287 301.339295 
Q 304.011174 338.963836 378.701949 375.603579 
" clip-path="url(#paab8c69d13)" style="fill: none; stroke: #000000; stroke-width: 2; stroke-linecap: round"/>
    <path d="M 373.281255 368.489081 
L 378.701949 375.603579 
L 369.757934 375.671435 
" clip-path="url(#paab8c69d13)" style="fill: none; stroke: #000000; stroke-width: 2; stroke-linecap: round"/>
   </g>
   <g id="patch_7">
    <path d="M 227.866611 295.159106 
Q 411.451733 243.048956 592.885764 191.549388 
" clip-path="url(#paab8c69d13)" style="fill: none; stroke: #000000; stroke-width: 2; stroke-linecap: round"/>
    <path d="M 584.097547 189.885882 
L 592.885764 191.549388 
L 586.282029 197.581858 
" clip-path="url(#paab8c69d13)" style="fill: none; stroke: #000000; stroke-width: 2; stroke-linecap: round"/>
   </g>
   <g id="patch_8">
    <path d="M 228.174881 298.138771 
Q 416.752242 311.558456 603.099175 324.819417 
" clip-path="url(#paab8c69d13)" style="fill: none; stroke: #000000; stroke-width: 2; stroke-linecap: round"/>
    <path d="M 595.403288 320.261641 
L 603.099175 324.819417 
L 594.835422 328.241461 
" clip-path="url(#paab8c69d13)" style="fill: none; stroke: #000000; stroke-width: 2; stroke-linecap: round"/>
   </g>
   <g id="patch_9">
    <path d="M 227.447928 301.049563 
Q 396.461615 376.355896 563.432805 450.752167 
" clip-path="url(#paab8c69d13)" style="fill: none; stroke: #000000; stroke-width: 2; stroke-linecap: round"/>
    <path d="M 557.753319 443.842505 
L 563.432805 450.752167 
L 554.497384 451.149959 
" clip-path="url(#paab8c69d13)" style="fill: none; stroke: #000000; stroke-width: 2; stroke-linecap: round"/>
   </g>
   <g id="patch_10">
    <path d="M 227.454419 294.024846 
Q 282.733111 269.59992 335.966494 246.078716 
" clip-path="url(#paab8c69d13)" style="fill: none; stroke: #000000; stroke-width: 2; stroke-linecap: round"/>
    <path d="M 327.03235 245.653207 
L 335.966494 246.078716 
L 330.2656 252.970726 
" clip-path="url(#paab8c69d13)" style="fill: none; stroke: #000000; stroke-width: 2; stroke-linecap: round"/>
   </g>
   <g id="patch_11">
    <path d="M 226.204657 291.998782 
Q 324.053184 210.938051 420.179771 131.303827 
" clip-path="url(#paab8c69d13)" style="fill: none; stroke: #000000; stroke-width: 2; stroke-linecap: round"/>
    <path d="M 411.467358 133.327157 
L 420.179771 131.303827 
L 416.570987 139.487755 
" clip-path="url(#paab8c69d13)" style="fill: none; stroke: #000000; stroke-width: 2; stroke-linecap: round"/>
   </g>
   <g id="patch_12">
    <path d="M 594.851197 186.999544 
Q 372.554617 145.937642 152.456908 105.281909 
" clip-path="url(#paab8c69d13)" style="fill: none; stroke: #000000; stroke-width: 2; stroke-linecap: round"/>
    <path d="M 159.597247 110.668517 
L 152.456908 105.281909 
L 161.050398 102.801602 
" clip-path="url(#paab8c69d13)" style="fill: none; stroke: #000000; stroke-width: 2; stroke-linecap: round"/>
   </g>
   <g id="patch_13">
    <path d="M 596.908 194.342508 
Q 495.925211 284.48911 396.610525 373.146609 
" clip-path="url(#paab8c69d13)" style="fill: none; stroke: #000000; stroke-width: 2; stroke-linecap: round"/>
    <path d="M 405.242304 370.803023 
L 396.610525 373.146609 
L 399.914723 364.835034 
" clip-path="url(#paab8c69d13)" style="fill: none; stroke: #000000; stroke-width: 2; stroke-linecap: round"/>
   </g>
   <g id="patch_14">
    <path d="M 595.039368 190.938093 
Q 411.454246 243.048243 230.020215 294.547811 
" clip-path="url(#paab8c69d13)" style="fill: none; stroke: #ff0000; stroke-width: 2; stroke-linecap: round"/>
    <path d="M 238.808432 296.211317 
L 230.020215 294.547811 
L 236.62395 288.515341 
" clip-path="url(#paab8c69d13)" style="fill: none; stroke: #ff0000; stroke-width: 2; stroke-linecap: round"/>
   </g>
   <g id="patch_15">
    <path d="M 604.038609 197.208064 
Q 608.669712 257.084811 613.128384 314.732149 
" clip-path="url(#paab8c69d13)" style="fill: none; stroke: #000000; stroke-width: 2; stroke-linecap: round"/>
    <path d="M 616.499564 306.447516 
L 613.128384 314.732149 
L 608.523385 307.064425 
" clip-path="url(#paab8c69d13)" style="fill: none; stroke: #000000; stroke-width: 2; stroke-linecap: round"/>
   </g>
   <g id="patch_16">
    <path d="M 602.403057 197.177487 
Q 588.377892 321.880982 574.602637 444.362418 
" clip-path="url(#paab8c69d13)" style="fill: none; stroke: #000000; stroke-width: 2; stroke-linecap: round"/>
    <path d="M 579.471685 436.859593 
L 574.602637 444.362418 
L 571.521806 435.965485 
" clip-path="url(#paab8c69d13)" style="fill: none; stroke: #000000; stroke-width: 2; stroke-linecap: round"/>
   </g>
   <g id="patch_17">
    <path d="M 594.889827 190.322608 
Q 474.653143 215.123773 356.606423 239.473216 
" clip-path="url(#paab8c69d13)" style="fill: none; stroke: #000000; stroke-width: 2; stroke-linecap: round"/>
    <path d="M 365.249547 241.77461 
L 356.606423 239.473216 
L 363.633413 233.939554 
" clip-path="url(#paab8c69d13)" style="fill: none; stroke: #000000; stroke-width: 2; stroke-linecap: round"/>
   </g>
   <g id="patch_18">
    <path d="M 595.243577 185.587493 
Q 515.971355 156.464537 438.798041 128.112676 
" clip-path="url(#paab8c69d13)" style="fill: none; stroke: #000000; stroke-width: 2; stroke-linecap: round"/>
    <path d="M 444.927945 134.626069 
L 438.798041 128.112676 
L 447.686697 127.116789 
" clip-path="url(#paab8c69d13)" style="fill: none; stroke: #000000; stroke-width: 2; stroke-linecap: round"/>
   </g>
   <g id="patch_19">
    <path d="M 338.764596 236.816356 
Q 243.839114 172.489092 150.764708 109.41623 
" clip-path="url(#paab8c69d13)" style="fill: none; stroke: #000000; stroke-width: 2; stroke-linecap: round"/>
    <path d="M 155.143375 117.215414 
L 150.764708 109.41623 
L 159.631256 110.592806 
" clip-path="url(#paab8c69d13)" style="fill: none; stroke: #000000; stroke-width: 2; stroke-linecap: round"/>
   </g>
   <g id="patch_20">
    <path d="M 348.472387 249.951371 
Q 367.208535 311.038304 385.289 369.987463 
" clip-path="url(#paab8c69d13)" style="fill: none; stroke: #000000; stroke-width: 2; stroke-linecap: round"/>
    <path d="M 386.767325 361.166208 
L 385.289 369.987463 
L 379.11899 363.51205 
" clip-path="url(#paab8c69d13)" style="fill: none; stroke: #000000; stroke-width: 2; stroke-linecap: round"/>
   </g>
   <g id="patch_21">
    <path d="M 338.014612 245.173754 
Q 282.73592 269.598679 229.502537 293.119884 
" clip-path="url(#paab8c69d13)" style="fill: none; stroke: #000000; stroke-width: 2; stroke-linecap: round"/>
    <path d="M 238.436681 293.545393 
L 229.502537 293.119884 
L 235.203431 286.227874 
" clip-path="url(#paab8c69d13)" style="fill: none; stroke: #000000; stroke-width: 2; stroke-linecap: round"/>
   </g>
   <g id="patch_22">
    <path d="M 354.414743 239.925292 
Q 474.651427 215.124127 592.698147 190.774685 
" clip-path="url(#paab8c69d13)" style="fill: none; stroke: #000000; stroke-width: 2; stroke-linecap: round"/>
    <path d="M 584.055023 188.47329 
L 592.698147 190.774685 
L 585.671157 196.308346 
" clip-path="url(#paab8c69d13)" style="fill: none; stroke: #000000; stroke-width: 2; stroke-linecap: round"/>
   </g>
   <g id="patch_23">
    <path d="M 354.199465 244.262522 
Q 479.951712 283.633966 603.570034 322.337304 
" clip-path="url(#paab8c69d13)" style="fill: none; stroke: #000000; stroke-width: 2; stroke-linecap: round"/>
    <path d="M 597.130614 316.129738 
L 603.570034 322.337304 
L 594.740329 323.7643 
" clip-path="url(#paab8c69d13)" style="fill: none; stroke: #000000; stroke-width: 2; stroke-linecap: round"/>
   </g>
   <g id="patch_24">
    <path d="M 352.246893 247.600833 
Q 459.659416 348.430522 565.441632 447.729819 
" clip-path="url(#paab8c69d13)" style="fill: none; stroke: #000000; stroke-width: 2; stroke-linecap: round"/>
    <path d="M 562.346519 439.33814 
L 565.441632 447.729819 
L 556.871221 445.170902 
" clip-path="url(#paab8c69d13)" style="fill: none; stroke: #000000; stroke-width: 2; stroke-linecap: round"/>
   </g>
   <g id="patch_25">
    <path d="M 350.91942 234.596344 
Q 387.249808 183.016359 422.292563 133.264488 
" clip-path="url(#paab8c69d13)" style="fill: none; stroke: #000000; stroke-width: 2; stroke-linecap: round"/>
    <path d="M 414.415557 137.501559 
L 422.292563 133.264488 
L 420.956017 142.108335 
" clip-path="url(#paab8c69d13)" style="fill: none; stroke: #000000; stroke-width: 2; stroke-linecap: round"/>
   </g>
   <g id="patch_26">
    <path d="M 380.705561 376.586456 
Q 304.007258 338.961915 229.316483 302.322172 
" clip-path="url(#paab8c69d13)" style="fill: none; stroke: #000000; stroke-width: 2; stroke-linecap: round"/>
    <path d="M 234.737176 309.43667 
L 229.316483 302.322172 
L 238.260498 302.254316 
" clip-path="url(#paab8c69d13)" style="fill: none; stroke: #000000; stroke-width: 2; stroke-linecap: round"/>
   </g>
   <g id="patch_27">
    <path d="M 394.945971 374.632544 
Q 495.92876 284.485942 595.243446 195.828443 
" clip-path="url(#paab8c69d13)" style="fill: none; stroke: #ff0000; stroke-width: 2; stroke-linecap: round"/>
    <path d="M 586.611667 198.172029 
L 595.243446 195.828443 
L 591.939247 204.140018 
" clip-path="url(#paab8c69d13)" style="fill: none; stroke: #ff0000; stroke-width: 2; stroke-linecap: round"/>
   </g>
   <g id="patch_28">
    <path d="M 396.895554 378.357006 
Q 501.223738 352.997853 603.379121 328.166846 
" clip-path="url(#paab8c69d13)" style="fill: none; stroke: #000000; stroke-width: 2; stroke-linecap: round"/>
    <path d="M 594.660699 326.16957 
L 603.379121 328.166846 
L 596.550247 333.943218 
" clip-path="url(#paab8c69d13)" style="fill: none; stroke: #000000; stroke-width: 2; stroke-linecap: round"/>
   </g>
   <g id="patch_29">
    <path d="M 396.510042 383.648305 
Q 480.933035 417.793724 563.283092 451.100731 
" clip-path="url(#paab8c69d13)" style="fill: none; stroke: #000000; stroke-width: 2; stroke-linecap: round"/>
    <path d="M 557.366527 444.392955 
L 563.283092 451.100731 
L 554.366932 451.809317 
" clip-path="url(#paab8c69d13)" style="fill: none; stroke: #000000; stroke-width: 2; stroke-linecap: round"/>
   </g>
   <g id="patch_30">
    <path d="M 385.944635 372.125081 
Q 367.208487 311.038148 349.128022 252.088989 
" clip-path="url(#paab8c69d13)" style="fill: none; stroke: #000000; stroke-width: 2; stroke-linecap: round"/>
    <path d="M 347.649698 260.910245 
L 349.128022 252.088989 
L 355.298032 258.564402 
" clip-path="url(#paab8c69d13)" style="fill: none; stroke: #000000; stroke-width: 2; stroke-linecap: round"/>
   </g>
   <g id="patch_31">
    <path d="M 389.822114 371.84944 
Q 408.525662 252.378822 426.883358 135.117363 
" clip-path="url(#paab8c69d13)" style="fill: none; stroke: #000000; stroke-width: 2; stroke-linecap: round"/>
    <path d="M 421.694136 142.402415 
L 426.883358 135.117363 
L 429.597866 143.639772 
" clip-path="url(#paab8c69d13)" style="fill: none; stroke: #000000; stroke-width: 2; stroke-linecap: round"/>
   </g>
   <g id="patch_32">
    <path d="M 605.556054 327.637697 
Q 501.22787 352.996849 399.072487 377.827856 
" clip-path="url(#paab8c69d13)" style="fill: none; stroke: #000000; stroke-width: 2; stroke-linecap: round"/>
    <path d="M 407.79091 379.825132 
L 399.072487 377.827856 
L 405.901362 372.051484 
" clip-path="url(#paab8c69d13)" style="fill: none; stroke: #000000; stroke-width: 2; stroke-linecap: round"/>
   </g>
   <g id="patch_33">
    <path d="M 605.328736 324.978078 
Q 416.751375 311.558394 230.404441 298.297433 
" clip-path="url(#paab8c69d13)" style="fill: none; stroke: #000000; stroke-width: 2; stroke-linecap: round"/>
    <path d="M 238.100328 302.855209 
L 230.404441 298.297433 
L 238.668194 294.875389 
" clip-path="url(#paab8c69d13)" style="fill: none; stroke: #000000; stroke-width: 2; stroke-linecap: round"/>
   </g>
   <g id="patch_34">
    <path d="M 613.300546 316.958087 
Q 608.669444 257.081339 604.210772 199.434001 
" clip-path="url(#paab8c69d13)" style="fill: none; stroke: #000000; stroke-width: 2; stroke-linecap: round"/>
    <path d="M 600.839592 207.718634 
L 604.210772 199.434001 
L 608.81577 207.101725 
" clip-path="url(#paab8c69d13)" style="fill: none; stroke: #000000; stroke-width: 2; stroke-linecap: round"/>
   </g>
   <g id="patch_35">
    <path d="M 611.381172 333.854658 
Q 593.676687 390.390212 576.640441 444.791883 
" clip-path="url(#paab8c69d13)" style="fill: none; stroke: #000000; stroke-width: 2; stroke-linecap: round"/>
    <path d="M 582.848413 438.352855 
L 576.640441 444.791883 
L 575.214002 435.962089 
" clip-path="url(#paab8c69d13)" style="fill: none; stroke: #000000; stroke-width: 2; stroke-linecap: round"/>
   </g>
   <g id="patch_36">
    <path d="M 605.702743 323.005028 
Q 479.950496 283.633585 356.332174 244.930247 
" clip-path="url(#paab8c69d13)" style="fill: none; stroke: #000000; stroke-width: 2; stroke-linecap: round"/>
    <path d="M 362.771593 251.137813 
L 356.332174 244.930247 
L 365.161879 243.503251 
" clip-path="url(#paab8c69d13)" style="fill: none; stroke: #000000; stroke-width: 2; stroke-linecap: round"/>
   </g>
   <g id="patch_37">
    <path d="M 608.098262 319.221293 
Q 521.26857 224.973924 435.953976 132.371085 
" clip-path="url(#paab8c69d13)" style="fill: none; stroke: #000000; stroke-width: 2; stroke-linecap: round"/>
    <path d="M 438.432731 140.965023 
L 435.953976 132.371085 
L 444.31638 135.544444 
" clip-path="url(#paab8c69d13)" style="fill: none; stroke: #000000; stroke-width: 2; stroke-linecap: round"/>
   </g>
   <g id="patch_38">
    <path d="M 565.35843 451.940115 
Q 480.935437 417.794696 398.58538 384.487689 
" clip-path="url(#paab8c69d13)" style="fill: none; stroke: #000000; stroke-width: 2; stroke-linecap: round"/>
    <path d="M 404.501945 391.195465 
L 398.58538 384.487689 
L 407.50154 383.779103 
" clip-path="url(#paab8c69d13)" style="fill: none; stroke: #000000; stroke-width: 2; stroke-linecap: round"/>
   </g>
   <g id="patch_39">
    <path d="M 565.472552 451.661004 
Q 396.458866 376.354671 229.487675 301.9584 
" clip-path="url(#paab8c69d13)" style="fill: none; stroke: #000000; stroke-width: 2; stroke-linecap: round"/>
    <path d="M 235.167162 308.868062 
L 229.487675 301.9584 
L 238.423097 301.560608 
" clip-path="url(#paab8c69d13)" style="fill: none; stroke: #000000; stroke-width: 2; stroke-linecap: round"/>
   </g>
   <g id="patch_40">
    <path d="M 574.352962 446.582381 
Q 588.378127 321.878886 602.153382 199.39745 
" clip-path="url(#paab8c69d13)" style="fill: none; stroke: #000000; stroke-width: 2; stroke-linecap: round"/>
    <path d="M 597.284335 206.900275 
L 602.153382 199.39745 
L 605.234213 207.794383 
" clip-path="url(#paab8c69d13)" style="fill: none; stroke: #000000; stroke-width: 2; stroke-linecap: round"/>
   </g>
   <g id="patch_41">
    <path d="M 575.972485 446.92486 
Q 593.67697 390.389307 610.713216 335.987635 
" clip-path="url(#paab8c69d13)" style="fill: none; stroke: #000000; stroke-width: 2; stroke-linecap: round"/>
    <path d="M 604.505244 342.426663 
L 610.713216 335.987635 
L 612.139655 344.81743 
" clip-path="url(#paab8c69d13)" style="fill: none; stroke: #000000; stroke-width: 2; stroke-linecap: round"/>
   </g>
   <g id="patch_42">
    <path d="M 567.072178 449.260436 
Q 459.659655 348.430747 353.877439 249.13145 
" clip-path="url(#paab8c69d13)" style="fill: none; stroke: #000000; stroke-width: 2; stroke-linecap: round"/>
    <path d="M 356.972552 257.523129 
L 353.877439 249.13145 
L 362.44785 251.690367 
" clip-path="url(#paab8c69d13)" style="fill: none; stroke: #000000; stroke-width: 2; stroke-linecap: round"/>
   </g>
   <g id="patch_43">
    <path d="M 427.229421 132.906853 
Q 408.525873 252.377472 390.168177 369.63893 
" clip-path="url(#paab8c69d13)" style="fill: none; stroke: #000000; stroke-width: 2; stroke-linecap: round"/>
    <path d="M 395.357399 362.353879 
L 390.168177 369.63893 
L 387.453669 361.116522 
" clip-path="url(#paab8c69d13)" style="fill: none; stroke: #000000; stroke-width: 2; stroke-linecap: round"/>
   </g>
   <g id="patch_44">
    <path d="M 421.898886 129.879659 
Q 324.05036 210.94039 227.923773 290.574614 
" clip-path="url(#paab8c69d13)" style="fill: none; stroke: #000000; stroke-width: 2; stroke-linecap: round"/>
    <path d="M 236.636185 288.551284 
L 227.923773 290.574614 
L 231.532556 282.390686 
" clip-path="url(#paab8c69d13)" style="fill: none; stroke: #000000; stroke-width: 2; stroke-linecap: round"/>
   </g>
   <g id="patch_45">
    <path d="M 436.695506 127.340249 
Q 515.967727 156.463204 593.141041 184.815065 
" clip-path="url(#paab8c69d13)" style="fill: none; stroke: #000000; stroke-width: 2; stroke-linecap: round"/>
    <path d="M 587.011137 178.301673 
L 593.141041 184.815065 
L 584.252385 185.810953 
" clip-path="url(#paab8c69d13)" style="fill: none; stroke: #000000; stroke-width: 2; stroke-linecap: round"/>
   </g>
   <g id="patch_46">
    <path d="M 434.438458 130.7261 
Q 521.26815 224.973468 606.582744 317.576307 
" clip-path="url(#paab8c69d13)" style="fill: none; stroke: #000000; stroke-width: 2; stroke-linecap: round"/>
    <path d="M 604.103989 308.982369 
L 606.582744 317.576307 
L 598.22034 314.402949 
" clip-path="url(#paab8c69d13)" style="fill: none; stroke: #000000; stroke-width: 2; stroke-linecap: round"/>
   </g>
   <g id="patch_47">
    <path d="M 423.582714 131.432799 
Q 387.252326 183.012784 352.209571 232.764655 
" clip-path="url(#paab8c69d13)" style="fill: none; stroke: #000000; stroke-width: 2; stroke-linecap: round"/>
    <path d="M 360.086577 228.527583 
L 352.209571 232.764655 
L 353.546117 223.920807 
" clip-path="url(#paab8c69d13)" style="fill: none; stroke: #000000; stroke-width: 2; stroke-linecap: round"/>
   </g>
   <g id="text_1">
    <g id="patch_48">
     <path d="M 170.487541 200.367282 
L 173.326356 207.454902 
Q 174.664894 210.796805 178.006797 209.458268 
L 188.787916 205.14009 
Q 192.12982 203.801552 190.791282 200.459649 
L 187.952467 193.372029 
Q 186.613929 190.030126 183.272026 191.368663 
L 172.490907 195.686841 
Q 169.149004 197.025379 170.487541 200.367282 
z
" clip-path="url(#paab8c69d13)" style="fill: #ffffff; stroke: #ffffff; stroke-linejoin: miter"/>
    </g>
    <g clip-path="url(#paab8c69d13)">
     <!-- 9 -->
     <g transform="translate(176.146149 198.100831)rotate(-291.827657)scale(0.12 -0.12)">
      <defs>
       <path id="DejaVuSans-39" d="M 703 97 
L 703 672 
Q 941 559 1184 500 
Q 1428 441 1663 441 
Q 2288 441 2617 861 
Q 2947 1281 2994 2138 
Q 2813 1869 2534 1725 
Q 2256 1581 1919 1581 
Q 1219 1581 811 2004 
Q 403 2428 403 3163 
Q 403 3881 828 4315 
Q 1253 4750 1959 4750 
Q 2769 4750 3195 4129 
Q 3622 3509 3622 2328 
Q 3622 1225 3098 567 
Q 2575 -91 1691 -91 
Q 1453 -91 1209 -44 
Q 966 3 703 97 
z
M 1959 2075 
Q 2384 2075 2632 2365 
Q 2881 2656 2881 3163 
Q 2881 3666 2632 3958 
Q 2384 4250 1959 4250 
Q 1534 4250 1286 3958 
Q 1038 3666 1038 3163 
Q 1038 2656 1286 2365 
Q 1534 2075 1959 2075 
z
" transform="scale(0.015625)"/>
      </defs>
      <use xlink:href="#DejaVuSans-39"/>
     </g>
    </g>
   </g>
   <g id="text_2">
    <g id="patch_49">
     <path d="M 367.094486 154.495076 
L 374.602474 155.881927 
Q 378.142585 156.535845 378.796503 152.995733 
L 380.90607 141.575185 
Q 381.559988 138.035073 378.019876 137.381155 
L 370.511889 135.994305 
Q 366.971777 135.340387 366.317859 138.880498 
L 364.208293 150.301046 
Q 363.554375 153.841158 367.094486 154.495076 
z
" clip-path="url(#paab8c69d13)" style="fill: #ffffff; stroke: #ffffff; stroke-linejoin: miter"/>
    </g>
    <g clip-path="url(#paab8c69d13)">
     <!-- 3 -->
     <g transform="translate(368.201719 148.500856)rotate(-349.534475)scale(0.12 -0.12)">
      <defs>
       <path id="DejaVuSans-33" d="M 2597 2516 
Q 3050 2419 3304 2112 
Q 3559 1806 3559 1356 
Q 3559 666 3084 287 
Q 2609 -91 1734 -91 
Q 1441 -91 1130 -33 
Q 819 25 488 141 
L 488 750 
Q 750 597 1062 519 
Q 1375 441 1716 441 
Q 2309 441 2620 675 
Q 2931 909 2931 1356 
Q 2931 1769 2642 2001 
Q 2353 2234 1838 2234 
L 1294 2234 
L 1294 2753 
L 1863 2753 
Q 2328 2753 2575 2939 
Q 2822 3125 2822 3475 
Q 2822 3834 2567 4026 
Q 2313 4219 1838 4219 
Q 1578 4219 1281 4162 
Q 984 4106 628 3988 
L 628 4550 
Q 988 4650 1302 4700 
Q 1616 4750 1894 4750 
Q 2613 4750 3031 4423 
Q 3450 4097 3450 3541 
Q 3450 3153 3228 2886 
Q 3006 2619 2597 2516 
z
" transform="scale(0.015625)"/>
      </defs>
      <use xlink:href="#DejaVuSans-33"/>
     </g>
    </g>
   </g>
   <g id="text_3">
    <g id="patch_50">
     <path d="M 235.401365 178.134511 
L 241.721816 182.417632 
Q 244.70199 184.437178 246.721536 181.457004 
L 253.236676 171.842841 
Q 255.256222 168.862668 252.276049 166.843122 
L 245.955598 162.560001 
Q 242.975425 160.540454 240.955878 163.520628 
L 234.440738 173.134791 
Q 232.421192 176.114964 235.401365 178.134511 
z
" clip-path="url(#paab8c69d13)" style="fill: #ffffff; stroke: #ffffff; stroke-linejoin: miter"/>
    </g>
    <g clip-path="url(#paab8c69d13)">
     <!-- 9 -->
     <g transform="translate(238.82092 173.088394)rotate(-325.876052)scale(0.12 -0.12)">
      <use xlink:href="#DejaVuSans-39"/>
     </g>
    </g>
   </g>
   <g id="text_4">
    <g id="patch_51">
     <path d="M 170.487541 200.367282 
L 173.326356 207.454902 
Q 174.664894 210.796805 178.006797 209.458268 
L 188.787916 205.14009 
Q 192.12982 203.801552 190.791282 200.459649 
L 187.952467 193.372029 
Q 186.613929 190.030126 183.272026 191.368663 
L 172.490907 195.686841 
Q 169.149004 197.025379 170.487541 200.367282 
z
" clip-path="url(#paab8c69d13)" style="fill: #ffffff; stroke: #ffffff; stroke-linejoin: miter"/>
    </g>
    <g clip-path="url(#paab8c69d13)">
     <!-- 6 -->
     <g transform="translate(176.146149 198.100831)rotate(-291.827657)scale(0.12 -0.12)">
      <defs>
       <path id="DejaVuSans-36" d="M 2113 2584 
Q 1688 2584 1439 2293 
Q 1191 2003 1191 1497 
Q 1191 994 1439 701 
Q 1688 409 2113 409 
Q 2538 409 2786 701 
Q 3034 994 3034 1497 
Q 3034 2003 2786 2293 
Q 2538 2584 2113 2584 
z
M 3366 4563 
L 3366 3988 
Q 3128 4100 2886 4159 
Q 2644 4219 2406 4219 
Q 1781 4219 1451 3797 
Q 1122 3375 1075 2522 
Q 1259 2794 1537 2939 
Q 1816 3084 2150 3084 
Q 2853 3084 3261 2657 
Q 3669 2231 3669 1497 
Q 3669 778 3244 343 
Q 2819 -91 2113 -91 
Q 1303 -91 875 529 
Q 447 1150 447 2328 
Q 447 3434 972 4092 
Q 1497 4750 2381 4750 
Q 2619 4750 2861 4703 
Q 3103 4656 3366 4563 
z
" transform="scale(0.015625)"/>
      </defs>
      <use xlink:href="#DejaVuSans-36"/>
     </g>
    </g>
   </g>
   <g id="text_5">
    <g id="patch_52">
     <path d="M 296.438956 345.727029 
L 303.293615 349.089599 
Q 306.525674 350.675093 308.111169 347.443034 
L 313.22604 337.016276 
Q 314.811535 333.784217 311.579476 332.198722 
L 304.724817 328.836153 
Q 301.492758 327.250658 299.907263 330.482717 
L 294.792391 340.909475 
Q 293.206897 344.141534 296.438956 345.727029 
z
" clip-path="url(#paab8c69d13)" style="fill: #ffffff; stroke: #ffffff; stroke-linejoin: miter"/>
    </g>
    <g clip-path="url(#paab8c69d13)">
     <!-- 9 -->
     <g transform="translate(299.123562 340.254412)rotate(-333.869627)scale(0.12 -0.12)">
      <use xlink:href="#DejaVuSans-39"/>
     </g>
    </g>
   </g>
   <g id="text_6">
    <g id="patch_53">
     <path d="M 410.34921 253.140392 
L 417.694057 251.055577 
Q 421.157246 250.07256 420.174229 246.609371 
L 417.002975 235.436979 
Q 416.019958 231.97379 412.556769 232.956807 
L 405.211922 235.041622 
Q 401.748733 236.024639 402.73175 239.487828 
L 405.903004 250.66022 
Q 406.886021 254.123409 410.34921 253.140392 
z
" clip-path="url(#paab8c69d13)" style="fill: #ffffff; stroke: #ffffff; stroke-linejoin: miter"/>
    </g>
    <g clip-path="url(#paab8c69d13)">
     <!-- 4 -->
     <g transform="translate(408.684737 247.276419)rotate(-15.846453)scale(0.12 -0.12)">
      <defs>
       <path id="DejaVuSans-34" d="M 2419 4116 
L 825 1625 
L 2419 1625 
L 2419 4116 
z
M 2253 4666 
L 3047 4666 
L 3047 1625 
L 3713 1625 
L 3713 1100 
L 3047 1100 
L 3047 0 
L 2419 0 
L 2419 1100 
L 313 1100 
L 313 1709 
L 2253 4666 
z
" transform="scale(0.015625)"/>
      </defs>
      <use xlink:href="#DejaVuSans-34"/>
     </g>
    </g>
   </g>
   <g id="text_7">
    <g id="patch_54">
     <path d="M 412.276207 320.670593 
L 419.891948 321.21255 
Q 423.482867 321.468089 423.738407 317.87717 
L 424.562789 306.292716 
Q 424.818328 302.701797 421.227409 302.446257 
L 413.611669 301.9043 
Q 410.020749 301.64876 409.76521 305.239679 
L 408.940828 316.824134 
Q 408.685288 320.415053 412.276207 320.670593 
z
" clip-path="url(#paab8c69d13)" style="fill: #ffffff; stroke: #ffffff; stroke-linejoin: miter"/>
    </g>
    <g clip-path="url(#paab8c69d13)">
     <!-- 2 -->
     <g transform="translate(412.708895 314.590344)rotate(-355.929536)scale(0.12 -0.12)">
      <defs>
       <path id="DejaVuSans-32" d="M 1228 531 
L 3431 531 
L 3431 0 
L 469 0 
L 469 531 
Q 828 903 1448 1529 
Q 2069 2156 2228 2338 
Q 2531 2678 2651 2914 
Q 2772 3150 2772 3378 
Q 2772 3750 2511 3984 
Q 2250 4219 1831 4219 
Q 1534 4219 1204 4116 
Q 875 4013 500 3803 
L 500 4441 
Q 881 4594 1212 4672 
Q 1544 4750 1819 4750 
Q 2544 4750 2975 4387 
Q 3406 4025 3406 3419 
Q 3406 3131 3298 2873 
Q 3191 2616 2906 2266 
Q 2828 2175 2409 1742 
Q 1991 1309 1228 531 
z
" transform="scale(0.015625)"/>
      </defs>
      <use xlink:href="#DejaVuSans-32"/>
     </g>
    </g>
   </g>
   <g id="text_8">
    <g id="patch_55">
     <path d="M 389.144693 383.394131 
L 396.118744 386.501514 
Q 399.407099 387.966684 400.872269 384.67833 
L 405.598971 374.069962 
Q 407.064142 370.781607 403.775788 369.316437 
L 396.801736 366.209054 
Q 393.513382 364.743883 392.048211 368.032237 
L 387.321509 378.640606 
Q 385.856338 381.92896 389.144693 383.394131 
z
" clip-path="url(#paab8c69d13)" style="fill: #ffffff; stroke: #ffffff; stroke-linejoin: miter"/>
    </g>
    <g clip-path="url(#paab8c69d13)">
     <!-- 5 -->
     <g transform="translate(391.625562 377.826193)rotate(-335.983991)scale(0.12 -0.12)">
      <defs>
       <path id="DejaVuSans-35" d="M 691 4666 
L 3169 4666 
L 3169 4134 
L 1269 4134 
L 1269 2991 
Q 1406 3038 1543 3061 
Q 1681 3084 1819 3084 
Q 2600 3084 3056 2656 
Q 3513 2228 3513 1497 
Q 3513 744 3044 326 
Q 2575 -91 1722 -91 
Q 1428 -91 1123 -41 
Q 819 9 494 109 
L 494 744 
Q 775 591 1075 516 
Q 1375 441 1709 441 
Q 2250 441 2565 725 
Q 2881 1009 2881 1497 
Q 2881 1984 2565 2268 
Q 2250 2553 1709 2553 
Q 1456 2553 1204 2497 
Q 953 2441 691 2322 
L 691 4666 
z
" transform="scale(0.015625)"/>
      </defs>
      <use xlink:href="#DejaVuSans-35"/>
     </g>
    </g>
   </g>
   <g id="text_9">
    <g id="patch_56">
     <path d="M 283.044535 279.74654 
L 290.028192 276.660807 
Q 293.321076 275.205844 291.866113 271.91296 
L 287.172343 261.28998 
Q 285.71738 257.997096 282.424496 259.452059 
L 275.440839 262.537793 
Q 272.147955 263.992756 273.602918 267.285639 
L 278.296688 277.908619 
Q 279.751651 281.201503 283.044535 279.74654 
z
" clip-path="url(#paab8c69d13)" style="fill: #ffffff; stroke: #ffffff; stroke-linejoin: miter"/>
    </g>
    <g clip-path="url(#paab8c69d13)">
     <!-- 6 -->
     <g transform="translate(280.580949 274.170934)rotate(-23.838269)scale(0.12 -0.12)">
      <use xlink:href="#DejaVuSans-36"/>
     </g>
    </g>
   </g>
   <g id="text_10">
    <g id="patch_57">
     <path d="M 327.113161 220.618606 
L 332.992682 215.74783 
Q 335.764951 213.451196 333.468318 210.678927 
L 326.059284 201.735471 
Q 323.762651 198.963202 320.990382 201.259835 
L 315.110861 206.130611 
Q 312.338592 208.427245 314.635225 211.199514 
L 322.044259 220.14297 
Q 324.340892 222.915239 327.113161 220.618606 
z
" clip-path="url(#paab8c69d13)" style="fill: #ffffff; stroke: #ffffff; stroke-linejoin: miter"/>
    </g>
    <g clip-path="url(#paab8c69d13)">
     <!-- 8 -->
     <g transform="translate(323.224435 215.924519)rotate(-39.639397)scale(0.12 -0.12)">
      <defs>
       <path id="DejaVuSans-38" d="M 2034 2216 
Q 1584 2216 1326 1975 
Q 1069 1734 1069 1313 
Q 1069 891 1326 650 
Q 1584 409 2034 409 
Q 2484 409 2743 651 
Q 3003 894 3003 1313 
Q 3003 1734 2745 1975 
Q 2488 2216 2034 2216 
z
M 1403 2484 
Q 997 2584 770 2862 
Q 544 3141 544 3541 
Q 544 4100 942 4425 
Q 1341 4750 2034 4750 
Q 2731 4750 3128 4425 
Q 3525 4100 3525 3541 
Q 3525 3141 3298 2862 
Q 3072 2584 2669 2484 
Q 3125 2378 3379 2068 
Q 3634 1759 3634 1313 
Q 3634 634 3220 271 
Q 2806 -91 2034 -91 
Q 1263 -91 848 271 
Q 434 634 434 1313 
Q 434 1759 690 2068 
Q 947 2378 1403 2484 
z
M 1172 3481 
Q 1172 3119 1398 2916 
Q 1625 2713 2034 2713 
Q 2441 2713 2670 2916 
Q 2900 3119 2900 3481 
Q 2900 3844 2670 4047 
Q 2441 4250 2034 4250 
Q 1625 4250 1398 4047 
Q 1172 3844 1172 3481 
z
" transform="scale(0.015625)"/>
      </defs>
      <use xlink:href="#DejaVuSans-38"/>
     </g>
    </g>
   </g>
   <g id="text_11">
    <g id="patch_58">
     <path d="M 367.094486 154.495076 
L 374.602474 155.881927 
Q 378.142585 156.535845 378.796503 152.995733 
L 380.90607 141.575185 
Q 381.559988 138.035073 378.019876 137.381155 
L 370.511889 135.994305 
Q 366.971777 135.340387 366.317859 138.880498 
L 364.208293 150.301046 
Q 363.554375 153.841158 367.094486 154.495076 
z
" clip-path="url(#paab8c69d13)" style="fill: #ffffff; stroke: #ffffff; stroke-linejoin: miter"/>
    </g>
    <g clip-path="url(#paab8c69d13)">
     <!-- 5 -->
     <g transform="translate(368.201719 148.500856)rotate(-349.534475)scale(0.12 -0.12)">
      <use xlink:href="#DejaVuSans-35"/>
     </g>
    </g>
   </g>
   <g id="text_12">
    <g id="patch_59">
     <path d="M 499.343621 294.047296 
L 505.03932 288.962787 
Q 507.724915 286.565376 505.327504 283.879781 
L 497.593356 275.215939 
Q 495.195945 272.530345 492.51035 274.927756 
L 486.814651 280.012265 
Q 484.129056 282.409676 486.526467 285.095271 
L 494.260615 293.759112 
Q 496.658026 296.444707 499.343621 294.047296 
z
" clip-path="url(#paab8c69d13)" style="fill: #ffffff; stroke: #ffffff; stroke-linejoin: miter"/>
    </g>
    <g clip-path="url(#paab8c69d13)">
     <!-- 1 -->
     <g transform="translate(495.284255 289.499968)rotate(-41.755058)scale(0.12 -0.12)">
      <defs>
       <path id="DejaVuSans-31" d="M 794 531 
L 1825 531 
L 1825 4091 
L 703 3866 
L 703 4441 
L 1819 4666 
L 2450 4666 
L 2450 531 
L 3481 531 
L 3481 0 
L 794 0 
L 794 531 
z
" transform="scale(0.015625)"/>
      </defs>
      <use xlink:href="#DejaVuSans-31"/>
     </g>
    </g>
   </g>
   <g id="text_13">
    <g id="patch_60">
     <path d="M 410.34921 253.140392 
L 417.694057 251.055577 
Q 421.157246 250.07256 420.174229 246.609371 
L 417.002975 235.436979 
Q 416.019958 231.97379 412.556769 232.956807 
L 405.211922 235.041622 
Q 401.748733 236.024639 402.73175 239.487828 
L 405.903004 250.66022 
Q 406.886021 254.123409 410.34921 253.140392 
z
" clip-path="url(#paab8c69d13)" style="fill: #ffffff; stroke: #ffffff; stroke-linejoin: miter"/>
    </g>
    <g clip-path="url(#paab8c69d13)">
     <!-- 2 -->
     <g transform="translate(408.684737 247.276419)rotate(-15.846453)scale(0.12 -0.12)">
      <use xlink:href="#DejaVuSans-32"/>
     </g>
    </g>
   </g>
   <g id="text_14">
    <g id="patch_61">
     <path d="M 598.996332 254.002341 
L 599.585095 261.614606 
Q 599.862704 265.203886 603.451984 264.926277 
L 615.031152 264.030699 
Q 618.620432 263.75309 618.342823 260.16381 
L 617.754061 252.551544 
Q 617.476452 248.962264 613.887172 249.239873 
L 602.308004 250.135451 
Q 598.718723 250.41306 598.996332 254.002341 
z
" clip-path="url(#paab8c69d13)" style="fill: #ffffff; stroke: #ffffff; stroke-linejoin: miter"/>
    </g>
    <g clip-path="url(#paab8c69d13)">
     <!-- 2 -->
     <g transform="translate(605.073807 253.532285)rotate(-274.422676)scale(0.12 -0.12)">
      <use xlink:href="#DejaVuSans-32"/>
     </g>
    </g>
   </g>
   <g id="text_15">
    <g id="patch_62">
     <path d="M 597.299292 326.724862 
L 598.152606 319.137696 
Q 598.554955 315.560251 594.977509 315.157902 
L 583.436521 313.859909 
Q 579.859076 313.457561 579.456727 317.035006 
L 578.603413 324.622172 
Q 578.201065 328.199617 581.77851 328.601966 
L 593.319498 329.899959 
Q 596.896944 330.302307 597.299292 326.724862 
z
" clip-path="url(#paab8c69d13)" style="fill: #ffffff; stroke: #ffffff; stroke-linejoin: miter"/>
    </g>
    <g clip-path="url(#paab8c69d13)">
     <!-- 4 -->
     <g transform="translate(591.241857 326.043594)rotate(-83.583018)scale(0.12 -0.12)">
      <use xlink:href="#DejaVuSans-34"/>
     </g>
    </g>
   </g>
   <g id="text_16">
    <g id="patch_63">
     <path d="M 472.81384 225.108074 
L 480.291422 223.565676 
Q 483.817197 222.838416 483.089937 219.312641 
L 480.743766 207.938342 
Q 480.016506 204.412567 476.49073 205.139827 
L 469.013148 206.682224 
Q 465.487373 207.409484 466.214633 210.93526 
L 468.560804 222.309558 
Q 469.288064 225.835334 472.81384 225.108074 
z
" clip-path="url(#paab8c69d13)" style="fill: #ffffff; stroke: #ffffff; stroke-linejoin: miter"/>
    </g>
    <g clip-path="url(#paab8c69d13)">
     <!-- 7 -->
     <g transform="translate(471.582422 219.138128)rotate(-11.654914)scale(0.12 -0.12)">
      <defs>
       <path id="DejaVuSans-37" d="M 525 4666 
L 3525 4666 
L 3525 4397 
L 1831 0 
L 1172 0 
L 2766 4134 
L 525 4134 
L 525 4666 
z
" transform="scale(0.015625)"/>
      </defs>
      <use xlink:href="#DejaVuSans-37"/>
     </g>
    </g>
   </g>
   <g id="text_17">
    <g id="patch_64">
     <path d="M 509.142302 163.977286 
L 516.308971 166.61017 
Q 519.688147 167.851609 520.929585 164.472433 
L 524.934518 153.57107 
Q 526.175956 150.191894 522.79678 148.950456 
L 515.630111 146.317571 
Q 512.250935 145.076133 511.009497 148.455309 
L 507.004564 159.356671 
Q 505.763126 162.735847 509.142302 163.977286 
z
" clip-path="url(#paab8c69d13)" style="fill: #ffffff; stroke: #ffffff; stroke-linejoin: miter"/>
    </g>
    <g clip-path="url(#paab8c69d13)">
     <!-- 9 -->
     <g transform="translate(511.244342 158.255567)rotate(-339.827724)scale(0.12 -0.12)">
      <use xlink:href="#DejaVuSans-39"/>
     </g>
    </g>
   </g>
   <g id="text_18">
    <g id="patch_65">
     <path d="M 235.401365 178.134511 
L 241.721816 182.417632 
Q 244.70199 184.437178 246.721536 181.457004 
L 253.236676 171.842841 
Q 255.256222 168.862668 252.276049 166.843122 
L 245.955598 162.560001 
Q 242.975425 160.540454 240.955878 163.520628 
L 234.440738 173.134791 
Q 232.421192 176.114964 235.401365 178.134511 
z
" clip-path="url(#paab8c69d13)" style="fill: #ffffff; stroke: #ffffff; stroke-linejoin: miter"/>
    </g>
    <g clip-path="url(#paab8c69d13)">
     <!-- 5 -->
     <g transform="translate(238.82092 173.088394)rotate(-325.876052)scale(0.12 -0.12)">
      <use xlink:href="#DejaVuSans-35"/>
     </g>
    </g>
   </g>
   <g id="text_19">
    <g id="patch_66">
     <path d="M 357.095739 310.146917 
L 359.334552 317.446297 
Q 360.390181 320.888047 363.831932 319.832418 
L 374.935163 316.426915 
Q 378.376913 315.371285 377.321284 311.929535 
L 375.082471 304.630155 
Q 374.026841 301.188405 370.585091 302.244034 
L 359.48186 305.649538 
Q 356.040109 306.705167 357.095739 310.146917 
z
" clip-path="url(#paab8c69d13)" style="fill: #ffffff; stroke: #ffffff; stroke-linejoin: miter"/>
    </g>
    <g clip-path="url(#paab8c69d13)">
     <!-- 1 -->
     <g transform="translate(362.923411 308.359495)rotate(-287.05145)scale(0.12 -0.12)">
      <use xlink:href="#DejaVuSans-31"/>
     </g>
    </g>
   </g>
   <g id="text_20">
    <g id="patch_67">
     <path d="M 283.044535 279.74654 
L 290.028192 276.660807 
Q 293.321076 275.205844 291.866113 271.91296 
L 287.172343 261.28998 
Q 285.71738 257.997096 282.424496 259.452059 
L 275.440839 262.537793 
Q 272.147955 263.992756 273.602918 267.285639 
L 278.296688 277.908619 
Q 279.751651 281.201503 283.044535 279.74654 
z
" clip-path="url(#paab8c69d13)" style="fill: #ffffff; stroke: #ffffff; stroke-linejoin: miter"/>
    </g>
    <g clip-path="url(#paab8c69d13)">
     <!-- 8 -->
     <g transform="translate(280.580949 274.170934)rotate(-23.838269)scale(0.12 -0.12)">
      <use xlink:href="#DejaVuSans-38"/>
     </g>
    </g>
   </g>
   <g id="text_21">
    <g id="patch_68">
     <path d="M 472.81384 225.108074 
L 480.291422 223.565676 
Q 483.817197 222.838416 483.089937 219.312641 
L 480.743766 207.938342 
Q 480.016506 204.412567 476.49073 205.139827 
L 469.013148 206.682224 
Q 465.487373 207.409484 466.214633 210.93526 
L 468.560804 222.309558 
Q 469.288064 225.835334 472.81384 225.108074 
z
" clip-path="url(#paab8c69d13)" style="fill: #ffffff; stroke: #ffffff; stroke-linejoin: miter"/>
    </g>
    <g clip-path="url(#paab8c69d13)">
     <!-- 1 -->
     <g transform="translate(471.582422 219.138128)rotate(-11.654914)scale(0.12 -0.12)">
      <use xlink:href="#DejaVuSans-31"/>
     </g>
    </g>
   </g>
   <g id="text_22">
    <g id="patch_69">
     <path d="M 473.497347 291.470333 
L 480.783582 293.751561 
Q 484.219135 294.827189 485.294763 291.391636 
L 488.764785 280.3084 
Q 489.840413 276.872847 486.40486 275.797218 
L 479.118625 273.51599 
Q 475.683072 272.440362 474.607444 275.875915 
L 471.137422 286.959151 
Q 470.061794 290.394704 473.497347 291.470333 
z
" clip-path="url(#paab8c69d13)" style="fill: #ffffff; stroke: #ffffff; stroke-linejoin: miter"/>
    </g>
    <g clip-path="url(#paab8c69d13)">
     <!-- 5 -->
     <g transform="translate(475.318632 285.653154)rotate(-342.61532)scale(0.12 -0.12)">
      <use xlink:href="#DejaVuSans-35"/>
     </g>
    </g>
   </g>
   <g id="text_23">
    <g id="patch_70">
     <path d="M 450.438034 352.676398 
L 456.004676 357.901886 
Q 458.629419 360.36577 461.093303 357.741027 
L 469.041896 349.273497 
Q 471.50578 346.648754 468.881037 344.18487 
L 463.314395 338.959383 
Q 460.689652 336.495499 458.225768 339.120242 
L 450.277175 347.587771 
Q 447.813291 350.212514 450.438034 352.676398 
z
" clip-path="url(#paab8c69d13)" style="fill: #ffffff; stroke: #ffffff; stroke-linejoin: miter"/>
    </g>
    <g clip-path="url(#paab8c69d13)">
     <!-- 3 -->
     <g transform="translate(454.609954 348.232107)rotate(-316.810598)scale(0.12 -0.12)">
      <use xlink:href="#DejaVuSans-33"/>
     </g>
    </g>
   </g>
   <g id="text_24">
    <g id="patch_71">
     <path d="M 392.743432 191.552518 
L 397.140024 185.310466 
Q 399.213073 182.36726 396.269866 180.29421 
L 386.774958 173.606467 
Q 383.831751 171.533418 381.758702 174.476625 
L 377.36211 180.718676 
Q 375.289061 183.661883 378.232268 185.734932 
L 387.727176 192.422675 
Q 390.670383 194.495725 392.743432 191.552518 
z
" clip-path="url(#paab8c69d13)" style="fill: #ffffff; stroke: #ffffff; stroke-linejoin: miter"/>
    </g>
    <g clip-path="url(#paab8c69d13)">
     <!-- 5 -->
     <g transform="translate(387.759908 188.04237)rotate(-54.841029)scale(0.12 -0.12)">
      <use xlink:href="#DejaVuSans-35"/>
     </g>
    </g>
   </g>
   <g id="text_25">
    <g id="patch_72">
     <path d="M 296.438956 345.727029 
L 303.293615 349.089599 
Q 306.525674 350.675093 308.111169 347.443034 
L 313.22604 337.016276 
Q 314.811535 333.784217 311.579476 332.198722 
L 304.724817 328.836153 
Q 301.492758 327.250658 299.907263 330.482717 
L 294.792391 340.909475 
Q 293.206897 344.141534 296.438956 345.727029 
z
" clip-path="url(#paab8c69d13)" style="fill: #ffffff; stroke: #ffffff; stroke-linejoin: miter"/>
    </g>
    <g clip-path="url(#paab8c69d13)">
     <!-- 8 -->
     <g transform="translate(299.123562 340.254412)rotate(-333.869627)scale(0.12 -0.12)">
      <use xlink:href="#DejaVuSans-38"/>
     </g>
    </g>
   </g>
   <g id="text_26">
    <g id="patch_73">
     <path d="M 499.343621 294.047296 
L 505.03932 288.962787 
Q 507.724915 286.565376 505.327504 283.879781 
L 497.593356 275.215939 
Q 495.195945 272.530345 492.51035 274.927756 
L 486.814651 280.012265 
Q 484.129056 282.409676 486.526467 285.095271 
L 494.260615 293.759112 
Q 496.658026 296.444707 499.343621 294.047296 
z
" clip-path="url(#paab8c69d13)" style="fill: #ffffff; stroke: #ffffff; stroke-linejoin: miter"/>
    </g>
    <g clip-path="url(#paab8c69d13)">
     <!-- 5 -->
     <g transform="translate(495.284255 289.499968)rotate(-41.755058)scale(0.12 -0.12)">
      <use xlink:href="#DejaVuSans-35"/>
     </g>
    </g>
   </g>
   <g id="text_27">
    <g id="patch_74">
     <path d="M 499.738159 363.039737 
L 507.157135 361.2364 
Q 510.655277 360.386103 509.80498 356.887961 
L 507.061888 345.60281 
Q 506.211591 342.104669 502.713449 342.954965 
L 495.294474 344.758303 
Q 491.796332 345.608599 492.646628 349.106741 
L 495.389721 360.391892 
Q 496.240018 363.890034 499.738159 363.039737 
z
" clip-path="url(#paab8c69d13)" style="fill: #ffffff; stroke: #ffffff; stroke-linejoin: miter"/>
    </g>
    <g clip-path="url(#paab8c69d13)">
     <!-- 5 -->
     <g transform="translate(498.298412 357.116582)rotate(-13.661987)scale(0.12 -0.12)">
      <use xlink:href="#DejaVuSans-35"/>
     </g>
    </g>
   </g>
   <g id="text_28">
    <g id="patch_75">
     <path d="M 473.868139 425.08344 
L 480.946129 427.946178 
Q 484.283492 429.295996 485.63331 425.958633 
L 489.987879 415.192161 
Q 491.337696 411.854798 488.000333 410.50498 
L 480.922343 407.642242 
Q 477.58498 406.292424 476.235162 409.629787 
L 471.880593 420.396259 
Q 470.530776 423.733622 473.868139 425.08344 
z
" clip-path="url(#paab8c69d13)" style="fill: #ffffff; stroke: #ffffff; stroke-linejoin: miter"/>
    </g>
    <g clip-path="url(#paab8c69d13)">
     <!-- 7 -->
     <g transform="translate(476.153689 419.432519)rotate(-337.978815)scale(0.12 -0.12)">
      <use xlink:href="#DejaVuSans-37"/>
     </g>
    </g>
   </g>
   <g id="text_29">
    <g id="patch_76">
     <path d="M 357.095739 310.146917 
L 359.334552 317.446297 
Q 360.390181 320.888047 363.831932 319.832418 
L 374.935163 316.426915 
Q 378.376913 315.371285 377.321284 311.929535 
L 375.082471 304.630155 
Q 374.026841 301.188405 370.585091 302.244034 
L 359.48186 305.649538 
Q 356.040109 306.705167 357.095739 310.146917 
z
" clip-path="url(#paab8c69d13)" style="fill: #ffffff; stroke: #ffffff; stroke-linejoin: miter"/>
    </g>
    <g clip-path="url(#paab8c69d13)">
     <!-- 6 -->
     <g transform="translate(362.923411 308.359495)rotate(-287.05145)scale(0.12 -0.12)">
      <use xlink:href="#DejaVuSans-36"/>
     </g>
    </g>
   </g>
   <g id="text_30">
    <g id="patch_77">
     <path d="M 417.228991 257.604666 
L 418.409894 250.061543 
Q 418.966704 246.504865 415.410026 245.948054 
L 403.936033 244.15176 
Q 400.379354 243.59495 399.822544 247.151628 
L 398.641641 254.69475 
Q 398.084831 258.251429 401.641509 258.808239 
L 413.115502 260.604534 
Q 416.672181 261.161344 417.228991 257.604666 
z
" clip-path="url(#paab8c69d13)" style="fill: #ffffff; stroke: #ffffff; stroke-linejoin: miter"/>
    </g>
    <g clip-path="url(#paab8c69d13)">
     <!-- 7 -->
     <g transform="translate(411.20672 256.661858)rotate(-81.102365)scale(0.12 -0.12)">
      <use xlink:href="#DejaVuSans-37"/>
     </g>
    </g>
   </g>
   <g id="text_31">
    <g id="patch_78">
     <path d="M 499.738159 363.039737 
L 507.157135 361.2364 
Q 510.655277 360.386103 509.80498 356.887961 
L 507.061888 345.60281 
Q 506.211591 342.104669 502.713449 342.954965 
L 495.294474 344.758303 
Q 491.796332 345.608599 492.646628 349.106741 
L 495.389721 360.391892 
Q 496.240018 363.890034 499.738159 363.039737 
z
" clip-path="url(#paab8c69d13)" style="fill: #ffffff; stroke: #ffffff; stroke-linejoin: miter"/>
    </g>
    <g clip-path="url(#paab8c69d13)">
     <!-- 3 -->
     <g transform="translate(498.298412 357.116582)rotate(-13.661987)scale(0.12 -0.12)">
      <use xlink:href="#DejaVuSans-33"/>
     </g>
    </g>
   </g>
   <g id="text_32">
    <g id="patch_79">
     <path d="M 412.276207 320.670593 
L 419.891948 321.21255 
Q 423.482867 321.468089 423.738407 317.87717 
L 424.562789 306.292716 
Q 424.818328 302.701797 421.227409 302.446257 
L 413.611669 301.9043 
Q 410.020749 301.64876 409.76521 305.239679 
L 408.940828 316.824134 
Q 408.685288 320.415053 412.276207 320.670593 
z
" clip-path="url(#paab8c69d13)" style="fill: #ffffff; stroke: #ffffff; stroke-linejoin: miter"/>
    </g>
    <g clip-path="url(#paab8c69d13)">
     <!-- 6 -->
     <g transform="translate(412.708895 314.590344)rotate(-355.929536)scale(0.12 -0.12)">
      <use xlink:href="#DejaVuSans-36"/>
     </g>
    </g>
   </g>
   <g id="text_33">
    <g id="patch_80">
     <path d="M 598.996332 254.002341 
L 599.585095 261.614606 
Q 599.862704 265.203886 603.451984 264.926277 
L 615.031152 264.030699 
Q 618.620432 263.75309 618.342823 260.16381 
L 617.754061 252.551544 
Q 617.476452 248.962264 613.887172 249.239873 
L 602.308004 250.135451 
Q 598.718723 250.41306 598.996332 254.002341 
z
" clip-path="url(#paab8c69d13)" style="fill: #ffffff; stroke: #ffffff; stroke-linejoin: miter"/>
    </g>
    <g clip-path="url(#paab8c69d13)">
     <!-- 8 -->
     <g transform="translate(605.073807 253.532285)rotate(-274.422676)scale(0.12 -0.12)">
      <use xlink:href="#DejaVuSans-38"/>
     </g>
    </g>
   </g>
   <g id="text_34">
    <g id="patch_81">
     <path d="M 601.512978 396.84401 
L 603.794666 389.557919 
Q 604.870512 386.122434 601.435026 385.046589 
L 590.352009 381.575868 
Q 586.916524 380.500023 585.840679 383.935508 
L 583.55899 391.221599 
Q 582.483145 394.657085 585.91863 395.73293 
L 597.001648 399.20365 
Q 600.437133 400.279495 601.512978 396.84401 
z
" clip-path="url(#paab8c69d13)" style="fill: #ffffff; stroke: #ffffff; stroke-linejoin: miter"/>
    </g>
    <g clip-path="url(#paab8c69d13)">
     <!-- 6 -->
     <g transform="translate(595.695915 395.022358)rotate(-72.611705)scale(0.12 -0.12)">
      <use xlink:href="#DejaVuSans-36"/>
     </g>
    </g>
   </g>
   <g id="text_35">
    <g id="patch_82">
     <path d="M 473.497347 291.470333 
L 480.783582 293.751561 
Q 484.219135 294.827189 485.294763 291.391636 
L 488.764785 280.3084 
Q 489.840413 276.872847 486.40486 275.797218 
L 479.118625 273.51599 
Q 475.683072 272.440362 474.607444 275.875915 
L 471.137422 286.959151 
Q 470.061794 290.394704 473.497347 291.470333 
z
" clip-path="url(#paab8c69d13)" style="fill: #ffffff; stroke: #ffffff; stroke-linejoin: miter"/>
    </g>
    <g clip-path="url(#paab8c69d13)">
     <!-- 6 -->
     <g transform="translate(475.318632 285.653154)rotate(-342.61532)scale(0.12 -0.12)">
      <use xlink:href="#DejaVuSans-36"/>
     </g>
    </g>
   </g>
   <g id="text_36">
    <g id="patch_83">
     <path d="M 511.763384 228.539932 
L 516.93665 234.155139 
Q 519.375911 236.802781 522.023552 234.36352 
L 530.564955 226.494363 
Q 533.212597 224.055102 530.773336 221.40746 
L 525.60007 215.792253 
Q 523.160809 213.144612 520.513168 215.583873 
L 511.971765 223.45303 
Q 509.324123 225.892291 511.763384 228.539932 
z
" clip-path="url(#paab8c69d13)" style="fill: #ffffff; stroke: #ffffff; stroke-linejoin: miter"/>
    </g>
    <g clip-path="url(#paab8c69d13)">
     <!-- 5 -->
     <g transform="translate(516.246448 224.409705)rotate(-312.654236)scale(0.12 -0.12)">
      <use xlink:href="#DejaVuSans-35"/>
     </g>
    </g>
   </g>
   <g id="text_37">
    <g id="patch_84">
     <path d="M 473.868139 425.08344 
L 480.946129 427.946178 
Q 484.283492 429.295996 485.63331 425.958633 
L 489.987879 415.192161 
Q 491.337696 411.854798 488.000333 410.50498 
L 480.922343 407.642242 
Q 477.58498 406.292424 476.235162 409.629787 
L 471.880593 420.396259 
Q 470.530776 423.733622 473.868139 425.08344 
z
" clip-path="url(#paab8c69d13)" style="fill: #ffffff; stroke: #ffffff; stroke-linejoin: miter"/>
    </g>
    <g clip-path="url(#paab8c69d13)">
     <!-- 6 -->
     <g transform="translate(476.153689 419.432519)rotate(-337.978815)scale(0.12 -0.12)">
      <use xlink:href="#DejaVuSans-36"/>
     </g>
    </g>
   </g>
   <g id="text_38">
    <g id="patch_85">
     <path d="M 389.144693 383.394131 
L 396.118744 386.501514 
Q 399.407099 387.966684 400.872269 384.67833 
L 405.598971 374.069962 
Q 407.064142 370.781607 403.775788 369.316437 
L 396.801736 366.209054 
Q 393.513382 364.743883 392.048211 368.032237 
L 387.321509 378.640606 
Q 385.856338 381.92896 389.144693 383.394131 
z
" clip-path="url(#paab8c69d13)" style="fill: #ffffff; stroke: #ffffff; stroke-linejoin: miter"/>
    </g>
    <g clip-path="url(#paab8c69d13)">
     <!-- 3 -->
     <g transform="translate(391.625562 377.826193)rotate(-335.983991)scale(0.12 -0.12)">
      <use xlink:href="#DejaVuSans-33"/>
     </g>
    </g>
   </g>
   <g id="text_39">
    <g id="patch_86">
     <path d="M 597.299292 326.724862 
L 598.152606 319.137696 
Q 598.554955 315.560251 594.977509 315.157902 
L 583.436521 313.859909 
Q 579.859076 313.457561 579.456727 317.035006 
L 578.603413 324.622172 
Q 578.201065 328.199617 581.77851 328.601966 
L 593.319498 329.899959 
Q 596.896944 330.302307 597.299292 326.724862 
z
" clip-path="url(#paab8c69d13)" style="fill: #ffffff; stroke: #ffffff; stroke-linejoin: miter"/>
    </g>
    <g clip-path="url(#paab8c69d13)">
     <!-- 9 -->
     <g transform="translate(591.241857 326.043594)rotate(-83.583018)scale(0.12 -0.12)">
      <use xlink:href="#DejaVuSans-39"/>
     </g>
    </g>
   </g>
   <g id="text_40">
    <g id="patch_87">
     <path d="M 601.512978 396.84401 
L 603.794666 389.557919 
Q 604.870512 386.122434 601.435026 385.046589 
L 590.352009 381.575868 
Q 586.916524 380.500023 585.840679 383.935508 
L 583.55899 391.221599 
Q 582.483145 394.657085 585.91863 395.73293 
L 597.001648 399.20365 
Q 600.437133 400.279495 601.512978 396.84401 
z
" clip-path="url(#paab8c69d13)" style="fill: #ffffff; stroke: #ffffff; stroke-linejoin: miter"/>
    </g>
    <g clip-path="url(#paab8c69d13)">
     <!-- 9 -->
     <g transform="translate(595.695915 395.022358)rotate(-72.611705)scale(0.12 -0.12)">
      <use xlink:href="#DejaVuSans-39"/>
     </g>
    </g>
   </g>
   <g id="text_41">
    <g id="patch_88">
     <path d="M 450.438034 352.676398 
L 456.004676 357.901886 
Q 458.629419 360.36577 461.093303 357.741027 
L 469.041896 349.273497 
Q 471.50578 346.648754 468.881037 344.18487 
L 463.314395 338.959383 
Q 460.689652 336.495499 458.225768 339.120242 
L 450.277175 347.587771 
Q 447.813291 350.212514 450.438034 352.676398 
z
" clip-path="url(#paab8c69d13)" style="fill: #ffffff; stroke: #ffffff; stroke-linejoin: miter"/>
    </g>
    <g clip-path="url(#paab8c69d13)">
     <!-- 4 -->
     <g transform="translate(454.609954 348.232107)rotate(-316.810598)scale(0.12 -0.12)">
      <use xlink:href="#DejaVuSans-34"/>
     </g>
    </g>
   </g>
   <g id="text_42">
    <g id="patch_89">
     <path d="M 417.228991 257.604666 
L 418.409894 250.061543 
Q 418.966704 246.504865 415.410026 245.948054 
L 403.936033 244.15176 
Q 400.379354 243.59495 399.822544 247.151628 
L 398.641641 254.69475 
Q 398.084831 258.251429 401.641509 258.808239 
L 413.115502 260.604534 
Q 416.672181 261.161344 417.228991 257.604666 
z
" clip-path="url(#paab8c69d13)" style="fill: #ffffff; stroke: #ffffff; stroke-linejoin: miter"/>
    </g>
    <g clip-path="url(#paab8c69d13)">
     <!-- 3 -->
     <g transform="translate(411.20672 256.661858)rotate(-81.102365)scale(0.12 -0.12)">
      <use xlink:href="#DejaVuSans-33"/>
     </g>
    </g>
   </g>
   <g id="text_43">
    <g id="patch_90">
     <path d="M 327.113161 220.618606 
L 332.992682 215.74783 
Q 335.764951 213.451196 333.468318 210.678927 
L 326.059284 201.735471 
Q 323.762651 198.963202 320.990382 201.259835 
L 315.110861 206.130611 
Q 312.338592 208.427245 314.635225 211.199514 
L 322.044259 220.14297 
Q 324.340892 222.915239 327.113161 220.618606 
z
" clip-path="url(#paab8c69d13)" style="fill: #ffffff; stroke: #ffffff; stroke-linejoin: miter"/>
    </g>
    <g clip-path="url(#paab8c69d13)">
     <!-- 9 -->
     <g transform="translate(323.224435 215.924519)rotate(-39.639397)scale(0.12 -0.12)">
      <use xlink:href="#DejaVuSans-39"/>
     </g>
    </g>
   </g>
   <g id="text_44">
    <g id="patch_91">
     <path d="M 509.142302 163.977286 
L 516.308971 166.61017 
Q 519.688147 167.851609 520.929585 164.472433 
L 524.934518 153.57107 
Q 526.175956 150.191894 522.79678 148.950456 
L 515.630111 146.317571 
Q 512.250935 145.076133 511.009497 148.455309 
L 507.004564 159.356671 
Q 505.763126 162.735847 509.142302 163.977286 
z
" clip-path="url(#paab8c69d13)" style="fill: #ffffff; stroke: #ffffff; stroke-linejoin: miter"/>
    </g>
    <g clip-path="url(#paab8c69d13)">
     <!-- 8 -->
     <g transform="translate(511.244342 158.255567)rotate(-339.827724)scale(0.12 -0.12)">
      <use xlink:href="#DejaVuSans-38"/>
     </g>
    </g>
   </g>
   <g id="text_45">
    <g id="patch_92">
     <path d="M 511.763384 228.539932 
L 516.93665 234.155139 
Q 519.375911 236.802781 522.023552 234.36352 
L 530.564955 226.494363 
Q 533.212597 224.055102 530.773336 221.40746 
L 525.60007 215.792253 
Q 523.160809 213.144612 520.513168 215.583873 
L 511.971765 223.45303 
Q 509.324123 225.892291 511.763384 228.539932 
z
" clip-path="url(#paab8c69d13)" style="fill: #ffffff; stroke: #ffffff; stroke-linejoin: miter"/>
    </g>
    <g clip-path="url(#paab8c69d13)">
     <!-- 3 -->
     <g transform="translate(516.246448 224.409705)rotate(-312.654236)scale(0.12 -0.12)">
      <use xlink:href="#DejaVuSans-33"/>
     </g>
    </g>
   </g>
   <g id="text_46">
    <g id="patch_93">
     <path d="M 392.743432 191.552518 
L 397.140024 185.310466 
Q 399.213073 182.36726 396.269866 180.29421 
L 386.774958 173.606467 
Q 383.831751 171.533418 381.758702 174.476625 
L 377.36211 180.718676 
Q 375.289061 183.661883 378.232268 185.734932 
L 387.727176 192.422675 
Q 390.670383 194.495725 392.743432 191.552518 
z
" clip-path="url(#paab8c69d13)" style="fill: #ffffff; stroke: #ffffff; stroke-linejoin: miter"/>
    </g>
    <g clip-path="url(#paab8c69d13)">
     <!-- 7 -->
     <g transform="translate(387.759908 188.04237)rotate(-54.841029)scale(0.12 -0.12)">
      <use xlink:href="#DejaVuSans-37"/>
     </g>
    </g>
   </g>
   <g id="PathCollection_1">
    <defs>
     <path id="C0_0_815b719ee8" d="M 0 14.142136 
C 3.750538 14.142136 7.347969 12.652031 10 10 
C 12.652031 7.347969 14.142136 3.750538 14.142136 -0 
C 14.142136 -3.750538 12.652031 -7.347969 10 -10 
C 7.347969 -12.652031 3.750538 -14.142136 0 -14.142136 
C -3.750538 -14.142136 -7.347969 -12.652031 -10 -10 
C -12.652031 -7.347969 -14.142136 -3.750538 -14.142136 0 
C -14.142136 3.750538 -12.652031 7.347969 -10 10 
C -7.347969 12.652031 -3.750538 14.142136 0 14.142136 
z
"/>
    </defs>
    <g clip-path="url(#paab8c69d13)">
     <use xlink:href="#C0_0_815b719ee8" x="141.743603" y="103.302982" style="fill: #ee82ee; stroke: #ee82ee"/>
    </g>
    <g clip-path="url(#paab8c69d13)">
     <use xlink:href="#C0_0_815b719ee8" x="219.53522" y="297.523949" style="fill: #00ff00; stroke: #00ff00"/>
    </g>
    <g clip-path="url(#paab8c69d13)">
     <use xlink:href="#C0_0_815b719ee8" x="603.370759" y="188.57325" style="fill: #00ff00; stroke: #00ff00"/>
    </g>
    <g clip-path="url(#paab8c69d13)">
     <use xlink:href="#C0_0_815b719ee8" x="345.933811" y="241.67465" style="fill: #00bfff; stroke: #00bfff"/>
    </g>
    <g clip-path="url(#paab8c69d13)">
     <use xlink:href="#C0_0_815b719ee8" x="388.483212" y="380.401802" style="fill: #00ff00; stroke: #00ff00"/>
    </g>
    <g clip-path="url(#paab8c69d13)">
     <use xlink:href="#C0_0_815b719ee8" x="613.968397" y="325.592901" style="fill: #00bfff; stroke: #00bfff"/>
    </g>
    <g clip-path="url(#paab8c69d13)">
     <use xlink:href="#C0_0_815b719ee8" x="573.38526" y="455.186618" style="fill: #00bfff; stroke: #00bfff"/>
    </g>
    <g clip-path="url(#paab8c69d13)">
     <use xlink:href="#C0_0_815b719ee8" x="428.568323" y="124.354492" style="fill: #00bfff; stroke: #00bfff"/>
    </g>
   </g>
   <g id="text_47">
    <g clip-path="url(#paab8c69d13)">
     <!-- 0 -->
     <g transform="translate(135.381103 108.821732)scale(0.2 -0.2)">
      <defs>
       <path id="DejaVuSans-30" d="M 2034 4250 
Q 1547 4250 1301 3770 
Q 1056 3291 1056 2328 
Q 1056 1369 1301 889 
Q 1547 409 2034 409 
Q 2525 409 2770 889 
Q 3016 1369 3016 2328 
Q 3016 3291 2770 3770 
Q 2525 4250 2034 4250 
z
M 2034 4750 
Q 2819 4750 3233 4129 
Q 3647 3509 3647 2328 
Q 3647 1150 3233 529 
Q 2819 -91 2034 -91 
Q 1250 -91 836 529 
Q 422 1150 422 2328 
Q 422 3509 836 4129 
Q 1250 4750 2034 4750 
z
" transform="scale(0.015625)"/>
      </defs>
      <use xlink:href="#DejaVuSans-30"/>
     </g>
    </g>
   </g>
   <g id="text_48">
    <g clip-path="url(#paab8c69d13)">
     <!-- 2 -->
     <g transform="translate(213.17272 303.042699)scale(0.2 -0.2)">
      <use xlink:href="#DejaVuSans-32"/>
     </g>
    </g>
   </g>
   <g id="text_49">
    <g clip-path="url(#paab8c69d13)">
     <!-- 3 -->
     <g transform="translate(597.008259 194.092)scale(0.2 -0.2)">
      <use xlink:href="#DejaVuSans-33"/>
     </g>
    </g>
   </g>
   <g id="text_50">
    <g clip-path="url(#paab8c69d13)">
     <!-- 6 -->
     <g transform="translate(339.571311 247.1934)scale(0.2 -0.2)">
      <use xlink:href="#DejaVuSans-36"/>
     </g>
    </g>
   </g>
   <g id="text_51">
    <g clip-path="url(#paab8c69d13)">
     <!-- 1 -->
     <g transform="translate(382.120712 385.920552)scale(0.2 -0.2)">
      <use xlink:href="#DejaVuSans-31"/>
     </g>
    </g>
   </g>
   <g id="text_52">
    <g clip-path="url(#paab8c69d13)">
     <!-- 4 -->
     <g transform="translate(607.605897 331.111651)scale(0.2 -0.2)">
      <use xlink:href="#DejaVuSans-34"/>
     </g>
    </g>
   </g>
   <g id="text_53">
    <g clip-path="url(#paab8c69d13)">
     <!-- 5 -->
     <g transform="translate(567.02276 460.705368)scale(0.2 -0.2)">
      <use xlink:href="#DejaVuSans-35"/>
     </g>
    </g>
   </g>
   <g id="text_54">
    <g clip-path="url(#paab8c69d13)">
     <!-- 7 -->
     <g transform="translate(422.205823 129.873242)scale(0.2 -0.2)">
      <use xlink:href="#DejaVuSans-37"/>
     </g>
    </g>
   </g>
  </g>
 </g>
 <defs>
  <clipPath id="paab8c69d13">
   <rect x="92.16" y="66.3552" width="571.392" height="425.7792"/>
  </clipPath>
 </defs>
</svg>
