<?xml version="1.0" encoding="utf-8" standalone="no"?>
<!DOCTYPE svg PUBLIC "-//W3C//DTD SVG 1.1//EN"
  "http://www.w3.org/Graphics/SVG/1.1/DTD/svg11.dtd">
<svg xmlns:xlink="http://www.w3.org/1999/xlink" width="737.28pt" height="552.96pt" viewBox="0 0 737.28 552.96" xmlns="http://www.w3.org/2000/svg" version="1.1">
 <metadata>
  <rdf:RDF xmlns:dc="http://purl.org/dc/elements/1.1/" xmlns:cc="http://creativecommons.org/ns#" xmlns:rdf="http://www.w3.org/1999/02/22-rdf-syntax-ns#">
   <cc:Work>
    <dc:type rdf:resource="http://purl.org/dc/dcmitype/StillImage"/>
    <dc:date>2022-03-06T16:07:05.074403</dc:date>
    <dc:format>image/svg+xml</dc:format>
    <dc:creator>
     <cc:Agent>
      <dc:title>Matplotlib v3.5.1, https://matplotlib.org/</dc:title>
     </cc:Agent>
    </dc:creator>
   </cc:Work>
  </rdf:RDF>
 </metadata>
 <defs>
  <style type="text/css">*{stroke-linejoin: round; stroke-linecap: butt}</style>
 </defs>
 <g id="figure_1">
  <g id="patch_1">
   <path d="M 0 552.96 
L 737.28 552.96 
L 737.28 0 
L 0 0 
z
" style="fill: #ffffff"/>
  </g>
  <g id="axes_1">
   <g id="patch_2">
    <path d="M 147.872833 109.421763 
Q 230.967411 192.374698 312.479502 273.747842 
" clip-path="url(#p9a7ab93e69)" style="fill: none; stroke: #000000; stroke-width: 2; stroke-linecap: round"/>
    <path d="M 309.643838 265.264977 
L 312.479502 273.747842 
L 303.991811 270.926654 
" clip-path="url(#p9a7ab93e69)" style="fill: none; stroke: #000000; stroke-width: 2; stroke-linecap: round"/>
   </g>
   <g id="patch_3">
    <path d="M 314.061814 275.327458 
Q 230.967236 192.374523 149.455145 111.001379 
" clip-path="url(#p9a7ab93e69)" style="fill: none; stroke: #ff0000; stroke-width: 2; stroke-linecap: round"/>
    <path d="M 152.29081 119.484244 
L 149.455145 111.001379 
L 157.942836 113.822567 
" clip-path="url(#p9a7ab93e69)" style="fill: none; stroke: #ff0000; stroke-width: 2; stroke-linecap: round"/>
   </g>
   <g id="patch_4">
    <path d="M 316.500844 289.280317 
Q 283.359199 359.638084 251.170421 427.972971 
" clip-path="url(#p9a7ab93e69)" style="fill: none; stroke: #000000; stroke-width: 2; stroke-linecap: round"/>
    <path d="M 258.198139 422.440235 
L 251.170421 427.972971 
L 250.960862 419.031155 
" clip-path="url(#p9a7ab93e69)" style="fill: none; stroke: #000000; stroke-width: 2; stroke-linecap: round"/>
   </g>
   <g id="patch_5">
    <path d="M 328.55196 283.710909 
Q 445.925002 315.50303 561.139749 346.710546 
" clip-path="url(#p9a7ab93e69)" style="fill: none; stroke: #000000; stroke-width: 2; stroke-linecap: round"/>
    <path d="M 554.463769 340.758126 
L 561.139749 346.710546 
L 552.372225 348.479878 
" clip-path="url(#p9a7ab93e69)" style="fill: none; stroke: #000000; stroke-width: 2; stroke-linecap: round"/>
   </g>
   <g id="patch_6">
    <path d="M 327.643511 285.853639 
Q 467.078129 368.315488 604.588073 449.63908 
" clip-path="url(#p9a7ab93e69)" style="fill: none; stroke: #000000; stroke-width: 2; stroke-linecap: round"/>
    <path d="M 599.73832 442.123769 
L 604.588073 449.63908 
L 595.665972 449.009696 
" clip-path="url(#p9a7ab93e69)" style="fill: none; stroke: #000000; stroke-width: 2; stroke-linecap: round"/>
   </g>
   <g id="patch_7">
    <path d="M 328.318334 284.442766 
Q 386.014946 305.71547 441.613548 326.214639 
" clip-path="url(#p9a7ab93e69)" style="fill: none; stroke: #000000; stroke-width: 2; stroke-linecap: round"/>
    <path d="M 435.491222 319.694123 
L 441.613548 326.214639 
L 432.72374 327.20019 
" clip-path="url(#p9a7ab93e69)" style="fill: none; stroke: #000000; stroke-width: 2; stroke-linecap: round"/>
   </g>
   <g id="patch_8">
    <path d="M 254.883361 435.562974 
Q 409.089595 393.695752 561.137881 352.414416 
" clip-path="url(#p9a7ab93e69)" style="fill: none; stroke: #000000; stroke-width: 2; stroke-linecap: round"/>
    <path d="M 552.369309 350.650291 
L 561.137881 352.414416 
L 554.465438 358.370799 
" clip-path="url(#p9a7ab93e69)" style="fill: none; stroke: #000000; stroke-width: 2; stroke-linecap: round"/>
   </g>
   <g id="patch_9">
    <path d="M 254.19228 433.805009 
Q 349.178899 383.908387 442.185954 335.051633 
" clip-path="url(#p9a7ab93e69)" style="fill: none; stroke: #000000; stroke-width: 2; stroke-linecap: round"/>
    <path d="M 433.243478 335.230826 
L 442.185954 335.051633 
L 436.963823 342.31313 
" clip-path="url(#p9a7ab93e69)" style="fill: none; stroke: #000000; stroke-width: 2; stroke-linecap: round"/>
   </g>
   <g id="patch_10">
    <path d="M 250.216629 429.997816 
Q 283.358274 359.640048 315.547052 291.305161 
" clip-path="url(#p9a7ab93e69)" style="fill: none; stroke: #000000; stroke-width: 2; stroke-linecap: round"/>
    <path d="M 308.519334 296.837897 
L 315.547052 291.305161 
L 315.756611 300.246977 
" clip-path="url(#p9a7ab93e69)" style="fill: none; stroke: #000000; stroke-width: 2; stroke-linecap: round"/>
   </g>
   <g id="patch_11">
    <path d="M 563.298537 351.827794 
Q 409.092303 393.695016 257.044017 434.976352 
" clip-path="url(#p9a7ab93e69)" style="fill: none; stroke: #000000; stroke-width: 2; stroke-linecap: round"/>
    <path d="M 265.812589 436.740477 
L 257.044017 434.976352 
L 263.71646 429.019969 
" clip-path="url(#p9a7ab93e69)" style="fill: none; stroke: #000000; stroke-width: 2; stroke-linecap: round"/>
   </g>
   <g id="patch_12">
    <path d="M 574.87465 357.595068 
Q 592.811507 402.371684 609.916862 445.072583 
" clip-path="url(#p9a7ab93e69)" style="fill: none; stroke: #000000; stroke-width: 2; stroke-linecap: round"/>
    <path d="M 610.655146 436.158833 
L 609.916862 445.072583 
L 603.228833 439.133705 
" clip-path="url(#p9a7ab93e69)" style="fill: none; stroke: #000000; stroke-width: 2; stroke-linecap: round"/>
   </g>
   <g id="patch_13">
    <path d="M 563.109899 348.162743 
Q 511.745955 339.771161 462.588823 331.740116 
" clip-path="url(#p9a7ab93e69)" style="fill: none; stroke: #000000; stroke-width: 2; stroke-linecap: round"/>
    <path d="M 469.839199 336.977678 
L 462.588823 331.740116 
L 471.129097 329.082352 
" clip-path="url(#p9a7ab93e69)" style="fill: none; stroke: #000000; stroke-width: 2; stroke-linecap: round"/>
   </g>
   <g id="patch_14">
    <path d="M 563.294553 347.294205 
Q 445.921511 315.502084 330.706764 284.294568 
" clip-path="url(#p9a7ab93e69)" style="fill: none; stroke: #ff0000; stroke-width: 2; stroke-linecap: round"/>
    <path d="M 337.382744 290.246988 
L 330.706764 284.294568 
L 339.474287 282.525236 
" clip-path="url(#p9a7ab93e69)" style="fill: none; stroke: #ff0000; stroke-width: 2; stroke-linecap: round"/>
   </g>
   <g id="patch_15">
    <path d="M 444.168804 334.010039 
Q 349.182185 383.906661 256.17513 432.763415 
" clip-path="url(#p9a7ab93e69)" style="fill: none; stroke: #000000; stroke-width: 2; stroke-linecap: round"/>
    <path d="M 265.117607 432.584221 
L 256.17513 432.763415 
L 261.397261 425.501918 
" clip-path="url(#p9a7ab93e69)" style="fill: none; stroke: #000000; stroke-width: 2; stroke-linecap: round"/>
   </g>
   <g id="patch_16">
    <path d="M 460.380226 331.379287 
Q 511.744169 339.770869 560.901301 347.801913 
" clip-path="url(#p9a7ab93e69)" style="fill: none; stroke: #000000; stroke-width: 2; stroke-linecap: round"/>
    <path d="M 553.650925 342.564352 
L 560.901301 347.801913 
L 552.361027 350.459678 
" clip-path="url(#p9a7ab93e69)" style="fill: none; stroke: #000000; stroke-width: 2; stroke-linecap: round"/>
   </g>
   <g id="patch_17">
    <path d="M 458.690011 335.277021 
Q 532.901925 392.585194 605.344039 448.526688 
" clip-path="url(#p9a7ab93e69)" style="fill: none; stroke: #000000; stroke-width: 2; stroke-linecap: round"/>
    <path d="M 601.457007 440.471194 
L 605.344039 448.526688 
L 596.567425 446.803018 
" clip-path="url(#p9a7ab93e69)" style="fill: none; stroke: #000000; stroke-width: 2; stroke-linecap: round"/>
   </g>
   <g id="patch_18">
    <path d="M 443.707366 326.986628 
Q 386.010754 305.713924 330.412151 285.214755 
" clip-path="url(#p9a7ab93e69)" style="fill: none; stroke: #000000; stroke-width: 2; stroke-linecap: round"/>
    <path d="M 336.534477 291.735271 
L 330.412151 285.214755 
L 339.30196 284.229204 
" clip-path="url(#p9a7ab93e69)" style="fill: none; stroke: #000000; stroke-width: 2; stroke-linecap: round"/>
   </g>
   <g id="patch_19">
    <path d="M 607.113041 449.892752 
Q 532.901128 392.584579 460.459013 336.643085 
" clip-path="url(#p9a7ab93e69)" style="fill: none; stroke: #000000; stroke-width: 2; stroke-linecap: round"/>
    <path d="M 464.346045 344.698579 
L 460.459013 336.643085 
L 469.235627 338.366755 
" clip-path="url(#p9a7ab93e69)" style="fill: none; stroke: #000000; stroke-width: 2; stroke-linecap: round"/>
   </g>
   <g id="patch_20">
    <path d="M 606.51593 450.779218 
Q 467.081312 368.31737 329.571368 286.993777 
" clip-path="url(#p9a7ab93e69)" style="fill: none; stroke: #000000; stroke-width: 2; stroke-linecap: round"/>
    <path d="M 334.421121 294.509088 
L 329.571368 286.993777 
L 338.493468 287.623162 
" clip-path="url(#p9a7ab93e69)" style="fill: none; stroke: #000000; stroke-width: 2; stroke-linecap: round"/>
   </g>
   <g id="text_1">
    <g id="patch_21">
     <path d="M 221.619653 196.334871 
L 227.023017 201.729024 
Q 229.570772 204.272436 232.114184 201.724681 
L 240.319337 193.505517 
Q 242.862749 190.957762 240.314994 188.41435 
L 234.91163 183.020197 
Q 232.363875 180.476785 229.820463 183.02454 
L 221.61531 191.243704 
Q 219.071898 193.791459 221.619653 196.334871 
z
" clip-path="url(#p9a7ab93e69)" style="fill: #ffffff; stroke: #ffffff; stroke-linejoin: miter"/>
    </g>
    <g clip-path="url(#p9a7ab93e69)">
     <!-- 4 -->
     <g transform="translate(225.926233 192.020938)rotate(-315.048875)scale(0.12 -0.12)">
      <defs>
       <path id="DejaVuSans-34" d="M 2419 4116 
L 825 1625 
L 2419 1625 
L 2419 4116 
z
M 2253 4666 
L 3047 4666 
L 3047 1625 
L 3713 1625 
L 3713 1100 
L 3047 1100 
L 3047 0 
L 2419 0 
L 2419 1100 
L 313 1100 
L 313 1709 
L 2253 4666 
z
" transform="scale(0.015625)"/>
      </defs>
      <use xlink:href="#DejaVuSans-34"/>
     </g>
    </g>
   </g>
   <g id="text_2">
    <g id="patch_22">
     <path d="M 221.619653 196.334871 
L 227.023017 201.729024 
Q 229.570772 204.272436 232.114184 201.724681 
L 240.319337 193.505517 
Q 242.862749 190.957762 240.314994 188.41435 
L 234.91163 183.020197 
Q 232.363875 180.476785 229.820463 183.02454 
L 221.61531 191.243704 
Q 219.071898 193.791459 221.619653 196.334871 
z
" clip-path="url(#p9a7ab93e69)" style="fill: #ffffff; stroke: #ffffff; stroke-linejoin: miter"/>
    </g>
    <g clip-path="url(#p9a7ab93e69)">
     <!-- 7 -->
     <g transform="translate(225.926233 192.020938)rotate(-315.048875)scale(0.12 -0.12)">
      <defs>
       <path id="DejaVuSans-37" d="M 525 4666 
L 3525 4666 
L 3525 4397 
L 1831 0 
L 1172 0 
L 2766 4134 
L 525 4134 
L 525 4666 
z
" transform="scale(0.015625)"/>
      </defs>
      <use xlink:href="#DejaVuSans-37"/>
     </g>
    </g>
   </g>
   <g id="text_3">
    <g id="patch_23">
     <path d="M 290.241986 367.101203 
L 293.495526 360.194127 
Q 295.029612 356.937352 291.772838 355.403266 
L 281.266348 350.454241 
Q 278.009573 348.920155 276.475487 352.176929 
L 273.221947 359.084005 
Q 271.687861 362.34078 274.944635 363.874866 
L 285.451125 368.823891 
Q 288.7079 370.357977 290.241986 367.101203 
z
" clip-path="url(#p9a7ab93e69)" style="fill: #ffffff; stroke: #ffffff; stroke-linejoin: miter"/>
    </g>
    <g clip-path="url(#p9a7ab93e69)">
     <!-- 7 -->
     <g transform="translate(284.72752 364.503644)rotate(-64.777474)scale(0.12 -0.12)">
      <use xlink:href="#DejaVuSans-37"/>
     </g>
    </g>
   </g>
   <g id="text_4">
    <g id="patch_24">
     <path d="M 439.779172 323.584192 
L 447.148618 325.580309 
Q 450.623406 326.521504 451.564601 323.046716 
L 454.600934 311.836905 
Q 455.542129 308.362116 452.067341 307.420922 
L 444.697894 305.424805 
Q 441.223106 304.48361 440.281912 307.958398 
L 437.245578 319.168209 
Q 436.304384 322.642998 439.779172 323.584192 
z
" clip-path="url(#p9a7ab93e69)" style="fill: #ffffff; stroke: #ffffff; stroke-linejoin: miter"/>
    </g>
    <g clip-path="url(#p9a7ab93e69)">
     <!-- 3 -->
     <g transform="translate(441.37283 317.70058)rotate(-344.8443)scale(0.12 -0.12)">
      <defs>
       <path id="DejaVuSans-33" d="M 2597 2516 
Q 3050 2419 3304 2112 
Q 3559 1806 3559 1356 
Q 3559 666 3084 287 
Q 2609 -91 1734 -91 
Q 1441 -91 1130 -33 
Q 819 25 488 141 
L 488 750 
Q 750 597 1062 519 
Q 1375 441 1716 441 
Q 2309 441 2620 675 
Q 2931 909 2931 1356 
Q 2931 1769 2642 2001 
Q 2353 2234 1838 2234 
L 1294 2234 
L 1294 2753 
L 1863 2753 
Q 2328 2753 2575 2939 
Q 2822 3125 2822 3475 
Q 2822 3834 2567 4026 
Q 2313 4219 1838 4219 
Q 1578 4219 1281 4162 
Q 984 4106 628 3988 
L 628 4550 
Q 988 4650 1302 4700 
Q 1616 4750 1894 4750 
Q 2613 4750 3031 4423 
Q 3450 4097 3450 3541 
Q 3450 3153 3228 2886 
Q 3006 2619 2597 2516 
z
" transform="scale(0.015625)"/>
      </defs>
      <use xlink:href="#DejaVuSans-33"/>
     </g>
    </g>
   </g>
   <g id="text_5">
    <g id="patch_25">
     <path d="M 459.005334 374.470037 
L 465.57709 378.356583 
Q 468.675757 380.18914 470.508314 377.090473 
L 476.420217 367.094044 
Q 478.252773 363.995377 475.154107 362.162821 
L 468.58235 358.276274 
Q 465.483683 356.443718 463.651127 359.542384 
L 457.739224 369.538813 
Q 455.906667 372.63748 459.005334 374.470037 
z
" clip-path="url(#p9a7ab93e69)" style="fill: #ffffff; stroke: #ffffff; stroke-linejoin: miter"/>
    </g>
    <g clip-path="url(#p9a7ab93e69)">
     <!-- 5 -->
     <g transform="translate(462.108272 369.223283)rotate(-329.399865)scale(0.12 -0.12)">
      <defs>
       <path id="DejaVuSans-35" d="M 691 4666 
L 3169 4666 
L 3169 4134 
L 1269 4134 
L 1269 2991 
Q 1406 3038 1543 3061 
Q 1681 3084 1819 3084 
Q 2600 3084 3056 2656 
Q 3513 2228 3513 1497 
Q 3513 744 3044 326 
Q 2575 -91 1722 -91 
Q 1428 -91 1123 -41 
Q 819 9 494 109 
L 494 744 
Q 775 591 1075 516 
Q 1375 441 1709 441 
Q 2250 441 2565 725 
Q 2881 1009 2881 1497 
Q 2881 1984 2565 2268 
Q 2250 2553 1709 2553 
Q 1456 2553 1204 2497 
Q 953 2441 691 2322 
L 691 4666 
z
" transform="scale(0.015625)"/>
      </defs>
      <use xlink:href="#DejaVuSans-35"/>
     </g>
    </g>
   </g>
   <g id="text_6">
    <g id="patch_26">
     <path d="M 379.176879 313.220168 
L 386.340481 315.861384 
Q 389.718211 317.106751 390.963578 313.729021 
L 394.981184 302.832323 
Q 396.226551 299.454593 392.848821 298.209226 
L 385.685218 295.56801 
Q 382.307488 294.322643 381.062121 297.700373 
L 377.044515 308.597071 
Q 375.799148 311.974801 379.176879 313.220168 
z
" clip-path="url(#p9a7ab93e69)" style="fill: #ffffff; stroke: #ffffff; stroke-linejoin: miter"/>
    </g>
    <g clip-path="url(#p9a7ab93e69)">
     <!-- 6 -->
     <g transform="translate(381.28557 307.500897)rotate(-339.761102)scale(0.12 -0.12)">
      <defs>
       <path id="DejaVuSans-36" d="M 2113 2584 
Q 1688 2584 1439 2293 
Q 1191 2003 1191 1497 
Q 1191 994 1439 701 
Q 1688 409 2113 409 
Q 2538 409 2786 701 
Q 3034 994 3034 1497 
Q 3034 2003 2786 2293 
Q 2538 2584 2113 2584 
z
M 3366 4563 
L 3366 3988 
Q 3128 4100 2886 4159 
Q 2644 4219 2406 4219 
Q 1781 4219 1451 3797 
Q 1122 3375 1075 2522 
Q 1259 2794 1537 2939 
Q 1816 3084 2150 3084 
Q 2853 3084 3261 2657 
Q 3669 2231 3669 1497 
Q 3669 778 3244 343 
Q 2819 -91 2113 -91 
Q 1303 -91 875 529 
Q 447 1150 447 2328 
Q 447 3434 972 4092 
Q 1497 4750 2381 4750 
Q 2619 4750 2861 4703 
Q 3103 4656 3366 4563 
z
" transform="scale(0.015625)"/>
      </defs>
      <use xlink:href="#DejaVuSans-36"/>
     </g>
    </g>
   </g>
   <g id="text_7">
    <g id="patch_27">
     <path d="M 407.871572 403.773862 
L 415.239832 401.773369 
Q 418.714061 400.830111 417.770802 397.355882 
L 414.727812 386.147876 
Q 413.784554 382.673647 410.310325 383.616906 
L 402.942066 385.617399 
Q 399.467837 386.560657 400.411095 390.034886 
L 403.454086 401.242892 
Q 404.397344 404.71712 407.871572 403.773862 
z
" clip-path="url(#p9a7ab93e69)" style="fill: #ffffff; stroke: #ffffff; stroke-linejoin: miter"/>
    </g>
    <g clip-path="url(#p9a7ab93e69)">
     <!-- 2 -->
     <g transform="translate(406.27442 397.891197)rotate(-15.189728)scale(0.12 -0.12)">
      <defs>
       <path id="DejaVuSans-32" d="M 1228 531 
L 3431 531 
L 3431 0 
L 469 0 
L 469 531 
Q 828 903 1448 1529 
Q 2069 2156 2228 2338 
Q 2531 2678 2651 2914 
Q 2772 3150 2772 3378 
Q 2772 3750 2511 3984 
Q 2250 4219 1831 4219 
Q 1534 4219 1204 4116 
Q 875 4013 500 3803 
L 500 4441 
Q 881 4594 1212 4672 
Q 1544 4750 1819 4750 
Q 2544 4750 2975 4387 
Q 3406 4025 3406 3419 
Q 3406 3131 3298 2873 
Q 3191 2616 2906 2266 
Q 2828 2175 2409 1742 
Q 1991 1309 1228 531 
z
" transform="scale(0.015625)"/>
      </defs>
      <use xlink:href="#DejaVuSans-32"/>
     </g>
    </g>
   </g>
   <g id="text_8">
    <g id="patch_28">
     <path d="M 350.175559 394.01062 
L 356.934732 390.460015 
Q 360.121769 388.78586 358.447614 385.598823 
L 353.046718 375.317309 
Q 351.372563 372.130273 348.185526 373.804428 
L 341.426352 377.355033 
Q 338.239315 379.029188 339.913471 382.216225 
L 345.314366 392.497739 
Q 346.988522 395.684775 350.175559 394.01062 
z
" clip-path="url(#p9a7ab93e69)" style="fill: #ffffff; stroke: #ffffff; stroke-linejoin: miter"/>
    </g>
    <g clip-path="url(#p9a7ab93e69)">
     <!-- 3 -->
     <g transform="translate(347.34083 388.614236)rotate(-27.713017)scale(0.12 -0.12)">
      <use xlink:href="#DejaVuSans-33"/>
     </g>
    </g>
   </g>
   <g id="text_9">
    <g id="patch_29">
     <path d="M 290.241986 367.101203 
L 293.495526 360.194127 
Q 295.029612 356.937352 291.772838 355.403266 
L 281.266348 350.454241 
Q 278.009573 348.920155 276.475487 352.176929 
L 273.221947 359.084005 
Q 271.687861 362.34078 274.944635 363.874866 
L 285.451125 368.823891 
Q 288.7079 370.357977 290.241986 367.101203 
z
" clip-path="url(#p9a7ab93e69)" style="fill: #ffffff; stroke: #ffffff; stroke-linejoin: miter"/>
    </g>
    <g clip-path="url(#p9a7ab93e69)">
     <!-- 2 -->
     <g transform="translate(284.72752 364.503644)rotate(-64.777474)scale(0.12 -0.12)">
      <use xlink:href="#DejaVuSans-32"/>
     </g>
    </g>
   </g>
   <g id="text_10">
    <g id="patch_30">
     <path d="M 407.871572 403.773862 
L 415.239832 401.773369 
Q 418.714061 400.830111 417.770802 397.355882 
L 414.727812 386.147876 
Q 413.784554 382.673647 410.310325 383.616906 
L 402.942066 385.617399 
Q 399.467837 386.560657 400.411095 390.034886 
L 403.454086 401.242892 
Q 404.397344 404.71712 407.871572 403.773862 
z
" clip-path="url(#p9a7ab93e69)" style="fill: #ffffff; stroke: #ffffff; stroke-linejoin: miter"/>
    </g>
    <g clip-path="url(#p9a7ab93e69)">
     <!-- 4 -->
     <g transform="translate(406.27442 397.891197)rotate(-15.189728)scale(0.12 -0.12)">
      <use xlink:href="#DejaVuSans-34"/>
     </g>
    </g>
   </g>
   <g id="text_11">
    <g id="patch_31">
     <path d="M 582.66006 402.327034 
L 585.499204 409.414522 
Q 586.837897 412.756363 590.179738 411.417671 
L 600.960657 407.098993 
Q 604.302498 405.7603 602.963805 402.418459 
L 600.124661 395.330971 
Q 598.785969 391.98913 595.444127 393.327822 
L 584.663209 397.646501 
Q 581.321368 398.985193 582.66006 402.327034 
z
" clip-path="url(#p9a7ab93e69)" style="fill: #ffffff; stroke: #ffffff; stroke-linejoin: miter"/>
    </g>
    <g clip-path="url(#p9a7ab93e69)">
     <!-- 3 -->
     <g transform="translate(588.318563 400.060321)rotate(-291.830316)scale(0.12 -0.12)">
      <use xlink:href="#DejaVuSans-33"/>
     </g>
    </g>
   </g>
   <g id="text_12">
    <g id="patch_32">
     <path d="M 506.460772 348.439284 
L 513.995874 349.670331 
Q 517.54877 350.250785 518.129224 346.697888 
L 520.001794 335.236097 
Q 520.582248 331.6832 517.029352 331.102746 
L 509.494251 329.871699 
Q 505.941354 329.291245 505.3609 332.844141 
L 503.48833 344.305933 
Q 502.907876 347.858829 506.460772 348.439284 
z
" clip-path="url(#p9a7ab93e69)" style="fill: #ffffff; stroke: #ffffff; stroke-linejoin: miter"/>
    </g>
    <g clip-path="url(#p9a7ab93e69)">
     <!-- 3 -->
     <g transform="translate(507.443615 342.423416)rotate(-350.721279)scale(0.12 -0.12)">
      <use xlink:href="#DejaVuSans-33"/>
     </g>
    </g>
   </g>
   <g id="text_13">
    <g id="patch_33">
     <path d="M 439.779172 323.584192 
L 447.148618 325.580309 
Q 450.623406 326.521504 451.564601 323.046716 
L 454.600934 311.836905 
Q 455.542129 308.362116 452.067341 307.420922 
L 444.697894 305.424805 
Q 441.223106 304.48361 440.281912 307.958398 
L 437.245578 319.168209 
Q 436.304384 322.642998 439.779172 323.584192 
z
" clip-path="url(#p9a7ab93e69)" style="fill: #ffffff; stroke: #ffffff; stroke-linejoin: miter"/>
    </g>
    <g clip-path="url(#p9a7ab93e69)">
     <!-- 6 -->
     <g transform="translate(441.37283 317.70058)rotate(-344.8443)scale(0.12 -0.12)">
      <use xlink:href="#DejaVuSans-36"/>
     </g>
    </g>
   </g>
   <g id="text_14">
    <g id="patch_34">
     <path d="M 350.175559 394.01062 
L 356.934732 390.460015 
Q 360.121769 388.78586 358.447614 385.598823 
L 353.046718 375.317309 
Q 351.372563 372.130273 348.185526 373.804428 
L 341.426352 377.355033 
Q 338.239315 379.029188 339.913471 382.216225 
L 345.314366 392.497739 
Q 346.988522 395.684775 350.175559 394.01062 
z
" clip-path="url(#p9a7ab93e69)" style="fill: #ffffff; stroke: #ffffff; stroke-linejoin: miter"/>
    </g>
    <g clip-path="url(#p9a7ab93e69)">
     <!-- 5 -->
     <g transform="translate(347.34083 388.614236)rotate(-27.713017)scale(0.12 -0.12)">
      <use xlink:href="#DejaVuSans-35"/>
     </g>
    </g>
   </g>
   <g id="text_15">
    <g id="patch_35">
     <path d="M 506.460772 348.439284 
L 513.995874 349.670331 
Q 517.54877 350.250785 518.129224 346.697888 
L 520.001794 335.236097 
Q 520.582248 331.6832 517.029352 331.102746 
L 509.494251 329.871699 
Q 505.941354 329.291245 505.3609 332.844141 
L 503.48833 344.305933 
Q 502.907876 347.858829 506.460772 348.439284 
z
" clip-path="url(#p9a7ab93e69)" style="fill: #ffffff; stroke: #ffffff; stroke-linejoin: miter"/>
    </g>
    <g clip-path="url(#p9a7ab93e69)">
     <!-- 7 -->
     <g transform="translate(507.443615 342.423416)rotate(-350.721279)scale(0.12 -0.12)">
      <use xlink:href="#DejaVuSans-37"/>
     </g>
    </g>
   </g>
   <g id="text_16">
    <g id="patch_36">
     <path d="M 524.130598 397.696973 
L 530.173532 402.363468 
Q 533.022853 404.56378 535.223165 401.714459 
L 542.321463 392.522432 
Q 544.521774 389.673112 541.672454 387.4728 
L 535.62952 382.806305 
Q 532.780199 380.605993 530.579887 383.455314 
L 523.48159 392.647341 
Q 521.281278 395.496661 524.130598 397.696973 
z
" clip-path="url(#p9a7ab93e69)" style="fill: #ffffff; stroke: #ffffff; stroke-linejoin: miter"/>
    </g>
    <g clip-path="url(#p9a7ab93e69)">
     <!-- 3 -->
     <g transform="translate(527.856231 392.87242)rotate(-322.323841)scale(0.12 -0.12)">
      <use xlink:href="#DejaVuSans-33"/>
     </g>
    </g>
   </g>
   <g id="text_17">
    <g id="patch_37">
     <path d="M 379.176879 313.220168 
L 386.340481 315.861384 
Q 389.718211 317.106751 390.963578 313.729021 
L 394.981184 302.832323 
Q 396.226551 299.454593 392.848821 298.209226 
L 385.685218 295.56801 
Q 382.307488 294.322643 381.062121 297.700373 
L 377.044515 308.597071 
Q 375.799148 311.974801 379.176879 313.220168 
z
" clip-path="url(#p9a7ab93e69)" style="fill: #ffffff; stroke: #ffffff; stroke-linejoin: miter"/>
    </g>
    <g clip-path="url(#p9a7ab93e69)">
     <!-- 7 -->
     <g transform="translate(381.28557 307.500897)rotate(-339.761102)scale(0.12 -0.12)">
      <use xlink:href="#DejaVuSans-37"/>
     </g>
    </g>
   </g>
   <g id="text_18">
    <g id="patch_38">
     <path d="M 524.130598 397.696973 
L 530.173532 402.363468 
Q 533.022853 404.56378 535.223165 401.714459 
L 542.321463 392.522432 
Q 544.521774 389.673112 541.672454 387.4728 
L 535.62952 382.806305 
Q 532.780199 380.605993 530.579887 383.455314 
L 523.48159 392.647341 
Q 521.281278 395.496661 524.130598 397.696973 
z
" clip-path="url(#p9a7ab93e69)" style="fill: #ffffff; stroke: #ffffff; stroke-linejoin: miter"/>
    </g>
    <g clip-path="url(#p9a7ab93e69)">
     <!-- 1 -->
     <g transform="translate(527.856231 392.87242)rotate(-322.323841)scale(0.12 -0.12)">
      <defs>
       <path id="DejaVuSans-31" d="M 794 531 
L 1825 531 
L 1825 4091 
L 703 3866 
L 703 4441 
L 1819 4666 
L 2450 4666 
L 2450 531 
L 3481 531 
L 3481 0 
L 794 0 
L 794 531 
z
" transform="scale(0.015625)"/>
      </defs>
      <use xlink:href="#DejaVuSans-31"/>
     </g>
    </g>
   </g>
   <g id="text_19">
    <g id="patch_39">
     <path d="M 459.005334 374.470037 
L 465.57709 378.356583 
Q 468.675757 380.18914 470.508314 377.090473 
L 476.420217 367.094044 
Q 478.252773 363.995377 475.154107 362.162821 
L 468.58235 358.276274 
Q 465.483683 356.443718 463.651127 359.542384 
L 457.739224 369.538813 
Q 455.906667 372.63748 459.005334 374.470037 
z
" clip-path="url(#p9a7ab93e69)" style="fill: #ffffff; stroke: #ffffff; stroke-linejoin: miter"/>
    </g>
    <g clip-path="url(#p9a7ab93e69)">
     <!-- 4 -->
     <g transform="translate(462.108272 369.223283)rotate(-329.399865)scale(0.12 -0.12)">
      <use xlink:href="#DejaVuSans-34"/>
     </g>
    </g>
   </g>
   <g id="PathCollection_1">
    <defs>
     <path id="C0_0_dd491bccf9" d="M 0 14.142136 
C 3.750538 14.142136 7.347969 12.652031 10 10 
C 12.652031 7.347969 14.142136 3.750538 14.142136 -0 
C 14.142136 -3.750538 12.652031 -7.347969 10 -10 
C 7.347969 -12.652031 3.750538 -14.142136 0 -14.142136 
C -3.750538 -14.142136 -7.347969 -12.652031 -10 -10 
C -12.652031 -7.347969 -14.142136 -3.750538 -14.142136 0 
C -14.142136 3.750538 -12.652031 7.347969 -10 10 
C -7.347969 12.652031 -3.750538 14.142136 0 14.142136 
z
"/>
    </defs>
    <g clip-path="url(#p9a7ab93e69)">
     <use xlink:href="#C0_0_dd491bccf9" x="141.743603" y="103.302982" style="fill: #00ff00; stroke: #00ff00"/>
    </g>
    <g clip-path="url(#p9a7ab93e69)">
     <use xlink:href="#C0_0_dd491bccf9" x="320.191044" y="281.446239" style="fill: #00ff00; stroke: #00ff00"/>
    </g>
    <g clip-path="url(#p9a7ab93e69)">
     <use xlink:href="#C0_0_dd491bccf9" x="246.526429" y="437.831893" style="fill: #00bfff; stroke: #00bfff"/>
    </g>
    <g clip-path="url(#p9a7ab93e69)">
     <use xlink:href="#C0_0_dd491bccf9" x="571.655469" y="349.558875" style="fill: #00ff00; stroke: #00ff00"/>
    </g>
    <g clip-path="url(#p9a7ab93e69)">
     <use xlink:href="#C0_0_dd491bccf9" x="451.834655" y="329.983155" style="fill: #00bfff; stroke: #00bfff"/>
    </g>
    <g clip-path="url(#p9a7ab93e69)">
     <use xlink:href="#C0_0_dd491bccf9" x="613.968397" y="455.186618" style="fill: #00bfff; stroke: #00bfff"/>
    </g>
   </g>
   <g id="text_20">
    <g clip-path="url(#p9a7ab93e69)">
     <!-- 0 -->
     <g transform="translate(135.381103 108.821732)scale(0.2 -0.2)">
      <defs>
       <path id="DejaVuSans-30" d="M 2034 4250 
Q 1547 4250 1301 3770 
Q 1056 3291 1056 2328 
Q 1056 1369 1301 889 
Q 1547 409 2034 409 
Q 2525 409 2770 889 
Q 3016 1369 3016 2328 
Q 3016 3291 2770 3770 
Q 2525 4250 2034 4250 
z
M 2034 4750 
Q 2819 4750 3233 4129 
Q 3647 3509 3647 2328 
Q 3647 1150 3233 529 
Q 2819 -91 2034 -91 
Q 1250 -91 836 529 
Q 422 1150 422 2328 
Q 422 3509 836 4129 
Q 1250 4750 2034 4750 
z
" transform="scale(0.015625)"/>
      </defs>
      <use xlink:href="#DejaVuSans-30"/>
     </g>
    </g>
   </g>
   <g id="text_21">
    <g clip-path="url(#p9a7ab93e69)">
     <!-- 5 -->
     <g transform="translate(313.828544 286.964989)scale(0.2 -0.2)">
      <use xlink:href="#DejaVuSans-35"/>
     </g>
    </g>
   </g>
   <g id="text_22">
    <g clip-path="url(#p9a7ab93e69)">
     <!-- 1 -->
     <g transform="translate(240.163929 443.350643)scale(0.2 -0.2)">
      <use xlink:href="#DejaVuSans-31"/>
     </g>
    </g>
   </g>
   <g id="text_23">
    <g clip-path="url(#p9a7ab93e69)">
     <!-- 2 -->
     <g transform="translate(565.292969 355.077625)scale(0.2 -0.2)">
      <use xlink:href="#DejaVuSans-32"/>
     </g>
    </g>
   </g>
   <g id="text_24">
    <g clip-path="url(#p9a7ab93e69)">
     <!-- 4 -->
     <g transform="translate(445.472155 335.501905)scale(0.2 -0.2)">
      <use xlink:href="#DejaVuSans-34"/>
     </g>
    </g>
   </g>
   <g id="text_25">
    <g clip-path="url(#p9a7ab93e69)">
     <!-- 3 -->
     <g transform="translate(607.605897 460.705368)scale(0.2 -0.2)">
      <use xlink:href="#DejaVuSans-33"/>
     </g>
    </g>
   </g>
  </g>
 </g>
 <defs>
  <clipPath id="p9a7ab93e69">
   <rect x="92.16" y="66.3552" width="571.392" height="425.7792"/>
  </clipPath>
 </defs>
</svg>
