<?xml version="1.0" encoding="utf-8" standalone="no"?>
<!DOCTYPE svg PUBLIC "-//W3C//DTD SVG 1.1//EN"
  "http://www.w3.org/Graphics/SVG/1.1/DTD/svg11.dtd">
<svg xmlns:xlink="http://www.w3.org/1999/xlink" width="737.28pt" height="552.96pt" viewBox="0 0 737.28 552.96" xmlns="http://www.w3.org/2000/svg" version="1.1">
 <metadata>
  <rdf:RDF xmlns:dc="http://purl.org/dc/elements/1.1/" xmlns:cc="http://creativecommons.org/ns#" xmlns:rdf="http://www.w3.org/1999/02/22-rdf-syntax-ns#">
   <cc:Work>
    <dc:type rdf:resource="http://purl.org/dc/dcmitype/StillImage"/>
    <dc:date>2022-03-05T14:29:49.241743</dc:date>
    <dc:format>image/svg+xml</dc:format>
    <dc:creator>
     <cc:Agent>
      <dc:title>Matplotlib v3.5.1, https://matplotlib.org/</dc:title>
     </cc:Agent>
    </dc:creator>
   </cc:Work>
  </rdf:RDF>
 </metadata>
 <defs>
  <style type="text/css">*{stroke-linejoin: round; stroke-linecap: butt}</style>
 </defs>
 <g id="figure_1">
  <g id="patch_1">
   <path d="M 0 552.96 
L 737.28 552.96 
L 737.28 0 
L 0 0 
z
" style="fill: #ffffff"/>
  </g>
  <g id="axes_1">
   <g id="patch_2">
    <path d="M 433.983645 331.554838 
Q 405.751773 221.623999 378.076107 113.858947 
" clip-path="url(#p56edee7500)" style="fill: none; stroke: #000000; stroke-width: 2; stroke-linecap: round"/>
    <path d="M 376.191773 122.602476 
L 378.076107 113.858947 
L 383.940329 120.612531 
" clip-path="url(#p56edee7500)" style="fill: none; stroke: #000000; stroke-width: 2; stroke-linecap: round"/>
   </g>
   <g id="patch_3">
    <path d="M 442.278405 333.837477 
Q 525.051707 251.539585 606.239323 170.818272 
" clip-path="url(#p56edee7500)" style="fill: none; stroke: #000000; stroke-width: 2; stroke-linecap: round"/>
    <path d="M 597.745931 173.62225 
L 606.239323 170.818272 
L 603.38647 179.295372 
" clip-path="url(#p56edee7500)" style="fill: none; stroke: #000000; stroke-width: 2; stroke-linecap: round"/>
   </g>
   <g id="patch_4">
    <path d="M 442.639475 345.656727 
Q 495.087313 391.749855 545.855537 436.366875 
" clip-path="url(#p56edee7500)" style="fill: none; stroke: #000000; stroke-width: 2; stroke-linecap: round"/>
    <path d="M 542.486909 428.081205 
L 545.855537 436.366875 
L 537.205824 434.090376 
" clip-path="url(#p56edee7500)" style="fill: none; stroke: #000000; stroke-width: 2; stroke-linecap: round"/>
   </g>
   <g id="patch_5">
    <path d="M 428.801412 344.548274 
Q 344.346129 397.565576 261.784679 449.394013 
" clip-path="url(#p56edee7500)" style="fill: none; stroke: #000000; stroke-width: 2; stroke-linecap: round"/>
    <path d="M 270.686966 448.528392 
L 261.784679 449.394013 
L 266.433555 441.752812 
" clip-path="url(#p56edee7500)" style="fill: none; stroke: #000000; stroke-width: 2; stroke-linecap: round"/>
   </g>
   <g id="patch_6">
    <path d="M 377.519335 111.690957 
Q 405.751207 221.621796 433.426872 329.386847 
" clip-path="url(#p56edee7500)" style="fill: none; stroke: #000000; stroke-width: 2; stroke-linecap: round"/>
    <path d="M 435.311206 320.643319 
L 433.426872 329.386847 
L 427.56265 322.633263 
" clip-path="url(#p56edee7500)" style="fill: none; stroke: #000000; stroke-width: 2; stroke-linecap: round"/>
   </g>
   <g id="patch_7">
    <path d="M 383.764495 105.40914 
Q 494.667093 133.218363 603.400772 160.483721 
" clip-path="url(#p56edee7500)" style="fill: none; stroke: #000000; stroke-width: 2; stroke-linecap: round"/>
    <path d="M 596.613904 154.658052 
L 603.400772 160.483721 
L 594.668116 162.417814 
" clip-path="url(#p56edee7500)" style="fill: none; stroke: #000000; stroke-width: 2; stroke-linecap: round"/>
   </g>
   <g id="patch_8">
    <path d="M 372.512164 111.477769 
Q 313.96191 279.242732 256.148465 444.896507 
" clip-path="url(#p56edee7500)" style="fill: none; stroke: #000000; stroke-width: 2; stroke-linecap: round"/>
    <path d="M 262.561157 438.661334 
L 256.148465 444.896507 
L 255.007942 436.025249 
" clip-path="url(#p56edee7500)" style="fill: none; stroke: #000000; stroke-width: 2; stroke-linecap: round"/>
   </g>
   <g id="patch_9">
    <path d="M 366.834654 104.793509 
Q 258.553206 123.713378 152.474453 142.248373 
" clip-path="url(#p56edee7500)" style="fill: none; stroke: #000000; stroke-width: 2; stroke-linecap: round"/>
    <path d="M 161.043544 144.811708 
L 152.474453 142.248373 
L 159.666576 136.931102 
" clip-path="url(#p56edee7500)" style="fill: none; stroke: #000000; stroke-width: 2; stroke-linecap: round"/>
   </g>
   <g id="patch_10">
    <path d="M 607.827792 169.238926 
Q 525.05449 251.536818 443.866874 332.258131 
" clip-path="url(#p56edee7500)" style="fill: none; stroke: #000000; stroke-width: 2; stroke-linecap: round"/>
    <path d="M 452.360266 329.454154 
L 443.866874 332.258131 
L 446.719728 323.781031 
" clip-path="url(#p56edee7500)" style="fill: none; stroke: #000000; stroke-width: 2; stroke-linecap: round"/>
   </g>
   <g id="patch_11">
    <path d="M 605.56908 161.027432 
Q 494.666482 133.21821 385.932803 105.952851 
" clip-path="url(#p56edee7500)" style="fill: none; stroke: #000000; stroke-width: 2; stroke-linecap: round"/>
    <path d="M 392.719671 111.778521 
L 385.932803 105.952851 
L 394.665459 104.018758 
" clip-path="url(#p56edee7500)" style="fill: none; stroke: #000000; stroke-width: 2; stroke-linecap: round"/>
   </g>
   <g id="patch_12">
    <path d="M 612.15869 171.601622 
Q 584.003691 303.34526 556.316012 432.902207 
" clip-path="url(#p56edee7500)" style="fill: none; stroke: #000000; stroke-width: 2; stroke-linecap: round"/>
    <path d="M 561.899612 425.914832 
L 556.316012 432.902207 
L 554.076272 424.242902 
" clip-path="url(#p56edee7500)" style="fill: none; stroke: #000000; stroke-width: 2; stroke-linecap: round"/>
   </g>
   <g id="patch_13">
    <path d="M 547.536977 437.844587 
Q 495.089138 391.751459 444.320914 347.134439 
" clip-path="url(#p56edee7500)" style="fill: none; stroke: #000000; stroke-width: 2; stroke-linecap: round"/>
    <path d="M 447.689542 355.42011 
L 444.320914 347.134439 
L 452.970627 349.410938 
" clip-path="url(#p56edee7500)" style="fill: none; stroke: #000000; stroke-width: 2; stroke-linecap: round"/>
   </g>
   <g id="patch_14">
    <path d="M 555.848357 435.09047 
Q 584.003355 303.346833 611.691035 173.789885 
" clip-path="url(#p56edee7500)" style="fill: none; stroke: #000000; stroke-width: 2; stroke-linecap: round"/>
    <path d="M 606.107435 180.77726 
L 611.691035 173.789885 
L 613.930775 182.44919 
" clip-path="url(#p56edee7500)" style="fill: none; stroke: #000000; stroke-width: 2; stroke-linecap: round"/>
   </g>
   <g id="patch_15">
    <path d="M 545.385595 443.892249 
Q 403.298855 449.372524 263.446522 454.766618 
" clip-path="url(#p56edee7500)" style="fill: none; stroke: #000000; stroke-width: 2; stroke-linecap: round"/>
    <path d="M 271.594743 458.455316 
L 263.446522 454.766618 
L 271.286413 450.46126 
" clip-path="url(#p56edee7500)" style="fill: none; stroke: #000000; stroke-width: 2; stroke-linecap: round"/>
   </g>
   <g id="patch_16">
    <path d="M 259.893588 450.581157 
Q 344.34887 397.563855 426.91032 345.735418 
" clip-path="url(#p56edee7500)" style="fill: none; stroke: #000000; stroke-width: 2; stroke-linecap: round"/>
    <path d="M 418.008034 346.601038 
L 426.91032 345.735418 
L 422.261445 353.376619 
" clip-path="url(#p56edee7500)" style="fill: none; stroke: #000000; stroke-width: 2; stroke-linecap: round"/>
   </g>
   <g id="patch_17">
    <path d="M 255.410213 447.011831 
Q 313.960467 279.246868 371.773912 113.593093 
" clip-path="url(#p56edee7500)" style="fill: none; stroke: #000000; stroke-width: 2; stroke-linecap: round"/>
    <path d="M 365.36122 119.828266 
L 371.773912 113.593093 
L 372.914435 122.464351 
" clip-path="url(#p56edee7500)" style="fill: none; stroke: #000000; stroke-width: 2; stroke-linecap: round"/>
   </g>
   <g id="patch_18">
    <path d="M 261.210254 454.852871 
Q 403.296994 449.372596 543.149327 443.978502 
" clip-path="url(#p56edee7500)" style="fill: none; stroke: #ff0000; stroke-width: 2; stroke-linecap: round"/>
    <path d="M 535.001106 440.289804 
L 543.149327 443.978502 
L 535.309436 448.28386 
" clip-path="url(#p56edee7500)" style="fill: none; stroke: #ff0000; stroke-width: 2; stroke-linecap: round"/>
   </g>
   <g id="patch_19">
    <path d="M 249.651419 447.029846 
Q 197.150585 299.655506 145.400138 154.387565 
" clip-path="url(#p56edee7500)" style="fill: none; stroke: #000000; stroke-width: 2; stroke-linecap: round"/>
    <path d="M 144.31676 163.265982 
L 145.400138 154.387565 
L 151.852845 160.581317 
" clip-path="url(#p56edee7500)" style="fill: none; stroke: #000000; stroke-width: 2; stroke-linecap: round"/>
   </g>
   <g id="patch_20">
    <path d="M 150.274127 142.632833 
Q 258.555576 123.712964 364.634328 105.177969 
" clip-path="url(#p56edee7500)" style="fill: none; stroke: #000000; stroke-width: 2; stroke-linecap: round"/>
    <path d="M 356.065238 102.614633 
L 364.634328 105.177969 
L 357.442205 110.495239 
" clip-path="url(#p56edee7500)" style="fill: none; stroke: #000000; stroke-width: 2; stroke-linecap: round"/>
   </g>
   <g id="patch_21">
    <path d="M 144.649383 152.280131 
Q 197.150217 299.654472 248.900664 444.922413 
" clip-path="url(#p56edee7500)" style="fill: none; stroke: #ff0000; stroke-width: 2; stroke-linecap: round"/>
    <path d="M 249.984042 436.043996 
L 248.900664 444.922413 
L 242.447957 438.728661 
" clip-path="url(#p56edee7500)" style="fill: none; stroke: #ff0000; stroke-width: 2; stroke-linecap: round"/>
   </g>
   <g id="text_1">
    <g id="patch_22">
     <path d="M 395.690701 220.265278 
L 397.589854 227.660306 
Q 398.485329 231.147156 401.972179 230.251681 
L 413.220903 227.362842 
Q 416.707753 226.467367 415.812279 222.980517 
L 413.913125 215.585488 
Q 413.017651 212.098638 409.5308 212.994113 
L 398.282076 215.882953 
Q 394.795226 216.778427 395.690701 220.265278 
z
" clip-path="url(#p56edee7500)" style="fill: #ffffff; stroke: #ffffff; stroke-linejoin: miter"/>
    </g>
    <g clip-path="url(#p56edee7500)">
     <!-- 3 -->
     <g transform="translate(401.594737 218.749033)rotate(-284.403144)scale(0.12 -0.12)">
      <defs>
       <path id="DejaVuSans-33" d="M 2597 2516 
Q 3050 2419 3304 2112 
Q 3559 1806 3559 1356 
Q 3559 666 3084 287 
Q 2609 -91 1734 -91 
Q 1441 -91 1130 -33 
Q 819 25 488 141 
L 488 750 
Q 750 597 1062 519 
Q 1375 441 1716 441 
Q 2309 441 2620 675 
Q 2931 909 2931 1356 
Q 2931 1769 2642 2001 
Q 2353 2234 1838 2234 
L 1294 2234 
L 1294 2753 
L 1863 2753 
Q 2328 2753 2575 2939 
Q 2822 3125 2822 3475 
Q 2822 3834 2567 4026 
Q 2313 4219 1838 4219 
Q 1578 4219 1281 4162 
Q 984 4106 628 3988 
L 628 4550 
Q 988 4650 1302 4700 
Q 1616 4750 1894 4750 
Q 2613 4750 3031 4423 
Q 3450 4097 3450 3541 
Q 3450 3153 3228 2886 
Q 3006 2619 2597 2516 
z
" transform="scale(0.015625)"/>
      </defs>
      <use xlink:href="#DejaVuSans-33"/>
     </g>
    </g>
   </g>
   <g id="text_2">
    <g id="patch_23">
     <path d="M 528.978436 260.900591 
L 534.392723 255.517402 
Q 536.945628 252.979159 534.407385 250.426254 
L 526.218909 242.190475 
Q 523.680667 239.63757 521.127762 242.175813 
L 515.713475 247.559002 
Q 513.16057 250.097245 515.698812 252.65015 
L 523.887289 260.885928 
Q 526.425531 263.438833 528.978436 260.900591 
z
" clip-path="url(#p56edee7500)" style="fill: #ffffff; stroke: #ffffff; stroke-linejoin: miter"/>
    </g>
    <g clip-path="url(#p56edee7500)">
     <!-- 7 -->
     <g transform="translate(524.68061 256.577937)rotate(-44.834987)scale(0.12 -0.12)">
      <defs>
       <path id="DejaVuSans-37" d="M 525 4666 
L 3525 4666 
L 3525 4397 
L 1831 0 
L 1172 0 
L 2766 4134 
L 525 4134 
L 525 4666 
z
" transform="scale(0.015625)"/>
      </defs>
      <use xlink:href="#DejaVuSans-37"/>
     </g>
    </g>
   </g>
   <g id="text_3">
    <g id="patch_24">
     <path d="M 486.010911 396.29653 
L 491.745913 401.336665 
Q 494.450041 403.713154 496.826529 401.009027 
L 504.493179 392.2854 
Q 506.869668 389.581273 504.16554 387.204785 
L 498.430538 382.164649 
Q 495.726411 379.788161 493.349922 382.492288 
L 485.683272 391.215914 
Q 483.306784 393.920041 486.010911 396.29653 
z
" clip-path="url(#p56edee7500)" style="fill: #ffffff; stroke: #ffffff; stroke-linejoin: miter"/>
    </g>
    <g clip-path="url(#p56edee7500)">
     <!-- 6 -->
     <g transform="translate(490.03485 391.717823)rotate(-318.689781)scale(0.12 -0.12)">
      <defs>
       <path id="DejaVuSans-36" d="M 2113 2584 
Q 1688 2584 1439 2293 
Q 1191 2003 1191 1497 
Q 1191 994 1439 701 
Q 1688 409 2113 409 
Q 2538 409 2786 701 
Q 3034 994 3034 1497 
Q 3034 2003 2786 2293 
Q 2538 2584 2113 2584 
z
M 3366 4563 
L 3366 3988 
Q 3128 4100 2886 4159 
Q 2644 4219 2406 4219 
Q 1781 4219 1451 3797 
Q 1122 3375 1075 2522 
Q 1259 2794 1537 2939 
Q 1816 3084 2150 3084 
Q 2853 3084 3261 2657 
Q 3669 2231 3669 1497 
Q 3669 778 3244 343 
Q 2819 -91 2113 -91 
Q 1303 -91 875 529 
Q 447 1150 447 2328 
Q 447 3434 972 4092 
Q 1497 4750 2381 4750 
Q 2619 4750 2861 4703 
Q 3103 4656 3366 4563 
z
" transform="scale(0.015625)"/>
      </defs>
      <use xlink:href="#DejaVuSans-36"/>
     </g>
    </g>
   </g>
   <g id="text_4">
    <g id="patch_25">
     <path d="M 346.11569 407.56152 
L 352.582135 403.502171 
Q 355.631147 401.588136 353.717112 398.539125 
L 347.542356 388.702887 
Q 345.628321 385.653876 342.579309 387.567911 
L 336.112864 391.62726 
Q 333.063853 393.541294 334.977888 396.590306 
L 341.152644 406.426544 
Q 343.066679 409.475555 346.11569 407.56152 
z
" clip-path="url(#p56edee7500)" style="fill: #ffffff; stroke: #ffffff; stroke-linejoin: miter"/>
    </g>
    <g clip-path="url(#p56edee7500)">
     <!-- 9 -->
     <g transform="translate(342.874791 402.398845)rotate(-32.11879)scale(0.12 -0.12)">
      <defs>
       <path id="DejaVuSans-39" d="M 703 97 
L 703 672 
Q 941 559 1184 500 
Q 1428 441 1663 441 
Q 2288 441 2617 861 
Q 2947 1281 2994 2138 
Q 2813 1869 2534 1725 
Q 2256 1581 1919 1581 
Q 1219 1581 811 2004 
Q 403 2428 403 3163 
Q 403 3881 828 4315 
Q 1253 4750 1959 4750 
Q 2769 4750 3195 4129 
Q 3622 3509 3622 2328 
Q 3622 1225 3098 567 
Q 2575 -91 1691 -91 
Q 1453 -91 1209 -44 
Q 966 3 703 97 
z
M 1959 2075 
Q 2384 2075 2632 2365 
Q 2881 2656 2881 3163 
Q 2881 3666 2632 3958 
Q 2384 4250 1959 4250 
Q 1534 4250 1286 3958 
Q 1038 3666 1038 3163 
Q 1038 2656 1286 2365 
Q 1534 2075 1959 2075 
z
" transform="scale(0.015625)"/>
      </defs>
      <use xlink:href="#DejaVuSans-39"/>
     </g>
    </g>
   </g>
   <g id="text_5">
    <g id="patch_26">
     <path d="M 395.690701 220.265278 
L 397.589854 227.660306 
Q 398.485329 231.147156 401.972179 230.251681 
L 413.220903 227.362842 
Q 416.707753 226.467367 415.812279 222.980517 
L 413.913125 215.585488 
Q 413.017651 212.098638 409.5308 212.994113 
L 398.282076 215.882953 
Q 394.795226 216.778427 395.690701 220.265278 
z
" clip-path="url(#p56edee7500)" style="fill: #ffffff; stroke: #ffffff; stroke-linejoin: miter"/>
    </g>
    <g clip-path="url(#p56edee7500)">
     <!-- 3 -->
     <g transform="translate(401.594737 218.749033)rotate(-284.403144)scale(0.12 -0.12)">
      <use xlink:href="#DejaVuSans-33"/>
     </g>
    </g>
   </g>
   <g id="text_6">
    <g id="patch_27">
     <path d="M 488.675953 141.41417 
L 496.081676 143.271181 
Q 499.573569 144.146786 500.449173 140.654893 
L 503.27391 129.389901 
Q 504.149515 125.898008 500.657622 125.022403 
L 493.251899 123.165392 
Q 489.760006 122.289787 488.884402 125.78168 
L 486.059664 137.046672 
Q 485.18406 140.538565 488.675953 141.41417 
z
" clip-path="url(#p56edee7500)" style="fill: #ffffff; stroke: #ffffff; stroke-linejoin: miter"/>
    </g>
    <g clip-path="url(#p56edee7500)">
     <!-- 8 -->
     <g transform="translate(490.158552 135.501595)rotate(-345.923127)scale(0.12 -0.12)">
      <defs>
       <path id="DejaVuSans-38" d="M 2034 2216 
Q 1584 2216 1326 1975 
Q 1069 1734 1069 1313 
Q 1069 891 1326 650 
Q 1584 409 2034 409 
Q 2484 409 2743 651 
Q 3003 894 3003 1313 
Q 3003 1734 2745 1975 
Q 2488 2216 2034 2216 
z
M 1403 2484 
Q 997 2584 770 2862 
Q 544 3141 544 3541 
Q 544 4100 942 4425 
Q 1341 4750 2034 4750 
Q 2731 4750 3128 4425 
Q 3525 4100 3525 3541 
Q 3525 3141 3298 2862 
Q 3072 2584 2669 2484 
Q 3125 2378 3379 2068 
Q 3634 1759 3634 1313 
Q 3634 634 3220 271 
Q 2806 -91 2034 -91 
Q 1263 -91 848 271 
Q 434 634 434 1313 
Q 434 1759 690 2068 
Q 947 2378 1403 2484 
z
M 1172 3481 
Q 1172 3119 1398 2916 
Q 1625 2713 2034 2713 
Q 2441 2713 2670 2916 
Q 2900 3119 2900 3481 
Q 2900 3844 2670 4047 
Q 2441 4250 2034 4250 
Q 1625 4250 1398 4047 
Q 1172 3844 1172 3481 
z
" transform="scale(0.015625)"/>
      </defs>
      <use xlink:href="#DejaVuSans-38"/>
     </g>
    </g>
   </g>
   <g id="text_7">
    <g id="patch_28">
     <path d="M 321.5848 285.948765 
L 324.100614 278.740165 
Q 325.286852 275.341218 321.887905 274.15498 
L 310.922761 270.328127 
Q 307.523815 269.141889 306.337576 272.540835 
L 303.821763 279.749435 
Q 302.635525 283.148382 306.034472 284.33462 
L 316.999616 288.161473 
Q 320.398562 289.347711 321.5848 285.948765 
z
" clip-path="url(#p56edee7500)" style="fill: #ffffff; stroke: #ffffff; stroke-linejoin: miter"/>
    </g>
    <g clip-path="url(#p56edee7500)">
     <!-- 3 -->
     <g transform="translate(315.829605 283.940192)rotate(-70.760927)scale(0.12 -0.12)">
      <use xlink:href="#DejaVuSans-33"/>
     </g>
    </g>
   </g>
   <g id="text_8">
    <g id="patch_29">
     <path d="M 256.412984 133.636727 
L 263.934038 132.322584 
Q 267.480311 131.702949 266.860676 128.156676 
L 264.861706 116.716251 
Q 264.24207 113.169978 260.695797 113.789614 
L 253.174744 115.103757 
Q 249.628471 115.723393 250.248106 119.269666 
L 252.247076 130.71009 
Q 252.866711 134.256363 256.412984 133.636727 
z
" clip-path="url(#p56edee7500)" style="fill: #ffffff; stroke: #ffffff; stroke-linejoin: miter"/>
    </g>
    <g clip-path="url(#p56edee7500)">
     <!-- 6 -->
     <g transform="translate(255.363799 127.632075)rotate(-9.911158)scale(0.12 -0.12)">
      <use xlink:href="#DejaVuSans-36"/>
     </g>
    </g>
   </g>
   <g id="text_9">
    <g id="patch_30">
     <path d="M 528.978436 260.900591 
L 534.392723 255.517402 
Q 536.945628 252.979159 534.407385 250.426254 
L 526.218909 242.190475 
Q 523.680667 239.63757 521.127762 242.175813 
L 515.713475 247.559002 
Q 513.16057 250.097245 515.698812 252.65015 
L 523.887289 260.885928 
Q 526.425531 263.438833 528.978436 260.900591 
z
" clip-path="url(#p56edee7500)" style="fill: #ffffff; stroke: #ffffff; stroke-linejoin: miter"/>
    </g>
    <g clip-path="url(#p56edee7500)">
     <!-- 5 -->
     <g transform="translate(524.68061 256.577937)rotate(-44.834987)scale(0.12 -0.12)">
      <defs>
       <path id="DejaVuSans-35" d="M 691 4666 
L 3169 4666 
L 3169 4134 
L 1269 4134 
L 1269 2991 
Q 1406 3038 1543 3061 
Q 1681 3084 1819 3084 
Q 2600 3084 3056 2656 
Q 3513 2228 3513 1497 
Q 3513 744 3044 326 
Q 2575 -91 1722 -91 
Q 1428 -91 1123 -41 
Q 819 9 494 109 
L 494 744 
Q 775 591 1075 516 
Q 1375 441 1709 441 
Q 2250 441 2565 725 
Q 2881 1009 2881 1497 
Q 2881 1984 2565 2268 
Q 2250 2553 1709 2553 
Q 1456 2553 1204 2497 
Q 953 2441 691 2322 
L 691 4666 
z
" transform="scale(0.015625)"/>
      </defs>
      <use xlink:href="#DejaVuSans-35"/>
     </g>
    </g>
   </g>
   <g id="text_10">
    <g id="patch_31">
     <path d="M 488.675953 141.41417 
L 496.081676 143.271181 
Q 499.573569 144.146786 500.449173 140.654893 
L 503.27391 129.389901 
Q 504.149515 125.898008 500.657622 125.022403 
L 493.251899 123.165392 
Q 489.760006 122.289787 488.884402 125.78168 
L 486.059664 137.046672 
Q 485.18406 140.538565 488.675953 141.41417 
z
" clip-path="url(#p56edee7500)" style="fill: #ffffff; stroke: #ffffff; stroke-linejoin: miter"/>
    </g>
    <g clip-path="url(#p56edee7500)">
     <!-- 7 -->
     <g transform="translate(490.158552 135.501595)rotate(-345.923127)scale(0.12 -0.12)">
      <use xlink:href="#DejaVuSans-37"/>
     </g>
    </g>
   </g>
   <g id="text_11">
    <g id="patch_32">
     <path d="M 592.404847 309.045201 
L 594.000495 301.578801 
Q 594.752864 298.058298 591.232361 297.305929 
L 579.875071 294.878757 
Q 576.354568 294.126389 575.6022 297.646892 
L 574.006551 305.113292 
Q 573.254183 308.633795 576.774686 309.386163 
L 588.131976 311.813335 
Q 591.652479 312.565704 592.404847 309.045201 
z
" clip-path="url(#p56edee7500)" style="fill: #ffffff; stroke: #ffffff; stroke-linejoin: miter"/>
    </g>
    <g clip-path="url(#p56edee7500)">
     <!-- 4 -->
     <g transform="translate(586.443829 307.771269)rotate(-77.936757)scale(0.12 -0.12)">
      <defs>
       <path id="DejaVuSans-34" d="M 2419 4116 
L 825 1625 
L 2419 1625 
L 2419 4116 
z
M 2253 4666 
L 3047 4666 
L 3047 1625 
L 3713 1625 
L 3713 1100 
L 3047 1100 
L 3047 0 
L 2419 0 
L 2419 1100 
L 313 1100 
L 313 1709 
L 2253 4666 
z
" transform="scale(0.015625)"/>
      </defs>
      <use xlink:href="#DejaVuSans-34"/>
     </g>
    </g>
   </g>
   <g id="text_12">
    <g id="patch_33">
     <path d="M 486.010911 396.29653 
L 491.745913 401.336665 
Q 494.450041 403.713154 496.826529 401.009027 
L 504.493179 392.2854 
Q 506.869668 389.581273 504.16554 387.204785 
L 498.430538 382.164649 
Q 495.726411 379.788161 493.349922 382.492288 
L 485.683272 391.215914 
Q 483.306784 393.920041 486.010911 396.29653 
z
" clip-path="url(#p56edee7500)" style="fill: #ffffff; stroke: #ffffff; stroke-linejoin: miter"/>
    </g>
    <g clip-path="url(#p56edee7500)">
     <!-- 9 -->
     <g transform="translate(490.03485 391.717823)rotate(-318.689781)scale(0.12 -0.12)">
      <use xlink:href="#DejaVuSans-39"/>
     </g>
    </g>
   </g>
   <g id="text_13">
    <g id="patch_34">
     <path d="M 592.404847 309.045201 
L 594.000495 301.578801 
Q 594.752864 298.058298 591.232361 297.305929 
L 579.875071 294.878757 
Q 576.354568 294.126389 575.6022 297.646892 
L 574.006551 305.113292 
Q 573.254183 308.633795 576.774686 309.386163 
L 588.131976 311.813335 
Q 591.652479 312.565704 592.404847 309.045201 
z
" clip-path="url(#p56edee7500)" style="fill: #ffffff; stroke: #ffffff; stroke-linejoin: miter"/>
    </g>
    <g clip-path="url(#p56edee7500)">
     <!-- 8 -->
     <g transform="translate(586.443829 307.771269)rotate(-77.936757)scale(0.12 -0.12)">
      <use xlink:href="#DejaVuSans-38"/>
     </g>
    </g>
   </g>
   <g id="text_14">
    <g id="patch_35">
     <path d="M 399.845814 458.919577 
L 407.475141 458.625314 
Q 411.072466 458.486566 410.933717 454.889241 
L 410.486109 443.28412 
Q 410.34736 439.686794 406.750035 439.825543 
L 399.120708 440.119805 
Q 395.523383 440.258554 395.662131 443.855879 
L 396.10974 455.461 
Q 396.248488 459.058326 399.845814 458.919577 
z
" clip-path="url(#p56edee7500)" style="fill: #ffffff; stroke: #ffffff; stroke-linejoin: miter"/>
    </g>
    <g clip-path="url(#p56edee7500)">
     <!-- 6 -->
     <g transform="translate(399.61088 452.828481)rotate(-2.208799)scale(0.12 -0.12)">
      <use xlink:href="#DejaVuSans-36"/>
     </g>
    </g>
   </g>
   <g id="text_15">
    <g id="patch_36">
     <path d="M 346.11569 407.56152 
L 352.582135 403.502171 
Q 355.631147 401.588136 353.717112 398.539125 
L 347.542356 388.702887 
Q 345.628321 385.653876 342.579309 387.567911 
L 336.112864 391.62726 
Q 333.063853 393.541294 334.977888 396.590306 
L 341.152644 406.426544 
Q 343.066679 409.475555 346.11569 407.56152 
z
" clip-path="url(#p56edee7500)" style="fill: #ffffff; stroke: #ffffff; stroke-linejoin: miter"/>
    </g>
    <g clip-path="url(#p56edee7500)">
     <!-- 7 -->
     <g transform="translate(342.874791 402.398845)rotate(-32.11879)scale(0.12 -0.12)">
      <use xlink:href="#DejaVuSans-37"/>
     </g>
    </g>
   </g>
   <g id="text_16">
    <g id="patch_37">
     <path d="M 321.5848 285.948765 
L 324.100614 278.740165 
Q 325.286852 275.341218 321.887905 274.15498 
L 310.922761 270.328127 
Q 307.523815 269.141889 306.337576 272.540835 
L 303.821763 279.749435 
Q 302.635525 283.148382 306.034472 284.33462 
L 316.999616 288.161473 
Q 320.398562 289.347711 321.5848 285.948765 
z
" clip-path="url(#p56edee7500)" style="fill: #ffffff; stroke: #ffffff; stroke-linejoin: miter"/>
    </g>
    <g clip-path="url(#p56edee7500)">
     <!-- 2 -->
     <g transform="translate(315.829605 283.940192)rotate(-70.760927)scale(0.12 -0.12)">
      <defs>
       <path id="DejaVuSans-32" d="M 1228 531 
L 3431 531 
L 3431 0 
L 469 0 
L 469 531 
Q 828 903 1448 1529 
Q 2069 2156 2228 2338 
Q 2531 2678 2651 2914 
Q 2772 3150 2772 3378 
Q 2772 3750 2511 3984 
Q 2250 4219 1831 4219 
Q 1534 4219 1204 4116 
Q 875 4013 500 3803 
L 500 4441 
Q 881 4594 1212 4672 
Q 1544 4750 1819 4750 
Q 2544 4750 2975 4387 
Q 3406 4025 3406 3419 
Q 3406 3131 3298 2873 
Q 3191 2616 2906 2266 
Q 2828 2175 2409 1742 
Q 1991 1309 1228 531 
z
" transform="scale(0.015625)"/>
      </defs>
      <use xlink:href="#DejaVuSans-32"/>
     </g>
    </g>
   </g>
   <g id="text_17">
    <g id="patch_38">
     <path d="M 399.845814 458.919577 
L 407.475141 458.625314 
Q 411.072466 458.486566 410.933717 454.889241 
L 410.486109 443.28412 
Q 410.34736 439.686794 406.750035 439.825543 
L 399.120708 440.119805 
Q 395.523383 440.258554 395.662131 443.855879 
L 396.10974 455.461 
Q 396.248488 459.058326 399.845814 458.919577 
z
" clip-path="url(#p56edee7500)" style="fill: #ffffff; stroke: #ffffff; stroke-linejoin: miter"/>
    </g>
    <g clip-path="url(#p56edee7500)">
     <!-- 2 -->
     <g transform="translate(399.61088 452.828481)rotate(-2.208799)scale(0.12 -0.12)">
      <use xlink:href="#DejaVuSans-32"/>
     </g>
    </g>
   </g>
   <g id="text_18">
    <g id="patch_39">
     <path d="M 187.007936 299.215652 
L 189.570114 306.407903 
Q 190.778213 309.799141 194.169451 308.591042 
L 205.109727 304.693663 
Q 208.500965 303.485564 207.292865 300.094326 
L 204.730688 292.902075 
Q 203.522589 289.510837 200.131351 290.718936 
L 189.191075 294.616314 
Q 185.799837 295.824414 187.007936 299.215652 
z
" clip-path="url(#p56edee7500)" style="fill: #ffffff; stroke: #ffffff; stroke-linejoin: miter"/>
    </g>
    <g clip-path="url(#p56edee7500)">
     <!-- 1 -->
     <g transform="translate(192.75008 297.170063)rotate(-289.608001)scale(0.12 -0.12)">
      <defs>
       <path id="DejaVuSans-31" d="M 794 531 
L 1825 531 
L 1825 4091 
L 703 3866 
L 703 4441 
L 1819 4666 
L 2450 4666 
L 2450 531 
L 3481 531 
L 3481 0 
L 794 0 
L 794 531 
z
" transform="scale(0.015625)"/>
      </defs>
      <use xlink:href="#DejaVuSans-31"/>
     </g>
    </g>
   </g>
   <g id="text_19">
    <g id="patch_40">
     <path d="M 256.412984 133.636727 
L 263.934038 132.322584 
Q 267.480311 131.702949 266.860676 128.156676 
L 264.861706 116.716251 
Q 264.24207 113.169978 260.695797 113.789614 
L 253.174744 115.103757 
Q 249.628471 115.723393 250.248106 119.269666 
L 252.247076 130.71009 
Q 252.866711 134.256363 256.412984 133.636727 
z
" clip-path="url(#p56edee7500)" style="fill: #ffffff; stroke: #ffffff; stroke-linejoin: miter"/>
    </g>
    <g clip-path="url(#p56edee7500)">
     <!-- 4 -->
     <g transform="translate(255.363799 127.632075)rotate(-9.911158)scale(0.12 -0.12)">
      <use xlink:href="#DejaVuSans-34"/>
     </g>
    </g>
   </g>
   <g id="text_20">
    <g id="patch_41">
     <path d="M 187.007936 299.215652 
L 189.570114 306.407903 
Q 190.778213 309.799141 194.169451 308.591042 
L 205.109727 304.693663 
Q 208.500965 303.485564 207.292865 300.094326 
L 204.730688 292.902075 
Q 203.522589 289.510837 200.131351 290.718936 
L 189.191075 294.616314 
Q 185.799837 295.824414 187.007936 299.215652 
z
" clip-path="url(#p56edee7500)" style="fill: #ffffff; stroke: #ffffff; stroke-linejoin: miter"/>
    </g>
    <g clip-path="url(#p56edee7500)">
     <!-- 8 -->
     <g transform="translate(192.75008 297.170063)rotate(-289.608001)scale(0.12 -0.12)">
      <use xlink:href="#DejaVuSans-38"/>
     </g>
    </g>
   </g>
   <g id="PathCollection_1">
    <defs>
     <path id="C0_0_9b3f23d8fa" d="M 0 14.142136 
C 3.750538 14.142136 7.347969 12.652031 10 10 
C 12.652031 7.347969 14.142136 3.750538 14.142136 -0 
C 14.142136 -3.750538 12.652031 -7.347969 10 -10 
C 7.347969 -12.652031 3.750538 -14.142136 0 -14.142136 
C -3.750538 -14.142136 -7.347969 -12.652031 -10 -10 
C -12.652031 -7.347969 -14.142136 -3.750538 -14.142136 0 
C -14.142136 3.750538 -12.652031 7.347969 -10 10 
C -7.347969 12.652031 -3.750538 14.142136 0 14.142136 
z
"/>
    </defs>
    <g clip-path="url(#p56edee7500)">
     <use xlink:href="#C0_0_9b3f23d8fa" x="436.137801" y="339.942813" style="fill: #ee82ee; stroke: #ee82ee"/>
    </g>
    <g clip-path="url(#p56edee7500)">
     <use xlink:href="#C0_0_9b3f23d8fa" x="375.365178" y="103.302982" style="fill: #ee82ee; stroke: #ee82ee"/>
    </g>
    <g clip-path="url(#p56edee7500)">
     <use xlink:href="#C0_0_9b3f23d8fa" x="613.968397" y="163.133591" style="fill: #ee82ee; stroke: #ee82ee"/>
    </g>
    <g clip-path="url(#p56edee7500)">
     <use xlink:href="#C0_0_9b3f23d8fa" x="554.03865" y="443.558502" style="fill: #00ff00; stroke: #00ff00"/>
    </g>
    <g clip-path="url(#p56edee7500)">
     <use xlink:href="#C0_0_9b3f23d8fa" x="252.557199" y="455.186618" style="fill: #00ff00; stroke: #00ff00"/>
    </g>
    <g clip-path="url(#p56edee7500)">
     <use xlink:href="#C0_0_9b3f23d8fa" x="141.743603" y="144.123359" style="fill: #00ff00; stroke: #00ff00"/>
    </g>
   </g>
   <g id="text_21">
    <g clip-path="url(#p56edee7500)">
     <!-- 0 -->
     <g transform="translate(429.775301 345.461563)scale(0.2 -0.2)">
      <defs>
       <path id="DejaVuSans-30" d="M 2034 4250 
Q 1547 4250 1301 3770 
Q 1056 3291 1056 2328 
Q 1056 1369 1301 889 
Q 1547 409 2034 409 
Q 2525 409 2770 889 
Q 3016 1369 3016 2328 
Q 3016 3291 2770 3770 
Q 2525 4250 2034 4250 
z
M 2034 4750 
Q 2819 4750 3233 4129 
Q 3647 3509 3647 2328 
Q 3647 1150 3233 529 
Q 2819 -91 2034 -91 
Q 1250 -91 836 529 
Q 422 1150 422 2328 
Q 422 3509 836 4129 
Q 1250 4750 2034 4750 
z
" transform="scale(0.015625)"/>
      </defs>
      <use xlink:href="#DejaVuSans-30"/>
     </g>
    </g>
   </g>
   <g id="text_22">
    <g clip-path="url(#p56edee7500)">
     <!-- 1 -->
     <g transform="translate(369.002678 108.821732)scale(0.2 -0.2)">
      <use xlink:href="#DejaVuSans-31"/>
     </g>
    </g>
   </g>
   <g id="text_23">
    <g clip-path="url(#p56edee7500)">
     <!-- 2 -->
     <g transform="translate(607.605897 168.652341)scale(0.2 -0.2)">
      <use xlink:href="#DejaVuSans-32"/>
     </g>
    </g>
   </g>
   <g id="text_24">
    <g clip-path="url(#p56edee7500)">
     <!-- 3 -->
     <g transform="translate(547.67615 449.077252)scale(0.2 -0.2)">
      <use xlink:href="#DejaVuSans-33"/>
     </g>
    </g>
   </g>
   <g id="text_25">
    <g clip-path="url(#p56edee7500)">
     <!-- 4 -->
     <g transform="translate(246.194699 460.705368)scale(0.2 -0.2)">
      <use xlink:href="#DejaVuSans-34"/>
     </g>
    </g>
   </g>
   <g id="text_26">
    <g clip-path="url(#p56edee7500)">
     <!-- 5 -->
     <g transform="translate(135.381103 149.642109)scale(0.2 -0.2)">
      <use xlink:href="#DejaVuSans-35"/>
     </g>
    </g>
   </g>
  </g>
 </g>
 <defs>
  <clipPath id="p56edee7500">
   <rect x="92.16" y="66.3552" width="571.392" height="425.7792"/>
  </clipPath>
 </defs>
</svg>
